G75*
%MOIN*%
%OFA0B0*%
%FSLAX25Y25*%
%IPPOS*%
%LPD*%
%AMOC8*
5,1,8,0,0,1.08239X$1,22.5*
%
%ADD10R,0.12217X0.06706*%
%ADD11R,0.05918X0.07099*%
%ADD12R,0.05599X0.09599*%
%ADD13R,0.14973X0.09461*%
%ADD14OC8,0.06800*%
%ADD15C,0.06800*%
%ADD16C,0.08477*%
%ADD17R,0.05524X0.05918*%
D10*
X0076800Y0045894D03*
X0076800Y0057706D03*
X0126800Y0057706D03*
X0126800Y0045894D03*
D11*
G36*
X0100060Y0072808D02*
X0095876Y0076992D01*
X0100894Y0082010D01*
X0105078Y0077826D01*
X0100060Y0072808D01*
G37*
G36*
X0094493Y0078376D02*
X0090309Y0082560D01*
X0095327Y0087578D01*
X0099511Y0083394D01*
X0094493Y0078376D01*
G37*
G36*
X0091915Y0098933D02*
X0096099Y0103117D01*
X0101117Y0098099D01*
X0096933Y0093915D01*
X0091915Y0098933D01*
G37*
G36*
X0097483Y0104501D02*
X0101667Y0108685D01*
X0106685Y0103667D01*
X0102501Y0099483D01*
X0097483Y0104501D01*
G37*
G36*
X0113004Y0105256D02*
X0117188Y0101072D01*
X0112170Y0096054D01*
X0107986Y0100238D01*
X0113004Y0105256D01*
G37*
G36*
X0118572Y0099688D02*
X0122756Y0095504D01*
X0117738Y0090486D01*
X0113554Y0094670D01*
X0118572Y0099688D01*
G37*
D12*
X0110898Y0039599D03*
X0101800Y0039599D03*
X0092702Y0039599D03*
D13*
X0101800Y0064001D03*
D14*
X0156800Y0031800D03*
X0166800Y0031800D03*
X0166800Y0021800D03*
X0156800Y0021800D03*
X0176800Y0021800D03*
X0176800Y0031800D03*
D15*
X0029800Y0061800D02*
X0023800Y0061800D01*
X0023800Y0071800D02*
X0029800Y0071800D01*
X0029800Y0081800D02*
X0023800Y0081800D01*
X0023800Y0091800D02*
X0029800Y0091800D01*
X0029800Y0101800D02*
X0023800Y0101800D01*
X0023800Y0111800D02*
X0029800Y0111800D01*
X0029800Y0121800D02*
X0023800Y0121800D01*
X0023800Y0131800D02*
X0029800Y0131800D01*
X0066800Y0168800D02*
X0066800Y0174800D01*
X0076800Y0174800D02*
X0076800Y0168800D01*
X0086800Y0168800D02*
X0086800Y0174800D01*
X0096800Y0174800D02*
X0096800Y0168800D01*
X0106800Y0168800D02*
X0106800Y0174800D01*
X0116800Y0174800D02*
X0116800Y0168800D01*
X0126800Y0168800D02*
X0126800Y0174800D01*
X0136800Y0174800D02*
X0136800Y0168800D01*
X0173800Y0131800D02*
X0179800Y0131800D01*
X0179800Y0121800D02*
X0173800Y0121800D01*
X0173800Y0111800D02*
X0179800Y0111800D01*
X0179800Y0101800D02*
X0173800Y0101800D01*
X0173800Y0091800D02*
X0179800Y0091800D01*
X0179800Y0081800D02*
X0173800Y0081800D01*
X0173800Y0071800D02*
X0179800Y0071800D01*
X0179800Y0061800D02*
X0173800Y0061800D01*
X0136800Y0024800D02*
X0136800Y0018800D01*
X0126800Y0018800D02*
X0126800Y0024800D01*
X0116800Y0024800D02*
X0116800Y0018800D01*
X0106800Y0018800D02*
X0106800Y0024800D01*
X0096800Y0024800D02*
X0096800Y0018800D01*
X0086800Y0018800D02*
X0086800Y0024800D01*
X0076800Y0024800D02*
X0076800Y0018800D01*
X0066800Y0018800D02*
X0066800Y0024800D01*
D16*
X0161800Y0140166D02*
X0161800Y0147843D01*
X0161800Y0165757D02*
X0161800Y0173434D01*
D17*
G36*
X0103565Y0087816D02*
X0099659Y0091722D01*
X0103843Y0095906D01*
X0107749Y0092000D01*
X0103565Y0087816D01*
G37*
G36*
X0109222Y0082159D02*
X0105316Y0086065D01*
X0109500Y0090249D01*
X0113406Y0086343D01*
X0109222Y0082159D01*
G37*
M02*
