G75*
%MOIN*%
%OFA0B0*%
%FSLAX25Y25*%
%IPPOS*%
%LPD*%
%AMOC8*
5,1,8,0,0,1.08239X$1,22.5*
%
%ADD10R,0.05118X0.06299*%
%ADD11R,0.05000X0.02200*%
%ADD12R,0.02200X0.05000*%
%ADD13OC8,0.06000*%
%ADD14C,0.06000*%
%ADD15R,0.04724X0.04724*%
%ADD16R,0.20000X0.07000*%
%ADD17R,0.05118X0.05906*%
%ADD18R,0.05906X0.05118*%
%ADD19C,0.07677*%
%ADD20C,0.01600*%
%ADD21C,0.02781*%
D10*
G36*
X0052913Y0119170D02*
X0049294Y0115551D01*
X0044841Y0120004D01*
X0048460Y0123623D01*
X0052913Y0119170D01*
G37*
G36*
X0058480Y0124738D02*
X0054861Y0121119D01*
X0050408Y0125572D01*
X0054027Y0129191D01*
X0058480Y0124738D01*
G37*
G36*
X0055767Y0130931D02*
X0059386Y0134550D01*
X0063839Y0130097D01*
X0060220Y0126478D01*
X0055767Y0130931D01*
G37*
G36*
X0061335Y0136498D02*
X0064954Y0140117D01*
X0069407Y0135664D01*
X0065788Y0132045D01*
X0061335Y0136498D01*
G37*
D11*
G36*
X0091952Y0107319D02*
X0088418Y0110853D01*
X0089974Y0112409D01*
X0093508Y0108875D01*
X0091952Y0107319D01*
G37*
G36*
X0089725Y0105092D02*
X0086191Y0108626D01*
X0087747Y0110182D01*
X0091281Y0106648D01*
X0089725Y0105092D01*
G37*
G36*
X0087498Y0102864D02*
X0083964Y0106398D01*
X0085520Y0107954D01*
X0089054Y0104420D01*
X0087498Y0102864D01*
G37*
G36*
X0085271Y0100637D02*
X0081737Y0104171D01*
X0083293Y0105727D01*
X0086827Y0102193D01*
X0085271Y0100637D01*
G37*
G36*
X0083044Y0098410D02*
X0079510Y0101944D01*
X0081066Y0103500D01*
X0084600Y0099966D01*
X0083044Y0098410D01*
G37*
G36*
X0094180Y0109546D02*
X0090646Y0113080D01*
X0092202Y0114636D01*
X0095736Y0111102D01*
X0094180Y0109546D01*
G37*
G36*
X0096407Y0111773D02*
X0092873Y0115307D01*
X0094429Y0116863D01*
X0097963Y0113329D01*
X0096407Y0111773D01*
G37*
G36*
X0098634Y0114000D02*
X0095100Y0117534D01*
X0096656Y0119090D01*
X0100190Y0115556D01*
X0098634Y0114000D01*
G37*
G36*
X0122534Y0090100D02*
X0119000Y0093634D01*
X0120556Y0095190D01*
X0124090Y0091656D01*
X0122534Y0090100D01*
G37*
G36*
X0120307Y0087873D02*
X0116773Y0091407D01*
X0118329Y0092963D01*
X0121863Y0089429D01*
X0120307Y0087873D01*
G37*
G36*
X0118080Y0085646D02*
X0114546Y0089180D01*
X0116102Y0090736D01*
X0119636Y0087202D01*
X0118080Y0085646D01*
G37*
G36*
X0115853Y0083418D02*
X0112319Y0086952D01*
X0113875Y0088508D01*
X0117409Y0084974D01*
X0115853Y0083418D01*
G37*
G36*
X0113626Y0081191D02*
X0110092Y0084725D01*
X0111648Y0086281D01*
X0115182Y0082747D01*
X0113626Y0081191D01*
G37*
G36*
X0111398Y0078964D02*
X0107864Y0082498D01*
X0109420Y0084054D01*
X0112954Y0080520D01*
X0111398Y0078964D01*
G37*
G36*
X0109171Y0076737D02*
X0105637Y0080271D01*
X0107193Y0081827D01*
X0110727Y0078293D01*
X0109171Y0076737D01*
G37*
G36*
X0106944Y0074510D02*
X0103410Y0078044D01*
X0104966Y0079600D01*
X0108500Y0076066D01*
X0106944Y0074510D01*
G37*
D12*
G36*
X0096656Y0074510D02*
X0095100Y0076066D01*
X0098634Y0079600D01*
X0100190Y0078044D01*
X0096656Y0074510D01*
G37*
G36*
X0094429Y0076737D02*
X0092873Y0078293D01*
X0096407Y0081827D01*
X0097963Y0080271D01*
X0094429Y0076737D01*
G37*
G36*
X0092202Y0078964D02*
X0090646Y0080520D01*
X0094180Y0084054D01*
X0095736Y0082498D01*
X0092202Y0078964D01*
G37*
G36*
X0089974Y0081191D02*
X0088418Y0082747D01*
X0091952Y0086281D01*
X0093508Y0084725D01*
X0089974Y0081191D01*
G37*
G36*
X0087747Y0083418D02*
X0086191Y0084974D01*
X0089725Y0088508D01*
X0091281Y0086952D01*
X0087747Y0083418D01*
G37*
G36*
X0085520Y0085646D02*
X0083964Y0087202D01*
X0087498Y0090736D01*
X0089054Y0089180D01*
X0085520Y0085646D01*
G37*
G36*
X0083293Y0087873D02*
X0081737Y0089429D01*
X0085271Y0092963D01*
X0086827Y0091407D01*
X0083293Y0087873D01*
G37*
G36*
X0081066Y0090100D02*
X0079510Y0091656D01*
X0083044Y0095190D01*
X0084600Y0093634D01*
X0081066Y0090100D01*
G37*
G36*
X0104966Y0114000D02*
X0103410Y0115556D01*
X0106944Y0119090D01*
X0108500Y0117534D01*
X0104966Y0114000D01*
G37*
G36*
X0107193Y0111773D02*
X0105637Y0113329D01*
X0109171Y0116863D01*
X0110727Y0115307D01*
X0107193Y0111773D01*
G37*
G36*
X0109420Y0109546D02*
X0107864Y0111102D01*
X0111398Y0114636D01*
X0112954Y0113080D01*
X0109420Y0109546D01*
G37*
G36*
X0111648Y0107319D02*
X0110092Y0108875D01*
X0113626Y0112409D01*
X0115182Y0110853D01*
X0111648Y0107319D01*
G37*
G36*
X0113875Y0105092D02*
X0112319Y0106648D01*
X0115853Y0110182D01*
X0117409Y0108626D01*
X0113875Y0105092D01*
G37*
G36*
X0116102Y0102864D02*
X0114546Y0104420D01*
X0118080Y0107954D01*
X0119636Y0106398D01*
X0116102Y0102864D01*
G37*
G36*
X0118329Y0100637D02*
X0116773Y0102193D01*
X0120307Y0105727D01*
X0121863Y0104171D01*
X0118329Y0100637D01*
G37*
G36*
X0120556Y0098410D02*
X0119000Y0099966D01*
X0122534Y0103500D01*
X0124090Y0101944D01*
X0120556Y0098410D01*
G37*
D13*
X0156800Y0031800D03*
X0166800Y0031800D03*
X0166800Y0021800D03*
X0156800Y0021800D03*
X0176800Y0021800D03*
X0176800Y0031800D03*
D14*
X0179800Y0061800D02*
X0173800Y0061800D01*
X0173800Y0071800D02*
X0179800Y0071800D01*
X0179800Y0081800D02*
X0173800Y0081800D01*
X0173800Y0091800D02*
X0179800Y0091800D01*
X0179800Y0101800D02*
X0173800Y0101800D01*
X0173800Y0111800D02*
X0179800Y0111800D01*
X0179800Y0121800D02*
X0173800Y0121800D01*
X0173800Y0131800D02*
X0179800Y0131800D01*
X0136800Y0168800D02*
X0136800Y0174800D01*
X0126800Y0174800D02*
X0126800Y0168800D01*
X0116800Y0168800D02*
X0116800Y0174800D01*
X0106800Y0174800D02*
X0106800Y0168800D01*
X0096800Y0168800D02*
X0096800Y0174800D01*
X0086800Y0174800D02*
X0086800Y0168800D01*
X0076800Y0168800D02*
X0076800Y0174800D01*
X0066800Y0174800D02*
X0066800Y0168800D01*
X0029800Y0131800D02*
X0023800Y0131800D01*
X0023800Y0121800D02*
X0029800Y0121800D01*
X0029800Y0111800D02*
X0023800Y0111800D01*
X0023800Y0101800D02*
X0029800Y0101800D01*
X0029800Y0091800D02*
X0023800Y0091800D01*
X0023800Y0081800D02*
X0029800Y0081800D01*
X0029800Y0071800D02*
X0023800Y0071800D01*
X0023800Y0061800D02*
X0029800Y0061800D01*
X0066800Y0024800D02*
X0066800Y0018800D01*
X0076800Y0018800D02*
X0076800Y0024800D01*
X0086800Y0024800D02*
X0086800Y0018800D01*
X0096800Y0018800D02*
X0096800Y0024800D01*
X0106800Y0024800D02*
X0106800Y0018800D01*
X0116800Y0018800D02*
X0116800Y0024800D01*
X0126800Y0024800D02*
X0126800Y0018800D01*
X0136800Y0018800D02*
X0136800Y0024800D01*
D15*
X0030934Y0021800D03*
X0022666Y0021800D03*
D16*
G36*
X0064484Y0107745D02*
X0050343Y0093604D01*
X0045394Y0098553D01*
X0059535Y0112694D01*
X0064484Y0107745D01*
G37*
G36*
X0091354Y0134615D02*
X0077213Y0120474D01*
X0072264Y0125423D01*
X0086405Y0139564D01*
X0091354Y0134615D01*
G37*
D17*
X0030540Y0031800D03*
X0023060Y0031800D03*
D18*
X0146800Y0153060D03*
X0146800Y0160540D03*
D19*
X0161800Y0165757D02*
X0161800Y0173434D01*
X0161800Y0147843D02*
X0161800Y0140166D01*
D20*
X0014446Y0011332D02*
X0014804Y0010467D01*
X0015467Y0009804D01*
X0016332Y0009446D01*
X0016800Y0009400D01*
X0032580Y0009400D01*
X0032107Y0009596D01*
X0029461Y0012242D01*
X0028730Y0012973D01*
X0028334Y0013929D01*
X0028334Y0017638D01*
X0027826Y0017638D01*
X0026800Y0018664D01*
X0025774Y0017638D01*
X0019558Y0017638D01*
X0018504Y0018692D01*
X0018504Y0024908D01*
X0019558Y0025962D01*
X0020460Y0025962D01*
X0020460Y0027047D01*
X0019755Y0027047D01*
X0018701Y0028102D01*
X0018701Y0035498D01*
X0019755Y0036553D01*
X0026364Y0036553D01*
X0026800Y0036117D01*
X0026876Y0036193D01*
X0027286Y0036430D01*
X0027744Y0036553D01*
X0030061Y0036553D01*
X0030061Y0032280D01*
X0031020Y0032280D01*
X0031020Y0036553D01*
X0033336Y0036553D01*
X0033794Y0036430D01*
X0034204Y0036193D01*
X0034540Y0035858D01*
X0034777Y0035448D01*
X0034899Y0034990D01*
X0034899Y0032280D01*
X0031020Y0032280D01*
X0031020Y0031320D01*
X0031020Y0027047D01*
X0033336Y0027047D01*
X0033794Y0027170D01*
X0034204Y0027407D01*
X0034540Y0027742D01*
X0034777Y0028152D01*
X0034899Y0028610D01*
X0034899Y0031320D01*
X0031020Y0031320D01*
X0030061Y0031320D01*
X0030061Y0027047D01*
X0027744Y0027047D01*
X0027286Y0027170D01*
X0026876Y0027407D01*
X0026800Y0027483D01*
X0026364Y0027047D01*
X0025660Y0027047D01*
X0025660Y0025962D01*
X0025774Y0025962D01*
X0026800Y0024936D01*
X0027826Y0025962D01*
X0034042Y0025962D01*
X0035096Y0024908D01*
X0035096Y0018692D01*
X0034042Y0017638D01*
X0033534Y0017638D01*
X0033534Y0015523D01*
X0034657Y0014400D01*
X0064880Y0014400D01*
X0064081Y0014731D01*
X0062731Y0016081D01*
X0062000Y0017845D01*
X0062000Y0025755D01*
X0062731Y0027519D01*
X0064081Y0028869D01*
X0065845Y0029600D01*
X0067755Y0029600D01*
X0069519Y0028869D01*
X0070869Y0027519D01*
X0071600Y0025755D01*
X0071600Y0017845D01*
X0070869Y0016081D01*
X0069519Y0014731D01*
X0068720Y0014400D01*
X0073223Y0014400D01*
X0073817Y0014994D01*
X0072731Y0016081D01*
X0072000Y0017845D01*
X0072000Y0025755D01*
X0072731Y0027519D01*
X0074081Y0028869D01*
X0075845Y0029600D01*
X0077755Y0029600D01*
X0079519Y0028869D01*
X0080869Y0027519D01*
X0081600Y0025755D01*
X0081600Y0017845D01*
X0080869Y0016081D01*
X0079519Y0014731D01*
X0079400Y0014681D01*
X0079400Y0013783D01*
X0079004Y0012827D01*
X0076504Y0010327D01*
X0075773Y0009596D01*
X0075300Y0009400D01*
X0128628Y0009400D01*
X0128156Y0009596D01*
X0127424Y0010327D01*
X0124596Y0013156D01*
X0124200Y0014111D01*
X0124200Y0014681D01*
X0124081Y0014731D01*
X0122731Y0016081D01*
X0122000Y0017845D01*
X0122000Y0025755D01*
X0122731Y0027519D01*
X0124081Y0028869D01*
X0124200Y0028919D01*
X0124200Y0045133D01*
X0119006Y0050327D01*
X0096624Y0072709D01*
X0095909Y0072709D01*
X0094400Y0074219D01*
X0094400Y0072877D01*
X0118273Y0049004D01*
X0119004Y0048273D01*
X0119400Y0047317D01*
X0119400Y0028919D01*
X0119519Y0028869D01*
X0120869Y0027519D01*
X0121600Y0025755D01*
X0121600Y0017845D01*
X0120869Y0016081D01*
X0119519Y0014731D01*
X0117755Y0014000D01*
X0115845Y0014000D01*
X0114081Y0014731D01*
X0112731Y0016081D01*
X0112000Y0017845D01*
X0112000Y0025755D01*
X0112731Y0027519D01*
X0114081Y0028869D01*
X0114200Y0028919D01*
X0114200Y0045723D01*
X0089596Y0070327D01*
X0089400Y0070800D01*
X0089400Y0062877D01*
X0108273Y0044004D01*
X0109004Y0043273D01*
X0109400Y0042317D01*
X0109400Y0028919D01*
X0109519Y0028869D01*
X0110869Y0027519D01*
X0111600Y0025755D01*
X0111600Y0017845D01*
X0110869Y0016081D01*
X0109519Y0014731D01*
X0107755Y0014000D01*
X0105845Y0014000D01*
X0104081Y0014731D01*
X0102731Y0016081D01*
X0102000Y0017845D01*
X0102000Y0025755D01*
X0102731Y0027519D01*
X0104081Y0028869D01*
X0104200Y0028919D01*
X0104200Y0040723D01*
X0084596Y0060327D01*
X0084400Y0060800D01*
X0084400Y0052877D01*
X0098273Y0039004D01*
X0099004Y0038273D01*
X0099400Y0037317D01*
X0099400Y0028919D01*
X0099519Y0028869D01*
X0100869Y0027519D01*
X0101600Y0025755D01*
X0101600Y0017845D01*
X0100869Y0016081D01*
X0099519Y0014731D01*
X0097755Y0014000D01*
X0095845Y0014000D01*
X0094081Y0014731D01*
X0092731Y0016081D01*
X0092000Y0017845D01*
X0092000Y0025755D01*
X0092731Y0027519D01*
X0094081Y0028869D01*
X0094200Y0028919D01*
X0094200Y0035723D01*
X0079596Y0050327D01*
X0079400Y0050800D01*
X0079400Y0042877D01*
X0088273Y0034004D01*
X0089004Y0033273D01*
X0089400Y0032317D01*
X0089400Y0028919D01*
X0089519Y0028869D01*
X0090869Y0027519D01*
X0091600Y0025755D01*
X0091600Y0017845D01*
X0090869Y0016081D01*
X0089519Y0014731D01*
X0087755Y0014000D01*
X0085845Y0014000D01*
X0084081Y0014731D01*
X0082731Y0016081D01*
X0082000Y0017845D01*
X0082000Y0025755D01*
X0082731Y0027519D01*
X0084081Y0028869D01*
X0084200Y0028919D01*
X0084200Y0030723D01*
X0074596Y0040327D01*
X0074200Y0041283D01*
X0074200Y0074200D01*
X0051697Y0074200D01*
X0049004Y0071508D01*
X0037824Y0060327D01*
X0037092Y0059596D01*
X0036137Y0059200D01*
X0033919Y0059200D01*
X0033869Y0059081D01*
X0032519Y0057731D01*
X0030755Y0057000D01*
X0022845Y0057000D01*
X0021081Y0057731D01*
X0019731Y0059081D01*
X0019000Y0060845D01*
X0019000Y0062755D01*
X0019731Y0064519D01*
X0021081Y0065869D01*
X0022845Y0066600D01*
X0030755Y0066600D01*
X0032519Y0065869D01*
X0033869Y0064519D01*
X0033919Y0064400D01*
X0034543Y0064400D01*
X0045327Y0075184D01*
X0049147Y0079004D01*
X0049620Y0079200D01*
X0047877Y0079200D01*
X0043273Y0074596D01*
X0043273Y0074596D01*
X0039004Y0070327D01*
X0039004Y0070327D01*
X0038273Y0069596D01*
X0037317Y0069200D01*
X0033919Y0069200D01*
X0033869Y0069081D01*
X0032519Y0067731D01*
X0030755Y0067000D01*
X0022845Y0067000D01*
X0021081Y0067731D01*
X0019731Y0069081D01*
X0019000Y0070845D01*
X0019000Y0072755D01*
X0019731Y0074519D01*
X0021081Y0075869D01*
X0022845Y0076600D01*
X0030755Y0076600D01*
X0032519Y0075869D01*
X0033869Y0074519D01*
X0033919Y0074400D01*
X0035723Y0074400D01*
X0039596Y0078273D01*
X0039596Y0078273D01*
X0045327Y0084004D01*
X0045800Y0084200D01*
X0042877Y0084200D01*
X0039004Y0080327D01*
X0038273Y0079596D01*
X0037317Y0079200D01*
X0033919Y0079200D01*
X0033869Y0079081D01*
X0032519Y0077731D01*
X0030755Y0077000D01*
X0022845Y0077000D01*
X0021081Y0077731D01*
X0019731Y0079081D01*
X0019000Y0080845D01*
X0019000Y0082755D01*
X0019731Y0084519D01*
X0021081Y0085869D01*
X0022845Y0086600D01*
X0030755Y0086600D01*
X0032519Y0085869D01*
X0033869Y0084519D01*
X0033919Y0084400D01*
X0035723Y0084400D01*
X0040327Y0089004D01*
X0041283Y0089400D01*
X0075133Y0089400D01*
X0075327Y0089594D01*
X0075327Y0089594D01*
X0077709Y0091976D01*
X0077709Y0092400D01*
X0082109Y0096800D01*
X0077709Y0101200D01*
X0077709Y0101554D01*
X0070817Y0108255D01*
X0066284Y0108242D01*
X0066284Y0107000D01*
X0051088Y0091803D01*
X0049597Y0091803D01*
X0043593Y0097807D01*
X0043593Y0099299D01*
X0052339Y0108045D01*
X0052339Y0112448D01*
X0050538Y0114249D01*
X0050040Y0113751D01*
X0048548Y0113751D01*
X0043040Y0119259D01*
X0043040Y0120750D01*
X0047713Y0125424D01*
X0048608Y0125424D01*
X0048608Y0125809D01*
X0048730Y0126267D01*
X0048967Y0126678D01*
X0050605Y0128316D01*
X0053766Y0125155D01*
X0054444Y0125833D01*
X0051283Y0128994D01*
X0052921Y0130632D01*
X0053332Y0130869D01*
X0053790Y0130992D01*
X0053966Y0130992D01*
X0053966Y0131168D01*
X0054089Y0131626D01*
X0054326Y0132036D01*
X0055964Y0133674D01*
X0059125Y0130514D01*
X0059803Y0131192D01*
X0056642Y0134353D01*
X0058280Y0135991D01*
X0058691Y0136228D01*
X0059148Y0136350D01*
X0059534Y0136350D01*
X0059534Y0137245D01*
X0064208Y0141918D01*
X0065699Y0141918D01*
X0071207Y0136409D01*
X0071207Y0134918D01*
X0070709Y0134420D01*
X0072510Y0132619D01*
X0076913Y0132619D01*
X0085659Y0141365D01*
X0087150Y0141365D01*
X0093155Y0135361D01*
X0093155Y0133870D01*
X0077958Y0118673D01*
X0076956Y0118673D01*
X0076965Y0114262D01*
X0083094Y0108076D01*
X0084774Y0109755D01*
X0085696Y0110677D01*
X0088736Y0107637D01*
X0088736Y0107637D01*
X0085696Y0110677D01*
X0086641Y0111622D01*
X0089228Y0114209D01*
X0090150Y0115131D01*
X0093190Y0112091D01*
X0093191Y0112091D01*
X0096231Y0109050D01*
X0093191Y0112091D01*
X0093191Y0112091D01*
X0090150Y0115131D01*
X0090539Y0115520D01*
X0090327Y0115731D01*
X0089596Y0116463D01*
X0089200Y0117418D01*
X0089200Y0122317D01*
X0089596Y0123273D01*
X0094200Y0127877D01*
X0094200Y0150723D01*
X0085327Y0159596D01*
X0084596Y0160327D01*
X0084200Y0161283D01*
X0084200Y0164681D01*
X0084081Y0164731D01*
X0082731Y0166081D01*
X0082000Y0167845D01*
X0082000Y0175755D01*
X0082731Y0177519D01*
X0084081Y0178869D01*
X0085845Y0179600D01*
X0087755Y0179600D01*
X0089519Y0178869D01*
X0090869Y0177519D01*
X0091600Y0175755D01*
X0091600Y0167845D01*
X0090869Y0166081D01*
X0089519Y0164731D01*
X0089400Y0164681D01*
X0089400Y0162877D01*
X0099004Y0153273D01*
X0099200Y0152800D01*
X0099200Y0155723D01*
X0095327Y0159596D01*
X0094596Y0160327D01*
X0094200Y0161283D01*
X0094200Y0164681D01*
X0094081Y0164731D01*
X0092731Y0166081D01*
X0092000Y0167845D01*
X0092000Y0175755D01*
X0092731Y0177519D01*
X0094081Y0178869D01*
X0095845Y0179600D01*
X0097755Y0179600D01*
X0099519Y0178869D01*
X0100869Y0177519D01*
X0101600Y0175755D01*
X0101600Y0167845D01*
X0100869Y0166081D01*
X0099519Y0164731D01*
X0099400Y0164681D01*
X0099400Y0162877D01*
X0104004Y0158273D01*
X0104200Y0157800D01*
X0104200Y0164681D01*
X0104081Y0164731D01*
X0102731Y0166081D01*
X0102000Y0167845D01*
X0102000Y0175755D01*
X0102731Y0177519D01*
X0104081Y0178869D01*
X0105845Y0179600D01*
X0107755Y0179600D01*
X0109519Y0178869D01*
X0110869Y0177519D01*
X0111600Y0175755D01*
X0111600Y0167845D01*
X0110869Y0166081D01*
X0109519Y0164731D01*
X0109400Y0164681D01*
X0109400Y0119212D01*
X0114200Y0124012D01*
X0114200Y0164681D01*
X0114081Y0164731D01*
X0112731Y0166081D01*
X0112000Y0167845D01*
X0112000Y0175755D01*
X0112731Y0177519D01*
X0114081Y0178869D01*
X0115845Y0179600D01*
X0117755Y0179600D01*
X0119519Y0178869D01*
X0120869Y0177519D01*
X0121600Y0175755D01*
X0121600Y0167845D01*
X0120869Y0166081D01*
X0119519Y0164731D01*
X0119400Y0164681D01*
X0119400Y0124758D01*
X0124200Y0129558D01*
X0124200Y0164681D01*
X0124081Y0164731D01*
X0122731Y0166081D01*
X0122000Y0167845D01*
X0122000Y0175755D01*
X0122731Y0177519D01*
X0124081Y0178869D01*
X0125845Y0179600D01*
X0127755Y0179600D01*
X0129519Y0178869D01*
X0130869Y0177519D01*
X0131600Y0175755D01*
X0131600Y0167845D01*
X0130869Y0166081D01*
X0129519Y0164731D01*
X0129400Y0164681D01*
X0129400Y0130304D01*
X0144200Y0145104D01*
X0144200Y0148701D01*
X0143102Y0148701D01*
X0142047Y0149755D01*
X0142047Y0150460D01*
X0140023Y0150460D01*
X0139067Y0150856D01*
X0135327Y0154596D01*
X0135327Y0154596D01*
X0134596Y0155327D01*
X0134200Y0156283D01*
X0134200Y0164681D01*
X0134081Y0164731D01*
X0132731Y0166081D01*
X0132000Y0167845D01*
X0132000Y0175755D01*
X0132731Y0177519D01*
X0134081Y0178869D01*
X0135845Y0179600D01*
X0137755Y0179600D01*
X0139519Y0178869D01*
X0140869Y0177519D01*
X0141600Y0175755D01*
X0141600Y0167845D01*
X0140869Y0166081D01*
X0139519Y0164731D01*
X0139400Y0164681D01*
X0139400Y0157877D01*
X0141617Y0155660D01*
X0142047Y0155660D01*
X0142047Y0156364D01*
X0142483Y0156800D01*
X0142047Y0157236D01*
X0142047Y0163845D01*
X0143102Y0164899D01*
X0144189Y0164899D01*
X0144095Y0164993D01*
X0143609Y0166165D01*
X0143609Y0167435D01*
X0144095Y0168607D01*
X0144993Y0169505D01*
X0146165Y0169991D01*
X0147435Y0169991D01*
X0148607Y0169505D01*
X0149505Y0168607D01*
X0149991Y0167435D01*
X0149991Y0166165D01*
X0149505Y0164993D01*
X0149411Y0164899D01*
X0150498Y0164899D01*
X0151553Y0163845D01*
X0151553Y0157236D01*
X0151117Y0156800D01*
X0151553Y0156364D01*
X0151553Y0149755D01*
X0150498Y0148701D01*
X0149400Y0148701D01*
X0149400Y0146605D01*
X0156161Y0146605D01*
X0156161Y0148965D01*
X0157020Y0151037D01*
X0158606Y0152623D01*
X0160678Y0153482D01*
X0162922Y0153482D01*
X0164994Y0152623D01*
X0166580Y0151037D01*
X0167439Y0148965D01*
X0167439Y0146605D01*
X0181853Y0146605D01*
X0182808Y0146209D01*
X0188273Y0140744D01*
X0189004Y0140013D01*
X0189200Y0139540D01*
X0189200Y0181800D01*
X0189154Y0182268D01*
X0188796Y0183133D01*
X0188133Y0183796D01*
X0187268Y0184154D01*
X0186800Y0184200D01*
X0016800Y0184200D01*
X0016332Y0184154D01*
X0015467Y0183796D01*
X0014804Y0183133D01*
X0014446Y0182268D01*
X0014400Y0181800D01*
X0014400Y0011800D01*
X0014446Y0011332D01*
X0014420Y0011596D02*
X0030107Y0011596D01*
X0028638Y0013194D02*
X0014400Y0013194D01*
X0014400Y0014793D02*
X0028334Y0014793D01*
X0028334Y0016391D02*
X0014400Y0016391D01*
X0014400Y0017990D02*
X0019207Y0017990D01*
X0018504Y0019588D02*
X0014400Y0019588D01*
X0014400Y0021187D02*
X0018504Y0021187D01*
X0018504Y0022785D02*
X0014400Y0022785D01*
X0014400Y0024384D02*
X0018504Y0024384D01*
X0020460Y0025982D02*
X0014400Y0025982D01*
X0014400Y0027581D02*
X0019222Y0027581D01*
X0018701Y0029179D02*
X0014400Y0029179D01*
X0014400Y0030778D02*
X0018701Y0030778D01*
X0018701Y0032376D02*
X0014400Y0032376D01*
X0014400Y0033975D02*
X0018701Y0033975D01*
X0018776Y0035573D02*
X0014400Y0035573D01*
X0014400Y0037172D02*
X0077751Y0037172D01*
X0076153Y0038770D02*
X0014400Y0038770D01*
X0014400Y0040369D02*
X0074579Y0040369D01*
X0074200Y0041967D02*
X0014400Y0041967D01*
X0014400Y0043566D02*
X0074200Y0043566D01*
X0074200Y0045164D02*
X0014400Y0045164D01*
X0014400Y0046763D02*
X0074200Y0046763D01*
X0074200Y0048361D02*
X0014400Y0048361D01*
X0014400Y0049960D02*
X0074200Y0049960D01*
X0074200Y0051558D02*
X0014400Y0051558D01*
X0014400Y0053157D02*
X0074200Y0053157D01*
X0074200Y0054755D02*
X0014400Y0054755D01*
X0014400Y0056354D02*
X0074200Y0056354D01*
X0074200Y0057952D02*
X0032741Y0057952D01*
X0036984Y0059551D02*
X0074200Y0059551D01*
X0074200Y0061149D02*
X0038646Y0061149D01*
X0040245Y0062748D02*
X0074200Y0062748D01*
X0074200Y0064346D02*
X0041843Y0064346D01*
X0043442Y0065945D02*
X0074200Y0065945D01*
X0074200Y0067543D02*
X0045040Y0067543D01*
X0046639Y0069142D02*
X0074200Y0069142D01*
X0074200Y0070740D02*
X0048237Y0070740D01*
X0049836Y0072339D02*
X0074200Y0072339D01*
X0074200Y0073937D02*
X0051434Y0073937D01*
X0050620Y0076800D02*
X0046800Y0072980D01*
X0035620Y0061800D01*
X0026800Y0061800D01*
X0021264Y0065945D02*
X0014400Y0065945D01*
X0014400Y0067543D02*
X0021533Y0067543D01*
X0019706Y0069142D02*
X0014400Y0069142D01*
X0014400Y0070740D02*
X0019043Y0070740D01*
X0019000Y0072339D02*
X0014400Y0072339D01*
X0014400Y0073937D02*
X0019490Y0073937D01*
X0020748Y0075536D02*
X0014400Y0075536D01*
X0014400Y0077134D02*
X0022520Y0077134D01*
X0020079Y0078733D02*
X0014400Y0078733D01*
X0014400Y0080332D02*
X0019213Y0080332D01*
X0019000Y0081930D02*
X0014400Y0081930D01*
X0014400Y0083529D02*
X0019321Y0083529D01*
X0020339Y0085127D02*
X0014400Y0085127D01*
X0014400Y0086726D02*
X0038049Y0086726D01*
X0039647Y0088324D02*
X0033112Y0088324D01*
X0032519Y0087731D02*
X0030755Y0087000D01*
X0022845Y0087000D01*
X0021081Y0087731D01*
X0019731Y0089081D01*
X0019000Y0090845D01*
X0019000Y0092755D01*
X0019731Y0094519D01*
X0021081Y0095869D01*
X0022845Y0096600D01*
X0030755Y0096600D01*
X0032519Y0095869D01*
X0033869Y0094519D01*
X0034600Y0092755D01*
X0034600Y0090845D01*
X0033869Y0089081D01*
X0032519Y0087731D01*
X0034218Y0089923D02*
X0075656Y0089923D01*
X0077254Y0091521D02*
X0034600Y0091521D01*
X0034449Y0093120D02*
X0048280Y0093120D01*
X0046682Y0094718D02*
X0033670Y0094718D01*
X0031439Y0096317D02*
X0045083Y0096317D01*
X0043593Y0097915D02*
X0032703Y0097915D01*
X0032519Y0097731D02*
X0033869Y0099081D01*
X0034600Y0100845D01*
X0034600Y0102755D01*
X0033869Y0104519D01*
X0032519Y0105869D01*
X0030755Y0106600D01*
X0022845Y0106600D01*
X0021081Y0105869D01*
X0019731Y0104519D01*
X0019000Y0102755D01*
X0019000Y0100845D01*
X0019731Y0099081D01*
X0021081Y0097731D01*
X0022845Y0097000D01*
X0030755Y0097000D01*
X0032519Y0097731D01*
X0034048Y0099514D02*
X0043808Y0099514D01*
X0045406Y0101112D02*
X0034600Y0101112D01*
X0034600Y0102711D02*
X0047005Y0102711D01*
X0048603Y0104309D02*
X0033956Y0104309D01*
X0032426Y0105908D02*
X0050202Y0105908D01*
X0051800Y0107506D02*
X0031977Y0107506D01*
X0032519Y0107731D02*
X0033869Y0109081D01*
X0034600Y0110845D01*
X0034600Y0112755D01*
X0033869Y0114519D01*
X0032519Y0115869D01*
X0030755Y0116600D01*
X0022845Y0116600D01*
X0021081Y0115869D01*
X0019731Y0114519D01*
X0019000Y0112755D01*
X0019000Y0110845D01*
X0019731Y0109081D01*
X0021081Y0107731D01*
X0022845Y0107000D01*
X0030755Y0107000D01*
X0032519Y0107731D01*
X0033879Y0109105D02*
X0052339Y0109105D01*
X0052339Y0110703D02*
X0034541Y0110703D01*
X0034600Y0112302D02*
X0052339Y0112302D01*
X0050886Y0113900D02*
X0050189Y0113900D01*
X0048399Y0113900D02*
X0034126Y0113900D01*
X0032889Y0115499D02*
X0046800Y0115499D01*
X0045202Y0117097D02*
X0030990Y0117097D01*
X0030755Y0117000D02*
X0032519Y0117731D01*
X0033869Y0119081D01*
X0034600Y0120845D01*
X0034600Y0122755D01*
X0033869Y0124519D01*
X0032519Y0125869D01*
X0030755Y0126600D01*
X0022845Y0126600D01*
X0021081Y0125869D01*
X0019731Y0124519D01*
X0019000Y0122755D01*
X0019000Y0120845D01*
X0019731Y0119081D01*
X0021081Y0117731D01*
X0022845Y0117000D01*
X0030755Y0117000D01*
X0033484Y0118696D02*
X0043603Y0118696D01*
X0043040Y0120294D02*
X0034372Y0120294D01*
X0034600Y0121893D02*
X0044182Y0121893D01*
X0045781Y0123491D02*
X0034295Y0123491D01*
X0033298Y0125090D02*
X0047379Y0125090D01*
X0048978Y0126688D02*
X0014400Y0126688D01*
X0014400Y0125090D02*
X0020302Y0125090D01*
X0019305Y0123491D02*
X0014400Y0123491D01*
X0014400Y0121893D02*
X0019000Y0121893D01*
X0019228Y0120294D02*
X0014400Y0120294D01*
X0014400Y0118696D02*
X0020116Y0118696D01*
X0022610Y0117097D02*
X0014400Y0117097D01*
X0014400Y0115499D02*
X0020711Y0115499D01*
X0019474Y0113900D02*
X0014400Y0113900D01*
X0014400Y0112302D02*
X0019000Y0112302D01*
X0019059Y0110703D02*
X0014400Y0110703D01*
X0014400Y0109105D02*
X0019721Y0109105D01*
X0021623Y0107506D02*
X0014400Y0107506D01*
X0014400Y0105908D02*
X0021174Y0105908D01*
X0019644Y0104309D02*
X0014400Y0104309D01*
X0014400Y0102711D02*
X0019000Y0102711D01*
X0019000Y0101112D02*
X0014400Y0101112D01*
X0014400Y0099514D02*
X0019552Y0099514D01*
X0020897Y0097915D02*
X0014400Y0097915D01*
X0014400Y0096317D02*
X0022161Y0096317D01*
X0019930Y0094718D02*
X0014400Y0094718D01*
X0014400Y0093120D02*
X0019151Y0093120D01*
X0019000Y0091521D02*
X0014400Y0091521D01*
X0014400Y0089923D02*
X0019382Y0089923D01*
X0020488Y0088324D02*
X0014400Y0088324D01*
X0026800Y0081800D02*
X0036800Y0081800D01*
X0041800Y0086800D01*
X0076210Y0086800D01*
X0076800Y0087390D01*
X0082055Y0092645D01*
X0080027Y0094718D02*
X0054003Y0094718D01*
X0055601Y0096317D02*
X0081626Y0096317D01*
X0080994Y0097915D02*
X0057200Y0097915D01*
X0058798Y0099514D02*
X0079395Y0099514D01*
X0077797Y0101112D02*
X0060397Y0101112D01*
X0061995Y0102711D02*
X0076519Y0102711D01*
X0074875Y0104309D02*
X0063594Y0104309D01*
X0065192Y0105908D02*
X0073231Y0105908D01*
X0071587Y0107506D02*
X0066284Y0107506D01*
X0062755Y0110833D02*
X0054939Y0103149D01*
X0054939Y0113525D01*
X0048877Y0119587D01*
X0054215Y0117926D02*
X0054713Y0118424D01*
X0054713Y0119318D01*
X0055099Y0119318D01*
X0055557Y0119441D01*
X0055967Y0119678D01*
X0057605Y0121316D01*
X0054444Y0124477D01*
X0055122Y0125155D01*
X0058283Y0121994D01*
X0059921Y0123632D01*
X0060158Y0124043D01*
X0060281Y0124500D01*
X0060281Y0124677D01*
X0060457Y0124677D01*
X0060915Y0124800D01*
X0061326Y0125037D01*
X0062964Y0126675D01*
X0059803Y0129835D01*
X0060481Y0130514D01*
X0063642Y0127353D01*
X0065280Y0128991D01*
X0065517Y0129401D01*
X0065640Y0129859D01*
X0065640Y0130245D01*
X0066534Y0130245D01*
X0067032Y0130743D01*
X0069960Y0127815D01*
X0070916Y0127419D01*
X0071713Y0127419D01*
X0070463Y0126169D01*
X0070463Y0124678D01*
X0071879Y0123261D01*
X0071747Y0122940D01*
X0071748Y0122931D01*
X0071744Y0122923D01*
X0071749Y0122414D01*
X0071767Y0113457D01*
X0062762Y0113433D01*
X0062260Y0113437D01*
X0062246Y0113431D01*
X0062231Y0113431D01*
X0061766Y0113237D01*
X0061604Y0113172D01*
X0060280Y0114495D01*
X0058789Y0114495D01*
X0057539Y0113245D01*
X0057539Y0114042D01*
X0057143Y0114998D01*
X0054215Y0117926D01*
X0054713Y0118696D02*
X0071756Y0118696D01*
X0071753Y0120294D02*
X0056583Y0120294D01*
X0057028Y0121893D02*
X0071750Y0121893D01*
X0071649Y0123491D02*
X0059780Y0123491D01*
X0061379Y0125090D02*
X0070463Y0125090D01*
X0070982Y0126688D02*
X0062950Y0126688D01*
X0062708Y0128287D02*
X0061351Y0128287D01*
X0061109Y0129885D02*
X0059853Y0129885D01*
X0059803Y0129835D02*
X0057060Y0127092D01*
X0055122Y0125155D01*
X0054444Y0125833D01*
X0056381Y0127770D01*
X0059125Y0130514D01*
X0059803Y0129835D01*
X0059753Y0129885D02*
X0058497Y0129885D01*
X0058254Y0128287D02*
X0056898Y0128287D01*
X0056656Y0126688D02*
X0055300Y0126688D01*
X0055188Y0125090D02*
X0055057Y0125090D01*
X0055430Y0123491D02*
X0056786Y0123491D01*
X0053589Y0126688D02*
X0052233Y0126688D01*
X0051991Y0128287D02*
X0050634Y0128287D01*
X0050576Y0128287D02*
X0033075Y0128287D01*
X0032927Y0128139D02*
X0033461Y0128673D01*
X0033905Y0129284D01*
X0034248Y0129957D01*
X0034482Y0130676D01*
X0034600Y0131422D01*
X0034600Y0131600D01*
X0027000Y0131600D01*
X0027000Y0132000D01*
X0026600Y0132000D01*
X0026600Y0136600D01*
X0023422Y0136600D01*
X0022676Y0136482D01*
X0021957Y0136248D01*
X0021284Y0135905D01*
X0020673Y0135461D01*
X0020139Y0134927D01*
X0019695Y0134316D01*
X0019352Y0133643D01*
X0019118Y0132924D01*
X0019000Y0132178D01*
X0019000Y0132000D01*
X0026600Y0132000D01*
X0026600Y0131600D01*
X0027000Y0131600D01*
X0027000Y0127000D01*
X0030178Y0127000D01*
X0030924Y0127118D01*
X0031643Y0127352D01*
X0032316Y0127695D01*
X0032927Y0128139D01*
X0034212Y0129885D02*
X0052175Y0129885D01*
X0054051Y0131484D02*
X0034600Y0131484D01*
X0034600Y0132000D02*
X0034600Y0132178D01*
X0034482Y0132924D01*
X0034248Y0133643D01*
X0033905Y0134316D01*
X0033461Y0134927D01*
X0032927Y0135461D01*
X0032316Y0135905D01*
X0031643Y0136248D01*
X0030924Y0136482D01*
X0030178Y0136600D01*
X0027000Y0136600D01*
X0027000Y0132000D01*
X0034600Y0132000D01*
X0034430Y0133082D02*
X0055372Y0133082D01*
X0056556Y0133082D02*
X0057912Y0133082D01*
X0058154Y0131484D02*
X0059511Y0131484D01*
X0056970Y0134681D02*
X0033640Y0134681D01*
X0031547Y0136279D02*
X0058884Y0136279D01*
X0060167Y0137878D02*
X0014400Y0137878D01*
X0014400Y0139476D02*
X0061766Y0139476D01*
X0063364Y0141075D02*
X0014400Y0141075D01*
X0014400Y0142673D02*
X0094200Y0142673D01*
X0094200Y0141075D02*
X0087441Y0141075D01*
X0085369Y0141075D02*
X0066542Y0141075D01*
X0068140Y0139476D02*
X0083770Y0139476D01*
X0082172Y0137878D02*
X0069739Y0137878D01*
X0071207Y0136279D02*
X0080573Y0136279D01*
X0078975Y0134681D02*
X0070970Y0134681D01*
X0072047Y0133082D02*
X0077376Y0133082D01*
X0081809Y0130019D02*
X0071433Y0130019D01*
X0065371Y0136081D01*
X0065640Y0129885D02*
X0067890Y0129885D01*
X0069488Y0128287D02*
X0064576Y0128287D01*
X0074349Y0122428D02*
X0081809Y0130019D01*
X0085973Y0126688D02*
X0093011Y0126688D01*
X0094200Y0128287D02*
X0087572Y0128287D01*
X0089170Y0129885D02*
X0094200Y0129885D01*
X0094200Y0131484D02*
X0090769Y0131484D01*
X0092367Y0133082D02*
X0094200Y0133082D01*
X0094200Y0134681D02*
X0093155Y0134681D01*
X0092236Y0136279D02*
X0094200Y0136279D01*
X0094200Y0137878D02*
X0090638Y0137878D01*
X0089039Y0139476D02*
X0094200Y0139476D01*
X0094200Y0144272D02*
X0014400Y0144272D01*
X0014400Y0145870D02*
X0094200Y0145870D01*
X0094200Y0147469D02*
X0014400Y0147469D01*
X0014400Y0149068D02*
X0094200Y0149068D01*
X0094200Y0150666D02*
X0014400Y0150666D01*
X0014400Y0152265D02*
X0092659Y0152265D01*
X0091060Y0153863D02*
X0014400Y0153863D01*
X0014400Y0155462D02*
X0089461Y0155462D01*
X0087863Y0157060D02*
X0014400Y0157060D01*
X0014400Y0158659D02*
X0086264Y0158659D01*
X0084666Y0160257D02*
X0014400Y0160257D01*
X0014400Y0161856D02*
X0084200Y0161856D01*
X0084200Y0163454D02*
X0014400Y0163454D01*
X0014400Y0165053D02*
X0063759Y0165053D01*
X0064081Y0164731D02*
X0065845Y0164000D01*
X0067755Y0164000D01*
X0069519Y0164731D01*
X0070869Y0166081D01*
X0071600Y0167845D01*
X0071600Y0175755D01*
X0070869Y0177519D01*
X0069519Y0178869D01*
X0067755Y0179600D01*
X0065845Y0179600D01*
X0064081Y0178869D01*
X0062731Y0177519D01*
X0062000Y0175755D01*
X0062000Y0167845D01*
X0062731Y0166081D01*
X0064081Y0164731D01*
X0062495Y0166651D02*
X0014400Y0166651D01*
X0014400Y0168250D02*
X0062000Y0168250D01*
X0062000Y0169848D02*
X0014400Y0169848D01*
X0014400Y0171447D02*
X0062000Y0171447D01*
X0062000Y0173045D02*
X0014400Y0173045D01*
X0014400Y0174644D02*
X0062000Y0174644D01*
X0062202Y0176242D02*
X0014400Y0176242D01*
X0014400Y0177841D02*
X0063052Y0177841D01*
X0065457Y0179439D02*
X0014400Y0179439D01*
X0014400Y0181038D02*
X0189200Y0181038D01*
X0189200Y0179439D02*
X0138143Y0179439D01*
X0135457Y0179439D02*
X0128143Y0179439D01*
X0125457Y0179439D02*
X0118143Y0179439D01*
X0120547Y0177841D02*
X0123052Y0177841D01*
X0122202Y0176242D02*
X0121398Y0176242D01*
X0121600Y0174644D02*
X0122000Y0174644D01*
X0122000Y0173045D02*
X0121600Y0173045D01*
X0121600Y0171447D02*
X0122000Y0171447D01*
X0122000Y0169848D02*
X0121600Y0169848D01*
X0121600Y0168250D02*
X0122000Y0168250D01*
X0122495Y0166651D02*
X0121105Y0166651D01*
X0119841Y0165053D02*
X0123759Y0165053D01*
X0124200Y0163454D02*
X0119400Y0163454D01*
X0119400Y0161856D02*
X0124200Y0161856D01*
X0124200Y0160257D02*
X0119400Y0160257D01*
X0119400Y0158659D02*
X0124200Y0158659D01*
X0124200Y0157060D02*
X0119400Y0157060D01*
X0119400Y0155462D02*
X0124200Y0155462D01*
X0124200Y0153863D02*
X0119400Y0153863D01*
X0119400Y0152265D02*
X0124200Y0152265D01*
X0124200Y0150666D02*
X0119400Y0150666D01*
X0119400Y0149068D02*
X0124200Y0149068D01*
X0124200Y0147469D02*
X0119400Y0147469D01*
X0119400Y0145870D02*
X0124200Y0145870D01*
X0124200Y0144272D02*
X0119400Y0144272D01*
X0119400Y0142673D02*
X0124200Y0142673D01*
X0124200Y0141075D02*
X0119400Y0141075D01*
X0119400Y0139476D02*
X0124200Y0139476D01*
X0124200Y0137878D02*
X0119400Y0137878D01*
X0119400Y0136279D02*
X0124200Y0136279D01*
X0124200Y0134681D02*
X0119400Y0134681D01*
X0119400Y0133082D02*
X0124200Y0133082D01*
X0124200Y0131484D02*
X0119400Y0131484D01*
X0119400Y0129885D02*
X0124200Y0129885D01*
X0122929Y0128287D02*
X0119400Y0128287D01*
X0119400Y0126688D02*
X0121330Y0126688D01*
X0119732Y0125090D02*
X0119400Y0125090D01*
X0116800Y0122936D02*
X0116800Y0171800D01*
X0112000Y0171447D02*
X0111600Y0171447D01*
X0111600Y0173045D02*
X0112000Y0173045D01*
X0112000Y0174644D02*
X0111600Y0174644D01*
X0111398Y0176242D02*
X0112202Y0176242D01*
X0113052Y0177841D02*
X0110547Y0177841D01*
X0108143Y0179439D02*
X0115457Y0179439D01*
X0106800Y0171800D02*
X0106800Y0117390D01*
X0105955Y0116545D01*
X0108182Y0114318D02*
X0116800Y0122936D01*
X0114200Y0125090D02*
X0109400Y0125090D01*
X0109400Y0126688D02*
X0114200Y0126688D01*
X0114200Y0128287D02*
X0109400Y0128287D01*
X0109400Y0129885D02*
X0114200Y0129885D01*
X0114200Y0131484D02*
X0109400Y0131484D01*
X0109400Y0133082D02*
X0114200Y0133082D01*
X0114200Y0134681D02*
X0109400Y0134681D01*
X0109400Y0136279D02*
X0114200Y0136279D01*
X0114200Y0137878D02*
X0109400Y0137878D01*
X0109400Y0139476D02*
X0114200Y0139476D01*
X0114200Y0141075D02*
X0109400Y0141075D01*
X0109400Y0142673D02*
X0114200Y0142673D01*
X0114200Y0144272D02*
X0109400Y0144272D01*
X0109400Y0145870D02*
X0114200Y0145870D01*
X0114200Y0147469D02*
X0109400Y0147469D01*
X0109400Y0149068D02*
X0114200Y0149068D01*
X0114200Y0150666D02*
X0109400Y0150666D01*
X0109400Y0152265D02*
X0114200Y0152265D01*
X0114200Y0153863D02*
X0109400Y0153863D01*
X0109400Y0155462D02*
X0114200Y0155462D01*
X0114200Y0157060D02*
X0109400Y0157060D01*
X0109400Y0158659D02*
X0114200Y0158659D01*
X0114200Y0160257D02*
X0109400Y0160257D01*
X0109400Y0161856D02*
X0114200Y0161856D01*
X0114200Y0163454D02*
X0109400Y0163454D01*
X0109841Y0165053D02*
X0113759Y0165053D01*
X0112495Y0166651D02*
X0111105Y0166651D01*
X0111600Y0168250D02*
X0112000Y0168250D01*
X0112000Y0169848D02*
X0111600Y0169848D01*
X0104200Y0163454D02*
X0099400Y0163454D01*
X0099841Y0165053D02*
X0103759Y0165053D01*
X0102495Y0166651D02*
X0101105Y0166651D01*
X0101600Y0168250D02*
X0102000Y0168250D01*
X0102000Y0169848D02*
X0101600Y0169848D01*
X0101600Y0171447D02*
X0102000Y0171447D01*
X0102000Y0173045D02*
X0101600Y0173045D01*
X0101600Y0174644D02*
X0102000Y0174644D01*
X0102202Y0176242D02*
X0101398Y0176242D01*
X0100547Y0177841D02*
X0103052Y0177841D01*
X0105457Y0179439D02*
X0098143Y0179439D01*
X0095457Y0179439D02*
X0088143Y0179439D01*
X0090547Y0177841D02*
X0093052Y0177841D01*
X0092202Y0176242D02*
X0091398Y0176242D01*
X0091600Y0174644D02*
X0092000Y0174644D01*
X0092000Y0173045D02*
X0091600Y0173045D01*
X0091600Y0171447D02*
X0092000Y0171447D01*
X0092000Y0169848D02*
X0091600Y0169848D01*
X0091600Y0168250D02*
X0092000Y0168250D01*
X0092495Y0166651D02*
X0091105Y0166651D01*
X0089841Y0165053D02*
X0093759Y0165053D01*
X0094200Y0163454D02*
X0089400Y0163454D01*
X0090421Y0161856D02*
X0094200Y0161856D01*
X0094666Y0160257D02*
X0092020Y0160257D01*
X0093618Y0158659D02*
X0096264Y0158659D01*
X0095217Y0157060D02*
X0097863Y0157060D01*
X0096815Y0155462D02*
X0099200Y0155462D01*
X0099200Y0153863D02*
X0098414Y0153863D01*
X0096800Y0151800D02*
X0086800Y0161800D01*
X0086800Y0171800D01*
X0082000Y0171447D02*
X0081600Y0171447D01*
X0081600Y0173045D02*
X0082000Y0173045D01*
X0082000Y0174644D02*
X0081600Y0174644D01*
X0081600Y0175755D02*
X0080869Y0177519D01*
X0079519Y0178869D01*
X0077755Y0179600D01*
X0075845Y0179600D01*
X0074081Y0178869D01*
X0072731Y0177519D01*
X0072000Y0175755D01*
X0072000Y0167845D01*
X0072731Y0166081D01*
X0074081Y0164731D01*
X0075845Y0164000D01*
X0077755Y0164000D01*
X0079519Y0164731D01*
X0080869Y0166081D01*
X0081600Y0167845D01*
X0081600Y0175755D01*
X0081398Y0176242D02*
X0082202Y0176242D01*
X0083052Y0177841D02*
X0080547Y0177841D01*
X0078143Y0179439D02*
X0085457Y0179439D01*
X0075457Y0179439D02*
X0068143Y0179439D01*
X0070547Y0177841D02*
X0073052Y0177841D01*
X0072202Y0176242D02*
X0071398Y0176242D01*
X0071600Y0174644D02*
X0072000Y0174644D01*
X0072000Y0173045D02*
X0071600Y0173045D01*
X0071600Y0171447D02*
X0072000Y0171447D01*
X0072000Y0169848D02*
X0071600Y0169848D01*
X0071600Y0168250D02*
X0072000Y0168250D01*
X0072495Y0166651D02*
X0071105Y0166651D01*
X0069841Y0165053D02*
X0073759Y0165053D01*
X0079841Y0165053D02*
X0083759Y0165053D01*
X0082495Y0166651D02*
X0081105Y0166651D01*
X0081600Y0168250D02*
X0082000Y0168250D01*
X0082000Y0169848D02*
X0081600Y0169848D01*
X0096800Y0171800D02*
X0096800Y0161800D01*
X0101800Y0156800D01*
X0101800Y0121800D01*
X0097645Y0117645D01*
X0097645Y0116545D01*
X0095418Y0114318D02*
X0091800Y0117936D01*
X0091800Y0121800D01*
X0096800Y0126800D01*
X0096800Y0151800D01*
X0103618Y0158659D02*
X0104200Y0158659D01*
X0104200Y0160257D02*
X0102020Y0160257D01*
X0100421Y0161856D02*
X0104200Y0161856D01*
X0126800Y0171800D02*
X0126800Y0128481D01*
X0110409Y0112091D01*
X0112637Y0109864D02*
X0146778Y0144005D01*
X0146800Y0144005D01*
X0161800Y0144005D01*
X0181336Y0144005D01*
X0186800Y0138540D01*
X0186800Y0026800D01*
X0181800Y0021800D01*
X0176800Y0021800D01*
X0179778Y0017990D02*
X0189200Y0017990D01*
X0189200Y0019588D02*
X0183254Y0019588D01*
X0183273Y0019596D02*
X0188273Y0024596D01*
X0189004Y0025327D01*
X0189200Y0025800D01*
X0189200Y0011800D01*
X0189154Y0011332D01*
X0188796Y0010467D01*
X0188133Y0009804D01*
X0187268Y0009446D01*
X0186800Y0009400D01*
X0154638Y0009400D01*
X0155111Y0009596D01*
X0158273Y0012758D01*
X0159004Y0013489D01*
X0159400Y0014445D01*
X0159400Y0017612D01*
X0161600Y0019812D01*
X0161600Y0023323D01*
X0162000Y0022923D01*
X0162000Y0019812D01*
X0164812Y0017000D01*
X0168788Y0017000D01*
X0171600Y0019812D01*
X0171600Y0023788D01*
X0168788Y0026600D01*
X0165677Y0026600D01*
X0165277Y0027000D01*
X0168788Y0027000D01*
X0171600Y0029812D01*
X0171600Y0033788D01*
X0168788Y0036600D01*
X0164812Y0036600D01*
X0162000Y0033788D01*
X0162000Y0029812D01*
X0162479Y0029333D01*
X0162317Y0029400D01*
X0161188Y0029400D01*
X0161600Y0029812D01*
X0161600Y0033788D01*
X0158788Y0036600D01*
X0154812Y0036600D01*
X0152000Y0033788D01*
X0152000Y0029812D01*
X0152412Y0029400D01*
X0146283Y0029400D01*
X0145327Y0029004D01*
X0141600Y0025277D01*
X0141600Y0025755D01*
X0140869Y0027519D01*
X0139519Y0028869D01*
X0139400Y0028919D01*
X0139400Y0042317D01*
X0139004Y0043273D01*
X0138273Y0044004D01*
X0133273Y0049004D01*
X0114400Y0067877D01*
X0114400Y0071727D01*
X0114004Y0072683D01*
X0113273Y0073414D01*
X0110834Y0075853D01*
X0111612Y0076630D01*
X0117914Y0070327D01*
X0118646Y0069596D01*
X0119601Y0069200D01*
X0155723Y0069200D01*
X0164596Y0060327D01*
X0165327Y0059596D01*
X0166283Y0059200D01*
X0169681Y0059200D01*
X0169731Y0059081D01*
X0171081Y0057731D01*
X0172845Y0057000D01*
X0180755Y0057000D01*
X0182519Y0057731D01*
X0183869Y0059081D01*
X0184200Y0059880D01*
X0184200Y0027877D01*
X0180856Y0024533D01*
X0178788Y0026600D01*
X0174812Y0026600D01*
X0172000Y0023788D01*
X0172000Y0019812D01*
X0174812Y0017000D01*
X0178788Y0017000D01*
X0180988Y0019200D01*
X0182317Y0019200D01*
X0183273Y0019596D01*
X0184864Y0021187D02*
X0189200Y0021187D01*
X0189200Y0022785D02*
X0186462Y0022785D01*
X0188061Y0024384D02*
X0189200Y0024384D01*
X0183904Y0027581D02*
X0179369Y0027581D01*
X0178788Y0027000D02*
X0181600Y0029812D01*
X0181600Y0031600D01*
X0177000Y0031600D01*
X0177000Y0032000D01*
X0181600Y0032000D01*
X0181600Y0033788D01*
X0178788Y0036600D01*
X0177000Y0036600D01*
X0177000Y0032000D01*
X0176600Y0032000D01*
X0176600Y0036600D01*
X0174812Y0036600D01*
X0172000Y0033788D01*
X0172000Y0032000D01*
X0176600Y0032000D01*
X0176600Y0031600D01*
X0177000Y0031600D01*
X0177000Y0027000D01*
X0178788Y0027000D01*
X0179406Y0025982D02*
X0182305Y0025982D01*
X0180967Y0029179D02*
X0184200Y0029179D01*
X0184200Y0030778D02*
X0181600Y0030778D01*
X0181600Y0032376D02*
X0184200Y0032376D01*
X0184200Y0033975D02*
X0181414Y0033975D01*
X0179815Y0035573D02*
X0184200Y0035573D01*
X0184200Y0037172D02*
X0139400Y0037172D01*
X0139400Y0038770D02*
X0184200Y0038770D01*
X0184200Y0040369D02*
X0139400Y0040369D01*
X0139400Y0041967D02*
X0184200Y0041967D01*
X0184200Y0043566D02*
X0138711Y0043566D01*
X0137113Y0045164D02*
X0184200Y0045164D01*
X0184200Y0046763D02*
X0135514Y0046763D01*
X0133916Y0048361D02*
X0184200Y0048361D01*
X0184200Y0049960D02*
X0132317Y0049960D01*
X0130719Y0051558D02*
X0184200Y0051558D01*
X0184200Y0053157D02*
X0129120Y0053157D01*
X0127522Y0054755D02*
X0184200Y0054755D01*
X0184200Y0056354D02*
X0125923Y0056354D01*
X0124325Y0057952D02*
X0170859Y0057952D01*
X0166800Y0061800D02*
X0176800Y0061800D01*
X0182741Y0057952D02*
X0184200Y0057952D01*
X0184200Y0059551D02*
X0184064Y0059551D01*
X0176800Y0071800D02*
X0166800Y0071800D01*
X0161800Y0076800D01*
X0128481Y0076800D01*
X0121800Y0083481D01*
X0117091Y0088191D01*
X0119318Y0090418D02*
X0126800Y0082936D01*
X0127936Y0081800D01*
X0176800Y0081800D01*
X0176800Y0091800D02*
X0122390Y0091800D01*
X0121545Y0092645D01*
X0119136Y0096317D02*
X0084464Y0096317D01*
X0083981Y0096800D02*
X0086401Y0099220D01*
X0087540Y0100360D01*
X0087889Y0099517D01*
X0088787Y0098620D01*
X0089960Y0098134D01*
X0091229Y0098134D01*
X0092401Y0098620D01*
X0093299Y0099517D01*
X0093785Y0100690D01*
X0093785Y0101959D01*
X0093353Y0103001D01*
X0094460Y0102542D01*
X0095729Y0102542D01*
X0096901Y0103028D01*
X0097799Y0103926D01*
X0098285Y0105098D01*
X0098285Y0106368D01*
X0097799Y0107540D01*
X0096901Y0108438D01*
X0095994Y0108813D01*
X0096231Y0109050D01*
X0097176Y0109996D01*
X0099763Y0112582D01*
X0101800Y0114619D01*
X0104220Y0112199D01*
X0106447Y0109972D01*
X0108674Y0107745D01*
X0110901Y0105518D01*
X0113128Y0103291D01*
X0115355Y0101064D01*
X0117582Y0098837D01*
X0119619Y0096800D01*
X0117199Y0094380D01*
X0114972Y0092153D01*
X0112745Y0089926D01*
X0111823Y0089004D01*
X0110878Y0088059D01*
X0108291Y0085472D01*
X0107275Y0084456D01*
X0107005Y0085107D01*
X0106107Y0086005D01*
X0104935Y0086491D01*
X0103665Y0086491D01*
X0102493Y0086005D01*
X0101595Y0085107D01*
X0101109Y0083935D01*
X0101109Y0082665D01*
X0101595Y0081493D01*
X0102493Y0080595D01*
X0103144Y0080325D01*
X0101800Y0078981D01*
X0099380Y0081401D01*
X0097153Y0083628D01*
X0094926Y0085855D01*
X0092699Y0088082D01*
X0090472Y0090309D01*
X0088245Y0092536D01*
X0086018Y0094763D01*
X0083981Y0096800D01*
X0085096Y0097915D02*
X0118504Y0097915D01*
X0116905Y0099514D02*
X0093295Y0099514D01*
X0093785Y0101112D02*
X0115307Y0101112D01*
X0113708Y0102711D02*
X0096135Y0102711D01*
X0094053Y0102711D02*
X0093473Y0102711D01*
X0092335Y0104057D02*
X0091559Y0104378D01*
X0091777Y0104596D01*
X0092014Y0104833D01*
X0092335Y0104057D01*
X0092230Y0104309D02*
X0091726Y0104309D01*
X0091777Y0104596D02*
X0088736Y0107636D01*
X0088736Y0107636D01*
X0091777Y0104596D01*
X0090465Y0105908D02*
X0090465Y0105908D01*
X0088867Y0107506D02*
X0088867Y0107506D01*
X0087268Y0109105D02*
X0087268Y0109105D01*
X0085722Y0110703D02*
X0080491Y0110703D01*
X0082075Y0109105D02*
X0084123Y0109105D01*
X0086509Y0105409D02*
X0090594Y0101325D01*
X0087893Y0099514D02*
X0086695Y0099514D01*
X0084282Y0103182D02*
X0074367Y0113190D01*
X0074349Y0122428D01*
X0077980Y0118696D02*
X0089200Y0118696D01*
X0089200Y0120294D02*
X0079579Y0120294D01*
X0081177Y0121893D02*
X0089200Y0121893D01*
X0089814Y0123491D02*
X0082776Y0123491D01*
X0084375Y0125090D02*
X0091413Y0125090D01*
X0089333Y0117097D02*
X0076959Y0117097D01*
X0076962Y0115499D02*
X0090517Y0115499D01*
X0091381Y0113900D02*
X0091381Y0113900D01*
X0092979Y0112302D02*
X0092980Y0112302D01*
X0094578Y0110703D02*
X0094578Y0110703D01*
X0096176Y0109105D02*
X0096177Y0109105D01*
X0096286Y0109105D02*
X0107314Y0109105D01*
X0105716Y0110703D02*
X0097884Y0110703D01*
X0097176Y0109996D02*
X0097176Y0109996D01*
X0097813Y0107506D02*
X0108913Y0107506D01*
X0110511Y0105908D02*
X0098285Y0105908D01*
X0097958Y0104309D02*
X0112110Y0104309D01*
X0114864Y0107637D02*
X0139027Y0131800D01*
X0176800Y0131800D01*
X0186344Y0142673D02*
X0189200Y0142673D01*
X0189200Y0141075D02*
X0187942Y0141075D01*
X0189200Y0144272D02*
X0184745Y0144272D01*
X0183147Y0145870D02*
X0189200Y0145870D01*
X0189200Y0147469D02*
X0167439Y0147469D01*
X0167396Y0149068D02*
X0189200Y0149068D01*
X0189200Y0150666D02*
X0166734Y0150666D01*
X0165353Y0152265D02*
X0189200Y0152265D01*
X0189200Y0153863D02*
X0151553Y0153863D01*
X0151553Y0152265D02*
X0158247Y0152265D01*
X0156866Y0150666D02*
X0151553Y0150666D01*
X0150865Y0149068D02*
X0156204Y0149068D01*
X0156161Y0147469D02*
X0149400Y0147469D01*
X0146800Y0144005D02*
X0146800Y0153060D01*
X0140540Y0153060D01*
X0136800Y0156800D01*
X0136800Y0171800D01*
X0141600Y0171447D02*
X0156161Y0171447D01*
X0156161Y0170075D02*
X0161320Y0170075D01*
X0161320Y0169116D01*
X0156161Y0169116D01*
X0156161Y0165313D01*
X0156300Y0164436D01*
X0156575Y0163592D01*
X0156977Y0162801D01*
X0157499Y0162083D01*
X0158127Y0161456D01*
X0158845Y0160934D01*
X0159636Y0160531D01*
X0160480Y0160257D01*
X0161320Y0160124D01*
X0161320Y0169116D01*
X0162280Y0169116D01*
X0162280Y0170075D01*
X0167439Y0170075D01*
X0167439Y0173878D01*
X0167300Y0174754D01*
X0167025Y0175598D01*
X0166623Y0176389D01*
X0166101Y0177107D01*
X0165473Y0177735D01*
X0164755Y0178256D01*
X0163964Y0178659D01*
X0163120Y0178934D01*
X0162280Y0179067D01*
X0162280Y0170075D01*
X0161320Y0170075D01*
X0161320Y0179067D01*
X0160480Y0178934D01*
X0159636Y0178659D01*
X0158845Y0178256D01*
X0158127Y0177735D01*
X0157499Y0177107D01*
X0156977Y0176389D01*
X0156575Y0175598D01*
X0156300Y0174754D01*
X0156161Y0173878D01*
X0156161Y0170075D01*
X0156161Y0168250D02*
X0149653Y0168250D01*
X0149991Y0166651D02*
X0156161Y0166651D01*
X0156203Y0165053D02*
X0149530Y0165053D01*
X0151553Y0163454D02*
X0156645Y0163454D01*
X0157727Y0161856D02*
X0151553Y0161856D01*
X0151553Y0160257D02*
X0160479Y0160257D01*
X0161320Y0160257D02*
X0162280Y0160257D01*
X0162280Y0160124D02*
X0163120Y0160257D01*
X0163964Y0160531D01*
X0164755Y0160934D01*
X0165473Y0161456D01*
X0166101Y0162083D01*
X0166623Y0162801D01*
X0167025Y0163592D01*
X0167300Y0164436D01*
X0167439Y0165313D01*
X0167439Y0169116D01*
X0162280Y0169116D01*
X0162280Y0160124D01*
X0163121Y0160257D02*
X0189200Y0160257D01*
X0189200Y0158659D02*
X0151553Y0158659D01*
X0151377Y0157060D02*
X0189200Y0157060D01*
X0189200Y0155462D02*
X0151553Y0155462D01*
X0146800Y0160540D02*
X0146800Y0166800D01*
X0145822Y0169848D02*
X0141600Y0169848D01*
X0141600Y0168250D02*
X0143947Y0168250D01*
X0143609Y0166651D02*
X0141105Y0166651D01*
X0139841Y0165053D02*
X0144070Y0165053D01*
X0142047Y0163454D02*
X0139400Y0163454D01*
X0139400Y0161856D02*
X0142047Y0161856D01*
X0142047Y0160257D02*
X0139400Y0160257D01*
X0139400Y0158659D02*
X0142047Y0158659D01*
X0142223Y0157060D02*
X0140217Y0157060D01*
X0136060Y0153863D02*
X0129400Y0153863D01*
X0129400Y0152265D02*
X0137659Y0152265D01*
X0139525Y0150666D02*
X0129400Y0150666D01*
X0129400Y0149068D02*
X0142735Y0149068D01*
X0144200Y0147469D02*
X0129400Y0147469D01*
X0129400Y0145870D02*
X0144200Y0145870D01*
X0143368Y0144272D02*
X0129400Y0144272D01*
X0129400Y0142673D02*
X0141769Y0142673D01*
X0140171Y0141075D02*
X0129400Y0141075D01*
X0129400Y0139476D02*
X0138572Y0139476D01*
X0136974Y0137878D02*
X0129400Y0137878D01*
X0129400Y0136279D02*
X0135375Y0136279D01*
X0133777Y0134681D02*
X0129400Y0134681D01*
X0129400Y0133082D02*
X0132178Y0133082D01*
X0130580Y0131484D02*
X0129400Y0131484D01*
X0133481Y0121800D02*
X0176800Y0121800D01*
X0176800Y0111800D02*
X0127936Y0111800D01*
X0119318Y0103182D01*
X0121545Y0100955D02*
X0122390Y0101800D01*
X0176800Y0101800D01*
X0156800Y0071800D02*
X0166800Y0061800D01*
X0165436Y0059551D02*
X0122726Y0059551D01*
X0121128Y0061149D02*
X0163774Y0061149D01*
X0162175Y0062748D02*
X0119529Y0062748D01*
X0117931Y0064346D02*
X0160577Y0064346D01*
X0158978Y0065945D02*
X0116332Y0065945D01*
X0114734Y0067543D02*
X0157380Y0067543D01*
X0155781Y0069142D02*
X0114400Y0069142D01*
X0114400Y0070740D02*
X0117501Y0070740D01*
X0115903Y0072339D02*
X0114147Y0072339D01*
X0114304Y0073937D02*
X0112750Y0073937D01*
X0112706Y0075536D02*
X0111151Y0075536D01*
X0108182Y0079282D02*
X0104300Y0083300D01*
X0106985Y0085127D02*
X0107946Y0085127D01*
X0109545Y0086726D02*
X0094055Y0086726D01*
X0092457Y0088324D02*
X0111143Y0088324D01*
X0111823Y0089004D02*
X0114864Y0085963D01*
X0114864Y0085964D01*
X0111823Y0089004D01*
X0112503Y0088324D02*
X0112503Y0088324D01*
X0112742Y0089923D02*
X0090858Y0089923D01*
X0089260Y0091521D02*
X0114340Y0091521D01*
X0112745Y0089926D02*
X0112745Y0089926D01*
X0114101Y0086726D02*
X0114102Y0086726D01*
X0112637Y0083736D02*
X0116066Y0080307D01*
X0119660Y0080307D01*
X0120119Y0071800D02*
X0156800Y0071800D01*
X0131800Y0046800D02*
X0136800Y0041800D01*
X0136800Y0021800D01*
X0141800Y0021800D01*
X0146800Y0026800D01*
X0161800Y0026800D01*
X0166800Y0021800D01*
X0163822Y0017990D02*
X0159778Y0017990D01*
X0159400Y0016391D02*
X0189200Y0016391D01*
X0189200Y0014793D02*
X0159400Y0014793D01*
X0158709Y0013194D02*
X0189200Y0013194D01*
X0189180Y0011596D02*
X0157110Y0011596D01*
X0155512Y0009997D02*
X0188326Y0009997D01*
X0173822Y0017990D02*
X0169778Y0017990D01*
X0171376Y0019588D02*
X0172224Y0019588D01*
X0172000Y0021187D02*
X0171600Y0021187D01*
X0171600Y0022785D02*
X0172000Y0022785D01*
X0172595Y0024384D02*
X0171005Y0024384D01*
X0169406Y0025982D02*
X0174194Y0025982D01*
X0174812Y0027000D02*
X0176600Y0027000D01*
X0176600Y0031600D01*
X0172000Y0031600D01*
X0172000Y0029812D01*
X0174812Y0027000D01*
X0174231Y0027581D02*
X0169369Y0027581D01*
X0170967Y0029179D02*
X0172633Y0029179D01*
X0172000Y0030778D02*
X0171600Y0030778D01*
X0171600Y0032376D02*
X0172000Y0032376D01*
X0172186Y0033975D02*
X0171414Y0033975D01*
X0169815Y0035573D02*
X0173785Y0035573D01*
X0176600Y0035573D02*
X0177000Y0035573D01*
X0177000Y0033975D02*
X0176600Y0033975D01*
X0176600Y0032376D02*
X0177000Y0032376D01*
X0177000Y0030778D02*
X0176600Y0030778D01*
X0176600Y0029179D02*
X0177000Y0029179D01*
X0177000Y0027581D02*
X0176600Y0027581D01*
X0163785Y0035573D02*
X0159815Y0035573D01*
X0161414Y0033975D02*
X0162186Y0033975D01*
X0162000Y0032376D02*
X0161600Y0032376D01*
X0161600Y0030778D02*
X0162000Y0030778D01*
X0162000Y0022785D02*
X0161600Y0022785D01*
X0161600Y0021187D02*
X0162000Y0021187D01*
X0162224Y0019588D02*
X0161376Y0019588D01*
X0156800Y0021800D02*
X0156800Y0014962D01*
X0153638Y0011800D01*
X0129628Y0011800D01*
X0126800Y0014628D01*
X0126800Y0021800D01*
X0126800Y0046210D01*
X0121210Y0051800D01*
X0096800Y0076210D01*
X0097645Y0077055D01*
X0095418Y0079282D02*
X0091800Y0075664D01*
X0091800Y0071800D01*
X0116800Y0046800D01*
X0116800Y0021800D01*
X0121600Y0021187D02*
X0122000Y0021187D01*
X0122000Y0022785D02*
X0121600Y0022785D01*
X0121600Y0024384D02*
X0122000Y0024384D01*
X0122094Y0025982D02*
X0121506Y0025982D01*
X0120808Y0027581D02*
X0122792Y0027581D01*
X0124200Y0029179D02*
X0119400Y0029179D01*
X0119400Y0030778D02*
X0124200Y0030778D01*
X0124200Y0032376D02*
X0119400Y0032376D01*
X0119400Y0033975D02*
X0124200Y0033975D01*
X0124200Y0035573D02*
X0119400Y0035573D01*
X0119400Y0037172D02*
X0124200Y0037172D01*
X0124200Y0038770D02*
X0119400Y0038770D01*
X0119400Y0040369D02*
X0124200Y0040369D01*
X0124200Y0041967D02*
X0119400Y0041967D01*
X0119400Y0043566D02*
X0124200Y0043566D01*
X0124169Y0045164D02*
X0119400Y0045164D01*
X0119400Y0046763D02*
X0122570Y0046763D01*
X0120972Y0048361D02*
X0118916Y0048361D01*
X0119373Y0049960D02*
X0117317Y0049960D01*
X0117775Y0051558D02*
X0115719Y0051558D01*
X0116176Y0053157D02*
X0114120Y0053157D01*
X0114578Y0054755D02*
X0112522Y0054755D01*
X0112979Y0056354D02*
X0110923Y0056354D01*
X0111381Y0057952D02*
X0109325Y0057952D01*
X0109782Y0059551D02*
X0107726Y0059551D01*
X0108184Y0061149D02*
X0106128Y0061149D01*
X0106585Y0062748D02*
X0104529Y0062748D01*
X0104987Y0064346D02*
X0102931Y0064346D01*
X0103388Y0065945D02*
X0101332Y0065945D01*
X0101790Y0067543D02*
X0099734Y0067543D01*
X0100191Y0069142D02*
X0098135Y0069142D01*
X0098593Y0070740D02*
X0096536Y0070740D01*
X0096994Y0072339D02*
X0094938Y0072339D01*
X0094681Y0073937D02*
X0094400Y0073937D01*
X0089425Y0070740D02*
X0089400Y0070740D01*
X0089400Y0069142D02*
X0090781Y0069142D01*
X0089400Y0067543D02*
X0092380Y0067543D01*
X0093978Y0065945D02*
X0089400Y0065945D01*
X0089400Y0064346D02*
X0095577Y0064346D01*
X0097175Y0062748D02*
X0089529Y0062748D01*
X0091128Y0061149D02*
X0098774Y0061149D01*
X0100372Y0059551D02*
X0092726Y0059551D01*
X0094325Y0057952D02*
X0101971Y0057952D01*
X0103569Y0056354D02*
X0095923Y0056354D01*
X0097522Y0054755D02*
X0105168Y0054755D01*
X0106766Y0053157D02*
X0099120Y0053157D01*
X0100719Y0051558D02*
X0108365Y0051558D01*
X0109963Y0049960D02*
X0102317Y0049960D01*
X0103916Y0048361D02*
X0111562Y0048361D01*
X0113160Y0046763D02*
X0105514Y0046763D01*
X0107113Y0045164D02*
X0114200Y0045164D01*
X0114200Y0043566D02*
X0108711Y0043566D01*
X0109400Y0041967D02*
X0114200Y0041967D01*
X0114200Y0040369D02*
X0109400Y0040369D01*
X0109400Y0038770D02*
X0114200Y0038770D01*
X0114200Y0037172D02*
X0109400Y0037172D01*
X0109400Y0035573D02*
X0114200Y0035573D01*
X0114200Y0033975D02*
X0109400Y0033975D01*
X0109400Y0032376D02*
X0114200Y0032376D01*
X0114200Y0030778D02*
X0109400Y0030778D01*
X0109400Y0029179D02*
X0114200Y0029179D01*
X0112792Y0027581D02*
X0110808Y0027581D01*
X0111506Y0025982D02*
X0112094Y0025982D01*
X0112000Y0024384D02*
X0111600Y0024384D01*
X0111600Y0022785D02*
X0112000Y0022785D01*
X0112000Y0021187D02*
X0111600Y0021187D01*
X0111600Y0019588D02*
X0112000Y0019588D01*
X0112000Y0017990D02*
X0111600Y0017990D01*
X0110998Y0016391D02*
X0112602Y0016391D01*
X0114019Y0014793D02*
X0109581Y0014793D01*
X0104019Y0014793D02*
X0099581Y0014793D01*
X0100998Y0016391D02*
X0102602Y0016391D01*
X0102000Y0017990D02*
X0101600Y0017990D01*
X0101600Y0019588D02*
X0102000Y0019588D01*
X0102000Y0021187D02*
X0101600Y0021187D01*
X0101600Y0022785D02*
X0102000Y0022785D01*
X0102000Y0024384D02*
X0101600Y0024384D01*
X0101506Y0025982D02*
X0102094Y0025982D01*
X0102792Y0027581D02*
X0100808Y0027581D01*
X0099400Y0029179D02*
X0104200Y0029179D01*
X0104200Y0030778D02*
X0099400Y0030778D01*
X0099400Y0032376D02*
X0104200Y0032376D01*
X0104200Y0033975D02*
X0099400Y0033975D01*
X0099400Y0035573D02*
X0104200Y0035573D01*
X0104200Y0037172D02*
X0099400Y0037172D01*
X0098507Y0038770D02*
X0104200Y0038770D01*
X0104200Y0040369D02*
X0096908Y0040369D01*
X0095310Y0041967D02*
X0102956Y0041967D01*
X0101357Y0043566D02*
X0093711Y0043566D01*
X0092113Y0045164D02*
X0099759Y0045164D01*
X0098160Y0046763D02*
X0090514Y0046763D01*
X0088916Y0048361D02*
X0096562Y0048361D01*
X0094963Y0049960D02*
X0087317Y0049960D01*
X0085719Y0051558D02*
X0093365Y0051558D01*
X0091766Y0053157D02*
X0084400Y0053157D01*
X0084400Y0054755D02*
X0090168Y0054755D01*
X0088569Y0056354D02*
X0084400Y0056354D01*
X0084400Y0057952D02*
X0086971Y0057952D01*
X0085372Y0059551D02*
X0084400Y0059551D01*
X0086800Y0061800D02*
X0106800Y0041800D01*
X0106800Y0021800D01*
X0096800Y0021800D02*
X0096800Y0036800D01*
X0081800Y0051800D01*
X0081800Y0074573D01*
X0090963Y0083736D01*
X0088736Y0085963D02*
X0076800Y0074027D01*
X0076800Y0041800D01*
X0086800Y0031800D01*
X0086800Y0021800D01*
X0091600Y0021187D02*
X0092000Y0021187D01*
X0092000Y0022785D02*
X0091600Y0022785D01*
X0091600Y0024384D02*
X0092000Y0024384D01*
X0092094Y0025982D02*
X0091506Y0025982D01*
X0090808Y0027581D02*
X0092792Y0027581D01*
X0094200Y0029179D02*
X0089400Y0029179D01*
X0089400Y0030778D02*
X0094200Y0030778D01*
X0094200Y0032376D02*
X0089376Y0032376D01*
X0088302Y0033975D02*
X0094200Y0033975D01*
X0094200Y0035573D02*
X0086704Y0035573D01*
X0085105Y0037172D02*
X0092751Y0037172D01*
X0091153Y0038770D02*
X0083507Y0038770D01*
X0081908Y0040369D02*
X0089554Y0040369D01*
X0087956Y0041967D02*
X0080310Y0041967D01*
X0079400Y0043566D02*
X0086357Y0043566D01*
X0084759Y0045164D02*
X0079400Y0045164D01*
X0079400Y0046763D02*
X0083160Y0046763D01*
X0081562Y0048361D02*
X0079400Y0048361D01*
X0079400Y0049960D02*
X0079963Y0049960D01*
X0086800Y0061800D02*
X0086800Y0075119D01*
X0093191Y0081509D01*
X0095654Y0085127D02*
X0101615Y0085127D01*
X0101109Y0083529D02*
X0097252Y0083529D01*
X0098851Y0081930D02*
X0101414Y0081930D01*
X0100449Y0080332D02*
X0103129Y0080332D01*
X0105955Y0077055D02*
X0111800Y0071210D01*
X0111800Y0066800D01*
X0131800Y0046800D01*
X0139400Y0035573D02*
X0153785Y0035573D01*
X0152186Y0033975D02*
X0139400Y0033975D01*
X0139400Y0032376D02*
X0152000Y0032376D01*
X0152000Y0030778D02*
X0139400Y0030778D01*
X0139400Y0029179D02*
X0145750Y0029179D01*
X0143904Y0027581D02*
X0140808Y0027581D01*
X0141506Y0025982D02*
X0142305Y0025982D01*
X0127754Y0009997D02*
X0076174Y0009997D01*
X0077772Y0011596D02*
X0126156Y0011596D01*
X0124580Y0013194D02*
X0079156Y0013194D01*
X0079581Y0014793D02*
X0084019Y0014793D01*
X0082602Y0016391D02*
X0080998Y0016391D01*
X0081600Y0017990D02*
X0082000Y0017990D01*
X0082000Y0019588D02*
X0081600Y0019588D01*
X0081600Y0021187D02*
X0082000Y0021187D01*
X0082000Y0022785D02*
X0081600Y0022785D01*
X0081600Y0024384D02*
X0082000Y0024384D01*
X0082094Y0025982D02*
X0081506Y0025982D01*
X0080808Y0027581D02*
X0082792Y0027581D01*
X0084200Y0029179D02*
X0078771Y0029179D01*
X0074829Y0029179D02*
X0068771Y0029179D01*
X0070808Y0027581D02*
X0072792Y0027581D01*
X0072094Y0025982D02*
X0071506Y0025982D01*
X0071600Y0024384D02*
X0072000Y0024384D01*
X0072000Y0022785D02*
X0071600Y0022785D01*
X0071600Y0021187D02*
X0072000Y0021187D01*
X0072000Y0019588D02*
X0071600Y0019588D01*
X0071600Y0017990D02*
X0072000Y0017990D01*
X0072602Y0016391D02*
X0070998Y0016391D01*
X0069581Y0014793D02*
X0073616Y0014793D01*
X0074300Y0011800D02*
X0033580Y0011800D01*
X0030934Y0014446D01*
X0030934Y0021800D01*
X0035096Y0021187D02*
X0062000Y0021187D01*
X0062000Y0022785D02*
X0035096Y0022785D01*
X0035096Y0024384D02*
X0062000Y0024384D01*
X0062094Y0025982D02*
X0025660Y0025982D01*
X0030061Y0027581D02*
X0031020Y0027581D01*
X0031020Y0029179D02*
X0030061Y0029179D01*
X0030061Y0030778D02*
X0031020Y0030778D01*
X0031020Y0032376D02*
X0030061Y0032376D01*
X0030061Y0033975D02*
X0031020Y0033975D01*
X0031020Y0035573D02*
X0030061Y0035573D01*
X0034704Y0035573D02*
X0079350Y0035573D01*
X0080948Y0033975D02*
X0034899Y0033975D01*
X0034899Y0032376D02*
X0082547Y0032376D01*
X0084145Y0030778D02*
X0034899Y0030778D01*
X0034899Y0029179D02*
X0064829Y0029179D01*
X0062792Y0027581D02*
X0034378Y0027581D01*
X0035096Y0019588D02*
X0062000Y0019588D01*
X0062000Y0017990D02*
X0034393Y0017990D01*
X0033534Y0016391D02*
X0062602Y0016391D01*
X0064019Y0014793D02*
X0034264Y0014793D01*
X0031706Y0009997D02*
X0015274Y0009997D01*
X0026126Y0017990D02*
X0027474Y0017990D01*
X0023060Y0021800D02*
X0023060Y0031800D01*
X0023060Y0021800D02*
X0022666Y0021800D01*
X0020859Y0057952D02*
X0014400Y0057952D01*
X0014400Y0059551D02*
X0019536Y0059551D01*
X0019000Y0061149D02*
X0014400Y0061149D01*
X0014400Y0062748D02*
X0019000Y0062748D01*
X0019659Y0064346D02*
X0014400Y0064346D01*
X0026800Y0071800D02*
X0036800Y0071800D01*
X0041800Y0076800D01*
X0046800Y0081800D01*
X0075664Y0081800D01*
X0076800Y0082936D01*
X0084282Y0090418D01*
X0086509Y0088191D02*
X0076800Y0078481D01*
X0075119Y0076800D01*
X0050620Y0076800D01*
X0048876Y0078733D02*
X0047410Y0078733D01*
X0047277Y0077134D02*
X0045811Y0077134D01*
X0045679Y0075536D02*
X0044213Y0075536D01*
X0044080Y0073937D02*
X0042614Y0073937D01*
X0042482Y0072339D02*
X0041016Y0072339D01*
X0040883Y0070740D02*
X0039417Y0070740D01*
X0039285Y0069142D02*
X0033894Y0069142D01*
X0032067Y0067543D02*
X0037686Y0067543D01*
X0036088Y0065945D02*
X0032336Y0065945D01*
X0032852Y0075536D02*
X0036859Y0075536D01*
X0038458Y0077134D02*
X0031079Y0077134D01*
X0033521Y0078733D02*
X0040056Y0078733D01*
X0039008Y0080332D02*
X0041655Y0080332D01*
X0040607Y0081930D02*
X0043253Y0081930D01*
X0042205Y0083529D02*
X0044852Y0083529D01*
X0036450Y0085127D02*
X0033261Y0085127D01*
X0052404Y0093120D02*
X0078429Y0093120D01*
X0086063Y0094718D02*
X0117537Y0094718D01*
X0115939Y0093120D02*
X0087661Y0093120D01*
X0082055Y0100955D02*
X0071869Y0110858D01*
X0062755Y0110833D01*
X0060875Y0113900D02*
X0071766Y0113900D01*
X0071762Y0115499D02*
X0056642Y0115499D01*
X0057539Y0113900D02*
X0058194Y0113900D01*
X0055043Y0117097D02*
X0071759Y0117097D01*
X0077324Y0113900D02*
X0088919Y0113900D01*
X0087320Y0112302D02*
X0078907Y0112302D01*
X0090963Y0109864D02*
X0095094Y0105733D01*
X0099483Y0112302D02*
X0104117Y0112302D01*
X0102519Y0113900D02*
X0101081Y0113900D01*
X0109400Y0120294D02*
X0110482Y0120294D01*
X0109400Y0121893D02*
X0112080Y0121893D01*
X0113679Y0123491D02*
X0109400Y0123491D01*
X0117091Y0105409D02*
X0133481Y0121800D01*
X0134540Y0155462D02*
X0129400Y0155462D01*
X0129400Y0157060D02*
X0134200Y0157060D01*
X0134200Y0158659D02*
X0129400Y0158659D01*
X0129400Y0160257D02*
X0134200Y0160257D01*
X0134200Y0161856D02*
X0129400Y0161856D01*
X0129400Y0163454D02*
X0134200Y0163454D01*
X0133759Y0165053D02*
X0129841Y0165053D01*
X0131105Y0166651D02*
X0132495Y0166651D01*
X0132000Y0168250D02*
X0131600Y0168250D01*
X0131600Y0169848D02*
X0132000Y0169848D01*
X0132000Y0171447D02*
X0131600Y0171447D01*
X0131600Y0173045D02*
X0132000Y0173045D01*
X0132000Y0174644D02*
X0131600Y0174644D01*
X0131398Y0176242D02*
X0132202Y0176242D01*
X0133052Y0177841D02*
X0130547Y0177841D01*
X0140547Y0177841D02*
X0158273Y0177841D01*
X0156903Y0176242D02*
X0141398Y0176242D01*
X0141600Y0174644D02*
X0156283Y0174644D01*
X0156161Y0173045D02*
X0141600Y0173045D01*
X0147778Y0169848D02*
X0161320Y0169848D01*
X0162280Y0169848D02*
X0189200Y0169848D01*
X0189200Y0168250D02*
X0167439Y0168250D01*
X0167439Y0166651D02*
X0189200Y0166651D01*
X0189200Y0165053D02*
X0167397Y0165053D01*
X0166955Y0163454D02*
X0189200Y0163454D01*
X0189200Y0161856D02*
X0165873Y0161856D01*
X0162280Y0161856D02*
X0161320Y0161856D01*
X0161320Y0163454D02*
X0162280Y0163454D01*
X0162280Y0165053D02*
X0161320Y0165053D01*
X0161320Y0166651D02*
X0162280Y0166651D01*
X0162280Y0168250D02*
X0161320Y0168250D01*
X0161320Y0171447D02*
X0162280Y0171447D01*
X0162280Y0173045D02*
X0161320Y0173045D01*
X0161320Y0174644D02*
X0162280Y0174644D01*
X0162280Y0176242D02*
X0161320Y0176242D01*
X0161320Y0177841D02*
X0162280Y0177841D01*
X0165327Y0177841D02*
X0189200Y0177841D01*
X0189200Y0176242D02*
X0166697Y0176242D01*
X0167317Y0174644D02*
X0189200Y0174644D01*
X0189200Y0173045D02*
X0167439Y0173045D01*
X0167439Y0171447D02*
X0189200Y0171447D01*
X0189001Y0182636D02*
X0014599Y0182636D01*
X0014400Y0136279D02*
X0022053Y0136279D01*
X0019960Y0134681D02*
X0014400Y0134681D01*
X0014400Y0133082D02*
X0019170Y0133082D01*
X0019000Y0131600D02*
X0019000Y0131422D01*
X0019118Y0130676D01*
X0019352Y0129957D01*
X0019695Y0129284D01*
X0020139Y0128673D01*
X0020673Y0128139D01*
X0021284Y0127695D01*
X0021957Y0127352D01*
X0022676Y0127118D01*
X0023422Y0127000D01*
X0026600Y0127000D01*
X0026600Y0131600D01*
X0019000Y0131600D01*
X0019000Y0131484D02*
X0014400Y0131484D01*
X0014400Y0129885D02*
X0019388Y0129885D01*
X0020525Y0128287D02*
X0014400Y0128287D01*
X0026600Y0128287D02*
X0027000Y0128287D01*
X0027000Y0129885D02*
X0026600Y0129885D01*
X0026600Y0131484D02*
X0027000Y0131484D01*
X0027000Y0133082D02*
X0026600Y0133082D01*
X0026600Y0134681D02*
X0027000Y0134681D01*
X0027000Y0136279D02*
X0026600Y0136279D01*
X0110409Y0081509D02*
X0120119Y0071800D01*
X0076800Y0021800D02*
X0076800Y0014300D01*
X0074300Y0011800D01*
X0089581Y0014793D02*
X0094019Y0014793D01*
X0092602Y0016391D02*
X0090998Y0016391D01*
X0091600Y0017990D02*
X0092000Y0017990D01*
X0092000Y0019588D02*
X0091600Y0019588D01*
X0119581Y0014793D02*
X0124019Y0014793D01*
X0122602Y0016391D02*
X0120998Y0016391D01*
X0121600Y0017990D02*
X0122000Y0017990D01*
X0122000Y0019588D02*
X0121600Y0019588D01*
D21*
X0119660Y0080307D03*
X0104300Y0083300D03*
X0090594Y0101325D03*
X0095094Y0105733D03*
X0146800Y0166800D03*
M02*
