G75*
%MOIN*%
%OFA0B0*%
%FSLAX25Y25*%
%IPPOS*%
%LPD*%
%AMOC8*
5,1,8,0,0,1.08239X$1,22.5*
%
%ADD10R,0.11417X0.05906*%
%ADD11R,0.05118X0.06299*%
%ADD12R,0.04799X0.08799*%
%ADD13R,0.14173X0.08661*%
%ADD14OC8,0.06000*%
%ADD15C,0.06000*%
%ADD16C,0.07677*%
%ADD17R,0.04724X0.05118*%
%ADD18C,0.01600*%
%ADD19C,0.02781*%
D10*
X0076800Y0045894D03*
X0076800Y0057706D03*
X0126800Y0057706D03*
X0126800Y0045894D03*
D11*
G36*
X0100060Y0073373D02*
X0096441Y0076992D01*
X0100894Y0081445D01*
X0104513Y0077826D01*
X0100060Y0073373D01*
G37*
G36*
X0094493Y0078941D02*
X0090874Y0082560D01*
X0095327Y0087013D01*
X0098946Y0083394D01*
X0094493Y0078941D01*
G37*
G36*
X0092480Y0098933D02*
X0096099Y0102552D01*
X0100552Y0098099D01*
X0096933Y0094480D01*
X0092480Y0098933D01*
G37*
G36*
X0098048Y0104501D02*
X0101667Y0108120D01*
X0106120Y0103667D01*
X0102501Y0100048D01*
X0098048Y0104501D01*
G37*
G36*
X0113004Y0104691D02*
X0116623Y0101072D01*
X0112170Y0096619D01*
X0108551Y0100238D01*
X0113004Y0104691D01*
G37*
G36*
X0118572Y0099123D02*
X0122191Y0095504D01*
X0117738Y0091051D01*
X0114119Y0094670D01*
X0118572Y0099123D01*
G37*
D12*
X0110898Y0039599D03*
X0101800Y0039599D03*
X0092702Y0039599D03*
D13*
X0101800Y0064001D03*
D14*
X0156800Y0031800D03*
X0166800Y0031800D03*
X0166800Y0021800D03*
X0156800Y0021800D03*
X0176800Y0021800D03*
X0176800Y0031800D03*
D15*
X0179800Y0061800D02*
X0173800Y0061800D01*
X0173800Y0071800D02*
X0179800Y0071800D01*
X0179800Y0081800D02*
X0173800Y0081800D01*
X0173800Y0091800D02*
X0179800Y0091800D01*
X0179800Y0101800D02*
X0173800Y0101800D01*
X0173800Y0111800D02*
X0179800Y0111800D01*
X0179800Y0121800D02*
X0173800Y0121800D01*
X0173800Y0131800D02*
X0179800Y0131800D01*
X0136800Y0168800D02*
X0136800Y0174800D01*
X0126800Y0174800D02*
X0126800Y0168800D01*
X0116800Y0168800D02*
X0116800Y0174800D01*
X0106800Y0174800D02*
X0106800Y0168800D01*
X0096800Y0168800D02*
X0096800Y0174800D01*
X0086800Y0174800D02*
X0086800Y0168800D01*
X0076800Y0168800D02*
X0076800Y0174800D01*
X0066800Y0174800D02*
X0066800Y0168800D01*
X0029800Y0131800D02*
X0023800Y0131800D01*
X0023800Y0121800D02*
X0029800Y0121800D01*
X0029800Y0111800D02*
X0023800Y0111800D01*
X0023800Y0101800D02*
X0029800Y0101800D01*
X0029800Y0091800D02*
X0023800Y0091800D01*
X0023800Y0081800D02*
X0029800Y0081800D01*
X0029800Y0071800D02*
X0023800Y0071800D01*
X0023800Y0061800D02*
X0029800Y0061800D01*
X0066800Y0024800D02*
X0066800Y0018800D01*
X0076800Y0018800D02*
X0076800Y0024800D01*
X0086800Y0024800D02*
X0086800Y0018800D01*
X0096800Y0018800D02*
X0096800Y0024800D01*
X0106800Y0024800D02*
X0106800Y0018800D01*
X0116800Y0018800D02*
X0116800Y0024800D01*
X0126800Y0024800D02*
X0126800Y0018800D01*
X0136800Y0018800D02*
X0136800Y0024800D01*
D16*
X0161800Y0140166D02*
X0161800Y0147843D01*
X0161800Y0165757D02*
X0161800Y0173434D01*
D17*
G36*
X0103565Y0088382D02*
X0100225Y0091722D01*
X0103843Y0095340D01*
X0107183Y0092000D01*
X0103565Y0088382D01*
G37*
G36*
X0109222Y0082725D02*
X0105882Y0086065D01*
X0109500Y0089683D01*
X0112840Y0086343D01*
X0109222Y0082725D01*
G37*
D18*
X0014446Y0011332D02*
X0014804Y0010467D01*
X0015467Y0009804D01*
X0016332Y0009446D01*
X0016800Y0009400D01*
X0118628Y0009400D01*
X0118156Y0009596D01*
X0117424Y0010327D01*
X0114596Y0013156D01*
X0114200Y0014111D01*
X0114200Y0014681D01*
X0114081Y0014731D01*
X0112731Y0016081D01*
X0112000Y0017845D01*
X0112000Y0025755D01*
X0112731Y0027519D01*
X0114081Y0028869D01*
X0114880Y0029200D01*
X0108720Y0029200D01*
X0109519Y0028869D01*
X0110869Y0027519D01*
X0111600Y0025755D01*
X0111600Y0017845D01*
X0110869Y0016081D01*
X0109519Y0014731D01*
X0107755Y0014000D01*
X0105845Y0014000D01*
X0104081Y0014731D01*
X0102731Y0016081D01*
X0102000Y0017845D01*
X0102000Y0025755D01*
X0102731Y0027519D01*
X0104081Y0028869D01*
X0104880Y0029200D01*
X0098720Y0029200D01*
X0099519Y0028869D01*
X0100869Y0027519D01*
X0101600Y0025755D01*
X0101600Y0017845D01*
X0100869Y0016081D01*
X0099519Y0014731D01*
X0097755Y0014000D01*
X0095845Y0014000D01*
X0094081Y0014731D01*
X0092731Y0016081D01*
X0092000Y0017845D01*
X0092000Y0025755D01*
X0092731Y0027519D01*
X0094081Y0028869D01*
X0094880Y0029200D01*
X0088720Y0029200D01*
X0089519Y0028869D01*
X0090869Y0027519D01*
X0091600Y0025755D01*
X0091600Y0017845D01*
X0090869Y0016081D01*
X0089519Y0014731D01*
X0087755Y0014000D01*
X0085845Y0014000D01*
X0084081Y0014731D01*
X0082731Y0016081D01*
X0082000Y0017845D01*
X0082000Y0025755D01*
X0082731Y0027519D01*
X0084081Y0028869D01*
X0084880Y0029200D01*
X0080113Y0029200D01*
X0079651Y0028738D01*
X0080869Y0027519D01*
X0081600Y0025755D01*
X0081600Y0017845D01*
X0080869Y0016081D01*
X0079519Y0014731D01*
X0077755Y0014000D01*
X0075845Y0014000D01*
X0074081Y0014731D01*
X0072731Y0016081D01*
X0072000Y0017845D01*
X0072000Y0025755D01*
X0072731Y0027519D01*
X0074081Y0028869D01*
X0074200Y0028919D01*
X0074200Y0030081D01*
X0074596Y0031037D01*
X0075327Y0031768D01*
X0075327Y0031768D01*
X0077563Y0034004D01*
X0078519Y0034400D01*
X0088556Y0034400D01*
X0088502Y0034454D01*
X0088502Y0036999D01*
X0070676Y0036999D01*
X0069400Y0035723D01*
X0069400Y0028919D01*
X0069519Y0028869D01*
X0070869Y0027519D01*
X0071600Y0025755D01*
X0071600Y0017845D01*
X0070869Y0016081D01*
X0069519Y0014731D01*
X0067755Y0014000D01*
X0065845Y0014000D01*
X0064081Y0014731D01*
X0062731Y0016081D01*
X0062000Y0017845D01*
X0062000Y0025755D01*
X0062731Y0027519D01*
X0064081Y0028869D01*
X0064200Y0028919D01*
X0064200Y0037317D01*
X0064596Y0038273D01*
X0065327Y0039004D01*
X0067395Y0041072D01*
X0068126Y0041803D01*
X0069082Y0042199D01*
X0069291Y0042199D01*
X0069291Y0049593D01*
X0070346Y0050647D01*
X0083254Y0050647D01*
X0084309Y0049593D01*
X0084309Y0042199D01*
X0088502Y0042199D01*
X0088502Y0044744D01*
X0089556Y0045799D01*
X0095847Y0045799D01*
X0096901Y0044744D01*
X0096901Y0034454D01*
X0096847Y0034400D01*
X0097654Y0034400D01*
X0097600Y0034454D01*
X0097600Y0044744D01*
X0098655Y0045799D01*
X0104945Y0045799D01*
X0106000Y0044744D01*
X0106000Y0034454D01*
X0105946Y0034400D01*
X0106882Y0034400D01*
X0106821Y0034505D01*
X0106699Y0034963D01*
X0106699Y0039199D01*
X0110499Y0039199D01*
X0110499Y0039999D01*
X0110499Y0045799D01*
X0108262Y0045799D01*
X0107804Y0045676D01*
X0107394Y0045439D01*
X0107058Y0045104D01*
X0106821Y0044694D01*
X0106699Y0044236D01*
X0106699Y0039999D01*
X0110499Y0039999D01*
X0111298Y0039999D01*
X0111298Y0045799D01*
X0113535Y0045799D01*
X0113993Y0045676D01*
X0114200Y0045557D01*
X0114200Y0077687D01*
X0110465Y0081422D01*
X0109967Y0080924D01*
X0108476Y0080924D01*
X0107269Y0082131D01*
X0107005Y0081493D01*
X0106107Y0080595D01*
X0104935Y0080109D01*
X0104777Y0080109D01*
X0105954Y0078932D01*
X0106191Y0078522D01*
X0106314Y0078064D01*
X0106314Y0077590D01*
X0106191Y0077132D01*
X0105954Y0076722D01*
X0103899Y0074666D01*
X0101155Y0077409D01*
X0100477Y0076731D01*
X0097316Y0073571D01*
X0098954Y0071933D01*
X0099365Y0071696D01*
X0099823Y0071573D01*
X0100297Y0071573D01*
X0100754Y0071696D01*
X0101165Y0071933D01*
X0103221Y0073988D01*
X0100477Y0076731D01*
X0099799Y0077409D01*
X0096638Y0074249D01*
X0095000Y0075887D01*
X0094763Y0076297D01*
X0094641Y0076755D01*
X0094641Y0077141D01*
X0093746Y0077141D01*
X0089073Y0081814D01*
X0089073Y0083305D01*
X0094581Y0088814D01*
X0096073Y0088814D01*
X0096553Y0088333D01*
X0096590Y0088370D01*
X0097528Y0089318D01*
X0097530Y0089323D01*
X0097890Y0089684D01*
X0098799Y0090601D01*
X0098424Y0090976D01*
X0098424Y0092467D01*
X0103097Y0097140D01*
X0103783Y0097140D01*
X0103596Y0097327D01*
X0103215Y0098247D01*
X0102353Y0098247D01*
X0102353Y0097862D01*
X0102230Y0097404D01*
X0101993Y0096993D01*
X0100355Y0095355D01*
X0097194Y0098516D01*
X0096516Y0097838D01*
X0093773Y0095095D01*
X0095828Y0093039D01*
X0096239Y0092802D01*
X0096697Y0092679D01*
X0097171Y0092679D01*
X0097628Y0092802D01*
X0098039Y0093039D01*
X0099677Y0094677D01*
X0096516Y0097838D01*
X0095838Y0098516D01*
X0093095Y0095773D01*
X0091039Y0097828D01*
X0090863Y0098134D01*
X0089960Y0098134D01*
X0088787Y0098620D01*
X0087889Y0099517D01*
X0087404Y0100690D01*
X0087404Y0101959D01*
X0087889Y0103132D01*
X0088787Y0104029D01*
X0089960Y0104515D01*
X0090136Y0104515D01*
X0091904Y0106247D01*
X0091904Y0106368D01*
X0092389Y0107540D01*
X0093287Y0108438D01*
X0094460Y0108923D01*
X0094680Y0108923D01*
X0094943Y0109173D01*
X0095296Y0109520D01*
X0095317Y0109529D01*
X0095334Y0109545D01*
X0095796Y0109722D01*
X0096255Y0109907D01*
X0096278Y0109907D01*
X0096300Y0109915D01*
X0096794Y0109902D01*
X0098835Y0109883D01*
X0099329Y0109887D01*
X0099351Y0109879D01*
X0099374Y0109878D01*
X0099830Y0109685D01*
X0100288Y0109499D01*
X0100305Y0109483D01*
X0100326Y0109474D01*
X0100399Y0109399D01*
X0100921Y0109920D01*
X0102412Y0109920D01*
X0107921Y0104412D01*
X0107921Y0102921D01*
X0107642Y0102642D01*
X0107909Y0102406D01*
X0107946Y0102331D01*
X0108004Y0102273D01*
X0108015Y0102247D01*
X0109166Y0103398D01*
X0111909Y0100655D01*
X0112587Y0101333D01*
X0109844Y0104076D01*
X0111900Y0106132D01*
X0112310Y0106369D01*
X0112768Y0106492D01*
X0113242Y0106492D01*
X0113700Y0106369D01*
X0114110Y0106132D01*
X0115748Y0104494D01*
X0112587Y0101333D01*
X0113265Y0100655D01*
X0116426Y0103816D01*
X0118064Y0102178D01*
X0118301Y0101767D01*
X0118424Y0101309D01*
X0118424Y0100924D01*
X0119318Y0100924D01*
X0123992Y0096250D01*
X0123992Y0094759D01*
X0118483Y0089251D01*
X0116992Y0089251D01*
X0116466Y0089776D01*
X0115647Y0088970D01*
X0114228Y0087501D01*
X0114640Y0087089D01*
X0114640Y0085597D01*
X0114142Y0085099D01*
X0117041Y0082201D01*
X0117852Y0083012D01*
X0119025Y0083498D01*
X0120294Y0083498D01*
X0121467Y0083012D01*
X0121572Y0082907D01*
X0125505Y0082907D01*
X0129200Y0086602D01*
X0129200Y0150723D01*
X0125723Y0154200D01*
X0071283Y0154200D01*
X0070327Y0154596D01*
X0069596Y0155327D01*
X0064596Y0160327D01*
X0064200Y0161283D01*
X0064200Y0164681D01*
X0064081Y0164731D01*
X0062731Y0166081D01*
X0062000Y0167845D01*
X0062000Y0175755D01*
X0062731Y0177519D01*
X0064081Y0178869D01*
X0065845Y0179600D01*
X0067755Y0179600D01*
X0069519Y0178869D01*
X0070869Y0177519D01*
X0071600Y0175755D01*
X0071600Y0167845D01*
X0070869Y0166081D01*
X0069519Y0164731D01*
X0069400Y0164681D01*
X0069400Y0162877D01*
X0072877Y0159400D01*
X0127317Y0159400D01*
X0128273Y0159004D01*
X0133273Y0154004D01*
X0134004Y0153273D01*
X0134400Y0152317D01*
X0134400Y0085008D01*
X0134004Y0084052D01*
X0128786Y0078834D01*
X0128055Y0078103D01*
X0127099Y0077707D01*
X0121572Y0077707D01*
X0121467Y0077602D01*
X0120294Y0077117D01*
X0119400Y0077117D01*
X0119400Y0061301D01*
X0119414Y0061353D01*
X0119651Y0061763D01*
X0119986Y0062099D01*
X0120397Y0062336D01*
X0120854Y0062458D01*
X0126124Y0062458D01*
X0126124Y0058382D01*
X0127476Y0058382D01*
X0127476Y0062458D01*
X0132746Y0062458D01*
X0133203Y0062336D01*
X0133614Y0062099D01*
X0133949Y0061763D01*
X0134186Y0061353D01*
X0134309Y0060895D01*
X0134309Y0058382D01*
X0127476Y0058382D01*
X0127476Y0057029D01*
X0127476Y0052953D01*
X0132746Y0052953D01*
X0133203Y0053075D01*
X0133614Y0053312D01*
X0133949Y0053648D01*
X0134186Y0054058D01*
X0134309Y0054516D01*
X0134309Y0057029D01*
X0127476Y0057029D01*
X0126124Y0057029D01*
X0126124Y0052953D01*
X0120854Y0052953D01*
X0120397Y0053075D01*
X0119986Y0053312D01*
X0119651Y0053648D01*
X0119414Y0054058D01*
X0119400Y0054110D01*
X0119400Y0049701D01*
X0120346Y0050647D01*
X0133254Y0050647D01*
X0134309Y0049593D01*
X0134309Y0042196D01*
X0133254Y0041142D01*
X0129400Y0041142D01*
X0129400Y0034400D01*
X0144200Y0034400D01*
X0144200Y0164888D01*
X0144095Y0164993D01*
X0143609Y0166165D01*
X0143609Y0167435D01*
X0144095Y0168607D01*
X0144993Y0169505D01*
X0146165Y0169991D01*
X0147435Y0169991D01*
X0148607Y0169505D01*
X0149505Y0168607D01*
X0149991Y0167435D01*
X0149991Y0166165D01*
X0149505Y0164993D01*
X0149400Y0164888D01*
X0149400Y0034400D01*
X0152612Y0034400D01*
X0154812Y0036600D01*
X0158788Y0036600D01*
X0161600Y0033788D01*
X0161600Y0029812D01*
X0158788Y0027000D01*
X0154812Y0027000D01*
X0152612Y0029200D01*
X0138720Y0029200D01*
X0139519Y0028869D01*
X0140869Y0027519D01*
X0141600Y0025755D01*
X0141600Y0017845D01*
X0140869Y0016081D01*
X0139519Y0014731D01*
X0138720Y0014400D01*
X0168223Y0014400D01*
X0169200Y0015377D01*
X0169200Y0017412D01*
X0168788Y0017000D01*
X0164812Y0017000D01*
X0162000Y0019812D01*
X0162000Y0023788D01*
X0164812Y0026600D01*
X0168323Y0026600D01*
X0167923Y0027000D01*
X0164812Y0027000D01*
X0162000Y0029812D01*
X0162000Y0033788D01*
X0164812Y0036600D01*
X0168788Y0036600D01*
X0171600Y0033788D01*
X0171600Y0030677D01*
X0172000Y0030277D01*
X0172000Y0031600D01*
X0176600Y0031600D01*
X0176600Y0032000D01*
X0176600Y0036600D01*
X0174812Y0036600D01*
X0172000Y0033788D01*
X0172000Y0032000D01*
X0176600Y0032000D01*
X0177000Y0032000D01*
X0177000Y0036600D01*
X0178788Y0036600D01*
X0181600Y0033788D01*
X0181600Y0032000D01*
X0177000Y0032000D01*
X0177000Y0031600D01*
X0181600Y0031600D01*
X0181600Y0029812D01*
X0178788Y0027000D01*
X0177000Y0027000D01*
X0177000Y0031600D01*
X0176600Y0031600D01*
X0176600Y0027000D01*
X0174812Y0027000D01*
X0174333Y0027479D01*
X0174400Y0027317D01*
X0174400Y0026188D01*
X0174812Y0026600D01*
X0178788Y0026600D01*
X0181600Y0023788D01*
X0181600Y0019812D01*
X0178788Y0017000D01*
X0174812Y0017000D01*
X0174400Y0017412D01*
X0174400Y0013783D01*
X0174004Y0012827D01*
X0173273Y0012096D01*
X0170773Y0009596D01*
X0170300Y0009400D01*
X0186800Y0009400D01*
X0187268Y0009446D01*
X0188133Y0009804D01*
X0188796Y0010467D01*
X0189154Y0011332D01*
X0189200Y0011800D01*
X0189200Y0181800D01*
X0189154Y0182268D01*
X0188796Y0183133D01*
X0188133Y0183796D01*
X0187268Y0184154D01*
X0186800Y0184200D01*
X0016800Y0184200D01*
X0016332Y0184154D01*
X0015467Y0183796D01*
X0014804Y0183133D01*
X0014446Y0182268D01*
X0014400Y0181800D01*
X0014400Y0011800D01*
X0014446Y0011332D01*
X0014420Y0011596D02*
X0116156Y0011596D01*
X0114580Y0013194D02*
X0014400Y0013194D01*
X0014400Y0014793D02*
X0064019Y0014793D01*
X0062602Y0016391D02*
X0014400Y0016391D01*
X0014400Y0017990D02*
X0062000Y0017990D01*
X0062000Y0019588D02*
X0014400Y0019588D01*
X0014400Y0021187D02*
X0062000Y0021187D01*
X0062000Y0022785D02*
X0014400Y0022785D01*
X0014400Y0024384D02*
X0062000Y0024384D01*
X0062094Y0025982D02*
X0014400Y0025982D01*
X0014400Y0027581D02*
X0062792Y0027581D01*
X0064200Y0029179D02*
X0014400Y0029179D01*
X0014400Y0030778D02*
X0064200Y0030778D01*
X0064200Y0032376D02*
X0014400Y0032376D01*
X0014400Y0033975D02*
X0064200Y0033975D01*
X0064200Y0035573D02*
X0014400Y0035573D01*
X0014400Y0037172D02*
X0064200Y0037172D01*
X0065093Y0038770D02*
X0014400Y0038770D01*
X0014400Y0040369D02*
X0066692Y0040369D01*
X0068522Y0041967D02*
X0014400Y0041967D01*
X0014400Y0043566D02*
X0069291Y0043566D01*
X0069291Y0045164D02*
X0014400Y0045164D01*
X0014400Y0046763D02*
X0069291Y0046763D01*
X0069291Y0048361D02*
X0014400Y0048361D01*
X0014400Y0049960D02*
X0069658Y0049960D01*
X0070397Y0053075D02*
X0070854Y0052953D01*
X0076124Y0052953D01*
X0076124Y0057029D01*
X0077476Y0057029D01*
X0077476Y0052953D01*
X0082746Y0052953D01*
X0083203Y0053075D01*
X0083614Y0053312D01*
X0083949Y0053648D01*
X0084186Y0054058D01*
X0084309Y0054516D01*
X0084309Y0057029D01*
X0077476Y0057029D01*
X0077476Y0058382D01*
X0076124Y0058382D01*
X0076124Y0062458D01*
X0070854Y0062458D01*
X0070397Y0062336D01*
X0069986Y0062099D01*
X0069651Y0061763D01*
X0069414Y0061353D01*
X0069291Y0060895D01*
X0069291Y0058382D01*
X0076124Y0058382D01*
X0076124Y0057029D01*
X0069291Y0057029D01*
X0069291Y0054516D01*
X0069414Y0054058D01*
X0069651Y0053648D01*
X0069986Y0053312D01*
X0070397Y0053075D01*
X0070256Y0053157D02*
X0014400Y0053157D01*
X0014400Y0054755D02*
X0069291Y0054755D01*
X0069291Y0056354D02*
X0014400Y0056354D01*
X0014400Y0057952D02*
X0020859Y0057952D01*
X0021081Y0057731D02*
X0022845Y0057000D01*
X0030755Y0057000D01*
X0032519Y0057731D01*
X0033869Y0059081D01*
X0034600Y0060845D01*
X0034600Y0062755D01*
X0033869Y0064519D01*
X0032519Y0065869D01*
X0030755Y0066600D01*
X0022845Y0066600D01*
X0021081Y0065869D01*
X0019731Y0064519D01*
X0019000Y0062755D01*
X0019000Y0060845D01*
X0019731Y0059081D01*
X0021081Y0057731D01*
X0019536Y0059551D02*
X0014400Y0059551D01*
X0014400Y0061149D02*
X0019000Y0061149D01*
X0019000Y0062748D02*
X0014400Y0062748D01*
X0014400Y0064346D02*
X0019659Y0064346D01*
X0021264Y0065945D02*
X0014400Y0065945D01*
X0014400Y0067543D02*
X0021533Y0067543D01*
X0021081Y0067731D02*
X0022845Y0067000D01*
X0030755Y0067000D01*
X0032519Y0067731D01*
X0033869Y0069081D01*
X0034600Y0070845D01*
X0034600Y0072755D01*
X0033869Y0074519D01*
X0032519Y0075869D01*
X0030755Y0076600D01*
X0022845Y0076600D01*
X0021081Y0075869D01*
X0019731Y0074519D01*
X0019000Y0072755D01*
X0019000Y0070845D01*
X0019731Y0069081D01*
X0021081Y0067731D01*
X0019706Y0069142D02*
X0014400Y0069142D01*
X0014400Y0070740D02*
X0019043Y0070740D01*
X0019000Y0072339D02*
X0014400Y0072339D01*
X0014400Y0073937D02*
X0019490Y0073937D01*
X0020748Y0075536D02*
X0014400Y0075536D01*
X0014400Y0077134D02*
X0022520Y0077134D01*
X0022845Y0077000D02*
X0030755Y0077000D01*
X0032519Y0077731D01*
X0033869Y0079081D01*
X0034600Y0080845D01*
X0034600Y0082755D01*
X0033869Y0084519D01*
X0032519Y0085869D01*
X0030755Y0086600D01*
X0022845Y0086600D01*
X0021081Y0085869D01*
X0019731Y0084519D01*
X0019000Y0082755D01*
X0019000Y0080845D01*
X0019731Y0079081D01*
X0021081Y0077731D01*
X0022845Y0077000D01*
X0020079Y0078733D02*
X0014400Y0078733D01*
X0014400Y0080332D02*
X0019213Y0080332D01*
X0019000Y0081930D02*
X0014400Y0081930D01*
X0014400Y0083529D02*
X0019321Y0083529D01*
X0020339Y0085127D02*
X0014400Y0085127D01*
X0014400Y0086726D02*
X0092493Y0086726D01*
X0094092Y0088324D02*
X0033112Y0088324D01*
X0032519Y0087731D02*
X0030755Y0087000D01*
X0022845Y0087000D01*
X0021081Y0087731D01*
X0019731Y0089081D01*
X0019000Y0090845D01*
X0019000Y0092755D01*
X0019731Y0094519D01*
X0021081Y0095869D01*
X0022845Y0096600D01*
X0030755Y0096600D01*
X0032519Y0095869D01*
X0033869Y0094519D01*
X0034600Y0092755D01*
X0034600Y0090845D01*
X0033869Y0089081D01*
X0032519Y0087731D01*
X0034218Y0089923D02*
X0098127Y0089923D01*
X0098424Y0091521D02*
X0034600Y0091521D01*
X0034449Y0093120D02*
X0095748Y0093120D01*
X0094149Y0094718D02*
X0033670Y0094718D01*
X0031439Y0096317D02*
X0092551Y0096317D01*
X0093638Y0096317D02*
X0094995Y0096317D01*
X0095237Y0097915D02*
X0096439Y0097915D01*
X0096593Y0097915D02*
X0097795Y0097915D01*
X0098037Y0096317D02*
X0099394Y0096317D01*
X0099636Y0094718D02*
X0100675Y0094718D01*
X0101316Y0096317D02*
X0102274Y0096317D01*
X0102353Y0097915D02*
X0103352Y0097915D01*
X0105800Y0098800D02*
X0113800Y0090800D01*
X0109361Y0086204D01*
X0116800Y0078764D01*
X0116800Y0031800D01*
X0101800Y0031800D01*
X0101800Y0039599D01*
X0106000Y0040369D02*
X0106699Y0040369D01*
X0106699Y0041967D02*
X0106000Y0041967D01*
X0106000Y0043566D02*
X0106699Y0043566D01*
X0107119Y0045164D02*
X0105580Y0045164D01*
X0110499Y0045164D02*
X0111298Y0045164D01*
X0111298Y0043566D02*
X0110499Y0043566D01*
X0110499Y0041967D02*
X0111298Y0041967D01*
X0111298Y0040369D02*
X0110499Y0040369D01*
X0106699Y0038770D02*
X0106000Y0038770D01*
X0106000Y0037172D02*
X0106699Y0037172D01*
X0106699Y0035573D02*
X0106000Y0035573D01*
X0101800Y0031800D02*
X0079036Y0031800D01*
X0076800Y0029564D01*
X0076800Y0021800D01*
X0072000Y0021187D02*
X0071600Y0021187D01*
X0071600Y0022785D02*
X0072000Y0022785D01*
X0072000Y0024384D02*
X0071600Y0024384D01*
X0071506Y0025982D02*
X0072094Y0025982D01*
X0072792Y0027581D02*
X0070808Y0027581D01*
X0069400Y0029179D02*
X0074200Y0029179D01*
X0074489Y0030778D02*
X0069400Y0030778D01*
X0069400Y0032376D02*
X0075935Y0032376D01*
X0077534Y0033975D02*
X0069400Y0033975D01*
X0069400Y0035573D02*
X0088502Y0035573D01*
X0092702Y0039599D02*
X0076800Y0039599D01*
X0069599Y0039599D01*
X0066800Y0036800D01*
X0066800Y0021800D01*
X0071600Y0019588D02*
X0072000Y0019588D01*
X0072000Y0017990D02*
X0071600Y0017990D01*
X0070998Y0016391D02*
X0072602Y0016391D01*
X0074019Y0014793D02*
X0069581Y0014793D01*
X0079581Y0014793D02*
X0084019Y0014793D01*
X0082602Y0016391D02*
X0080998Y0016391D01*
X0081600Y0017990D02*
X0082000Y0017990D01*
X0082000Y0019588D02*
X0081600Y0019588D01*
X0081600Y0021187D02*
X0082000Y0021187D01*
X0082000Y0022785D02*
X0081600Y0022785D01*
X0081600Y0024384D02*
X0082000Y0024384D01*
X0082094Y0025982D02*
X0081506Y0025982D01*
X0080808Y0027581D02*
X0082792Y0027581D01*
X0084829Y0029179D02*
X0080092Y0029179D01*
X0088771Y0029179D02*
X0094829Y0029179D01*
X0092792Y0027581D02*
X0090808Y0027581D01*
X0091506Y0025982D02*
X0092094Y0025982D01*
X0092000Y0024384D02*
X0091600Y0024384D01*
X0091600Y0022785D02*
X0092000Y0022785D01*
X0092000Y0021187D02*
X0091600Y0021187D01*
X0091600Y0019588D02*
X0092000Y0019588D01*
X0092000Y0017990D02*
X0091600Y0017990D01*
X0090998Y0016391D02*
X0092602Y0016391D01*
X0094019Y0014793D02*
X0089581Y0014793D01*
X0099581Y0014793D02*
X0104019Y0014793D01*
X0102602Y0016391D02*
X0100998Y0016391D01*
X0101600Y0017990D02*
X0102000Y0017990D01*
X0102000Y0019588D02*
X0101600Y0019588D01*
X0101600Y0021187D02*
X0102000Y0021187D01*
X0102000Y0022785D02*
X0101600Y0022785D01*
X0101600Y0024384D02*
X0102000Y0024384D01*
X0102094Y0025982D02*
X0101506Y0025982D01*
X0100808Y0027581D02*
X0102792Y0027581D01*
X0104829Y0029179D02*
X0098771Y0029179D01*
X0097600Y0035573D02*
X0096901Y0035573D01*
X0096901Y0037172D02*
X0097600Y0037172D01*
X0097600Y0038770D02*
X0096901Y0038770D01*
X0096901Y0040369D02*
X0097600Y0040369D01*
X0097600Y0041967D02*
X0096901Y0041967D01*
X0096901Y0043566D02*
X0097600Y0043566D01*
X0098020Y0045164D02*
X0096481Y0045164D01*
X0088922Y0045164D02*
X0084309Y0045164D01*
X0084309Y0043566D02*
X0088502Y0043566D01*
X0084309Y0046763D02*
X0114200Y0046763D01*
X0114200Y0048361D02*
X0084309Y0048361D01*
X0083942Y0049960D02*
X0114200Y0049960D01*
X0114200Y0051558D02*
X0014400Y0051558D01*
X0032336Y0065945D02*
X0092913Y0065945D01*
X0092913Y0067543D02*
X0032067Y0067543D01*
X0033894Y0069142D02*
X0092978Y0069142D01*
X0092913Y0069077D02*
X0093968Y0070131D01*
X0109632Y0070131D01*
X0110687Y0069077D01*
X0110687Y0058924D01*
X0109632Y0057870D01*
X0093968Y0057870D01*
X0092913Y0058924D01*
X0092913Y0069077D01*
X0092913Y0064346D02*
X0033941Y0064346D01*
X0034600Y0062748D02*
X0092913Y0062748D01*
X0092913Y0061149D02*
X0084241Y0061149D01*
X0084186Y0061353D02*
X0083949Y0061763D01*
X0083614Y0062099D01*
X0083203Y0062336D01*
X0082746Y0062458D01*
X0077476Y0062458D01*
X0077476Y0058382D01*
X0084309Y0058382D01*
X0084309Y0060895D01*
X0084186Y0061353D01*
X0084309Y0059551D02*
X0092913Y0059551D01*
X0093886Y0057952D02*
X0077476Y0057952D01*
X0076124Y0057952D02*
X0032741Y0057952D01*
X0034064Y0059551D02*
X0069291Y0059551D01*
X0069359Y0061149D02*
X0034600Y0061149D01*
X0034557Y0070740D02*
X0114200Y0070740D01*
X0114200Y0069142D02*
X0110622Y0069142D01*
X0110687Y0067543D02*
X0114200Y0067543D01*
X0114200Y0065945D02*
X0110687Y0065945D01*
X0110687Y0064346D02*
X0114200Y0064346D01*
X0114200Y0062748D02*
X0110687Y0062748D01*
X0110687Y0061149D02*
X0114200Y0061149D01*
X0114200Y0059551D02*
X0110687Y0059551D01*
X0109714Y0057952D02*
X0114200Y0057952D01*
X0114200Y0056354D02*
X0084309Y0056354D01*
X0084309Y0054755D02*
X0114200Y0054755D01*
X0114200Y0053157D02*
X0083344Y0053157D01*
X0077476Y0053157D02*
X0076124Y0053157D01*
X0076124Y0054755D02*
X0077476Y0054755D01*
X0077476Y0056354D02*
X0076124Y0056354D01*
X0076124Y0059551D02*
X0077476Y0059551D01*
X0077476Y0061149D02*
X0076124Y0061149D01*
X0076800Y0045894D02*
X0076800Y0039599D01*
X0108771Y0029179D02*
X0114829Y0029179D01*
X0112792Y0027581D02*
X0110808Y0027581D01*
X0111506Y0025982D02*
X0112094Y0025982D01*
X0112000Y0024384D02*
X0111600Y0024384D01*
X0111600Y0022785D02*
X0112000Y0022785D01*
X0112000Y0021187D02*
X0111600Y0021187D01*
X0111600Y0019588D02*
X0112000Y0019588D01*
X0112000Y0017990D02*
X0111600Y0017990D01*
X0110998Y0016391D02*
X0112602Y0016391D01*
X0114019Y0014793D02*
X0109581Y0014793D01*
X0116800Y0014628D02*
X0116800Y0021800D01*
X0116800Y0014628D02*
X0119628Y0011800D01*
X0169300Y0011800D01*
X0171800Y0014300D01*
X0171800Y0026800D01*
X0166800Y0031800D01*
X0169815Y0035573D02*
X0173785Y0035573D01*
X0172186Y0033975D02*
X0171414Y0033975D01*
X0171600Y0032376D02*
X0172000Y0032376D01*
X0172000Y0030778D02*
X0171600Y0030778D01*
X0176600Y0030778D02*
X0177000Y0030778D01*
X0177000Y0032376D02*
X0176600Y0032376D01*
X0176600Y0033975D02*
X0177000Y0033975D01*
X0177000Y0035573D02*
X0176600Y0035573D01*
X0179815Y0035573D02*
X0189200Y0035573D01*
X0189200Y0033975D02*
X0181414Y0033975D01*
X0181600Y0032376D02*
X0189200Y0032376D01*
X0189200Y0030778D02*
X0181600Y0030778D01*
X0180967Y0029179D02*
X0189200Y0029179D01*
X0189200Y0027581D02*
X0179369Y0027581D01*
X0179406Y0025982D02*
X0189200Y0025982D01*
X0189200Y0024384D02*
X0181005Y0024384D01*
X0181600Y0022785D02*
X0189200Y0022785D01*
X0189200Y0021187D02*
X0181600Y0021187D01*
X0181376Y0019588D02*
X0189200Y0019588D01*
X0189200Y0017990D02*
X0179778Y0017990D01*
X0174400Y0016391D02*
X0189200Y0016391D01*
X0189200Y0014793D02*
X0174400Y0014793D01*
X0174156Y0013194D02*
X0189200Y0013194D01*
X0189180Y0011596D02*
X0172772Y0011596D01*
X0171174Y0009997D02*
X0188326Y0009997D01*
X0169200Y0016391D02*
X0140998Y0016391D01*
X0141600Y0017990D02*
X0153822Y0017990D01*
X0154812Y0017000D02*
X0152000Y0019812D01*
X0152000Y0023788D01*
X0154812Y0026600D01*
X0158788Y0026600D01*
X0161600Y0023788D01*
X0161600Y0019812D01*
X0158788Y0017000D01*
X0154812Y0017000D01*
X0152224Y0019588D02*
X0141600Y0019588D01*
X0141600Y0021187D02*
X0152000Y0021187D01*
X0152000Y0022785D02*
X0141600Y0022785D01*
X0141600Y0024384D02*
X0152595Y0024384D01*
X0154194Y0025982D02*
X0141506Y0025982D01*
X0140808Y0027581D02*
X0154231Y0027581D01*
X0152633Y0029179D02*
X0138771Y0029179D01*
X0144200Y0035573D02*
X0129400Y0035573D01*
X0129400Y0037172D02*
X0144200Y0037172D01*
X0144200Y0038770D02*
X0129400Y0038770D01*
X0129400Y0040369D02*
X0144200Y0040369D01*
X0144200Y0041967D02*
X0134080Y0041967D01*
X0134309Y0043566D02*
X0144200Y0043566D01*
X0144200Y0045164D02*
X0134309Y0045164D01*
X0134309Y0046763D02*
X0144200Y0046763D01*
X0144200Y0048361D02*
X0134309Y0048361D01*
X0133942Y0049960D02*
X0144200Y0049960D01*
X0144200Y0051558D02*
X0119400Y0051558D01*
X0119400Y0049960D02*
X0119658Y0049960D01*
X0119400Y0053157D02*
X0120256Y0053157D01*
X0126124Y0053157D02*
X0127476Y0053157D01*
X0127476Y0054755D02*
X0126124Y0054755D01*
X0126124Y0056354D02*
X0127476Y0056354D01*
X0127476Y0057952D02*
X0144200Y0057952D01*
X0144200Y0056354D02*
X0134309Y0056354D01*
X0134309Y0054755D02*
X0144200Y0054755D01*
X0144200Y0053157D02*
X0133344Y0053157D01*
X0134309Y0059551D02*
X0144200Y0059551D01*
X0144200Y0061149D02*
X0134241Y0061149D01*
X0127476Y0061149D02*
X0126124Y0061149D01*
X0126124Y0059551D02*
X0127476Y0059551D01*
X0119400Y0062748D02*
X0144200Y0062748D01*
X0144200Y0064346D02*
X0119400Y0064346D01*
X0119400Y0065945D02*
X0144200Y0065945D01*
X0144200Y0067543D02*
X0119400Y0067543D01*
X0119400Y0069142D02*
X0144200Y0069142D01*
X0144200Y0070740D02*
X0119400Y0070740D01*
X0119400Y0072339D02*
X0144200Y0072339D01*
X0144200Y0073937D02*
X0119400Y0073937D01*
X0119400Y0075536D02*
X0144200Y0075536D01*
X0144200Y0077134D02*
X0120337Y0077134D01*
X0119660Y0080307D02*
X0126582Y0080307D01*
X0131800Y0085525D01*
X0131800Y0151800D01*
X0126800Y0156800D01*
X0071800Y0156800D01*
X0066800Y0161800D01*
X0066800Y0171800D01*
X0062000Y0171447D02*
X0014400Y0171447D01*
X0014400Y0173045D02*
X0062000Y0173045D01*
X0062000Y0174644D02*
X0014400Y0174644D01*
X0014400Y0176242D02*
X0062202Y0176242D01*
X0063052Y0177841D02*
X0014400Y0177841D01*
X0014400Y0179439D02*
X0065457Y0179439D01*
X0068143Y0179439D02*
X0075457Y0179439D01*
X0075845Y0179600D02*
X0074081Y0178869D01*
X0072731Y0177519D01*
X0072000Y0175755D01*
X0072000Y0167845D01*
X0072731Y0166081D01*
X0074081Y0164731D01*
X0075845Y0164000D01*
X0077755Y0164000D01*
X0079519Y0164731D01*
X0080869Y0166081D01*
X0081600Y0167845D01*
X0081600Y0175755D01*
X0080869Y0177519D01*
X0079519Y0178869D01*
X0077755Y0179600D01*
X0075845Y0179600D01*
X0078143Y0179439D02*
X0085457Y0179439D01*
X0085845Y0179600D02*
X0084081Y0178869D01*
X0082731Y0177519D01*
X0082000Y0175755D01*
X0082000Y0167845D01*
X0082731Y0166081D01*
X0084081Y0164731D01*
X0085845Y0164000D01*
X0087755Y0164000D01*
X0089519Y0164731D01*
X0090869Y0166081D01*
X0091600Y0167845D01*
X0091600Y0175755D01*
X0090869Y0177519D01*
X0089519Y0178869D01*
X0087755Y0179600D01*
X0085845Y0179600D01*
X0088143Y0179439D02*
X0095457Y0179439D01*
X0095845Y0179600D02*
X0094081Y0178869D01*
X0092731Y0177519D01*
X0092000Y0175755D01*
X0092000Y0167845D01*
X0092731Y0166081D01*
X0094081Y0164731D01*
X0095845Y0164000D01*
X0097755Y0164000D01*
X0099519Y0164731D01*
X0100869Y0166081D01*
X0101600Y0167845D01*
X0101600Y0175755D01*
X0100869Y0177519D01*
X0099519Y0178869D01*
X0097755Y0179600D01*
X0095845Y0179600D01*
X0098143Y0179439D02*
X0105457Y0179439D01*
X0105845Y0179600D02*
X0104081Y0178869D01*
X0102731Y0177519D01*
X0102000Y0175755D01*
X0102000Y0167845D01*
X0102731Y0166081D01*
X0104081Y0164731D01*
X0105845Y0164000D01*
X0107755Y0164000D01*
X0109519Y0164731D01*
X0110869Y0166081D01*
X0111600Y0167845D01*
X0111600Y0175755D01*
X0110869Y0177519D01*
X0109519Y0178869D01*
X0107755Y0179600D01*
X0105845Y0179600D01*
X0103052Y0177841D02*
X0100547Y0177841D01*
X0101398Y0176242D02*
X0102202Y0176242D01*
X0102000Y0174644D02*
X0101600Y0174644D01*
X0101600Y0173045D02*
X0102000Y0173045D01*
X0102000Y0171447D02*
X0101600Y0171447D01*
X0101600Y0169848D02*
X0102000Y0169848D01*
X0102000Y0168250D02*
X0101600Y0168250D01*
X0101105Y0166651D02*
X0102495Y0166651D01*
X0103759Y0165053D02*
X0099841Y0165053D01*
X0093759Y0165053D02*
X0089841Y0165053D01*
X0091105Y0166651D02*
X0092495Y0166651D01*
X0092000Y0168250D02*
X0091600Y0168250D01*
X0091600Y0169848D02*
X0092000Y0169848D01*
X0092000Y0171447D02*
X0091600Y0171447D01*
X0091600Y0173045D02*
X0092000Y0173045D01*
X0092000Y0174644D02*
X0091600Y0174644D01*
X0091398Y0176242D02*
X0092202Y0176242D01*
X0093052Y0177841D02*
X0090547Y0177841D01*
X0083052Y0177841D02*
X0080547Y0177841D01*
X0081398Y0176242D02*
X0082202Y0176242D01*
X0082000Y0174644D02*
X0081600Y0174644D01*
X0081600Y0173045D02*
X0082000Y0173045D01*
X0082000Y0171447D02*
X0081600Y0171447D01*
X0081600Y0169848D02*
X0082000Y0169848D01*
X0082000Y0168250D02*
X0081600Y0168250D01*
X0081105Y0166651D02*
X0082495Y0166651D01*
X0083759Y0165053D02*
X0079841Y0165053D01*
X0073759Y0165053D02*
X0069841Y0165053D01*
X0069400Y0163454D02*
X0144200Y0163454D01*
X0144200Y0161856D02*
X0070421Y0161856D01*
X0072020Y0160257D02*
X0144200Y0160257D01*
X0144200Y0158659D02*
X0128618Y0158659D01*
X0130217Y0157060D02*
X0144200Y0157060D01*
X0144200Y0155462D02*
X0131815Y0155462D01*
X0133414Y0153863D02*
X0144200Y0153863D01*
X0144200Y0152265D02*
X0134400Y0152265D01*
X0134400Y0150666D02*
X0144200Y0150666D01*
X0144200Y0149068D02*
X0134400Y0149068D01*
X0134400Y0147469D02*
X0144200Y0147469D01*
X0144200Y0145870D02*
X0134400Y0145870D01*
X0134400Y0144272D02*
X0144200Y0144272D01*
X0144200Y0142673D02*
X0134400Y0142673D01*
X0134400Y0141075D02*
X0144200Y0141075D01*
X0144200Y0139476D02*
X0134400Y0139476D01*
X0134400Y0137878D02*
X0144200Y0137878D01*
X0144200Y0136279D02*
X0134400Y0136279D01*
X0134400Y0134681D02*
X0144200Y0134681D01*
X0144200Y0133082D02*
X0134400Y0133082D01*
X0134400Y0131484D02*
X0144200Y0131484D01*
X0144200Y0129885D02*
X0134400Y0129885D01*
X0134400Y0128287D02*
X0144200Y0128287D01*
X0144200Y0126688D02*
X0134400Y0126688D01*
X0134400Y0125090D02*
X0144200Y0125090D01*
X0144200Y0123491D02*
X0134400Y0123491D01*
X0134400Y0121893D02*
X0144200Y0121893D01*
X0144200Y0120294D02*
X0134400Y0120294D01*
X0134400Y0118696D02*
X0144200Y0118696D01*
X0144200Y0117097D02*
X0134400Y0117097D01*
X0134400Y0115499D02*
X0144200Y0115499D01*
X0144200Y0113900D02*
X0134400Y0113900D01*
X0134400Y0112302D02*
X0144200Y0112302D01*
X0144200Y0110703D02*
X0134400Y0110703D01*
X0134400Y0109105D02*
X0144200Y0109105D01*
X0144200Y0107506D02*
X0134400Y0107506D01*
X0134400Y0105908D02*
X0144200Y0105908D01*
X0144200Y0104309D02*
X0134400Y0104309D01*
X0134400Y0102711D02*
X0144200Y0102711D01*
X0144200Y0101112D02*
X0134400Y0101112D01*
X0134400Y0099514D02*
X0144200Y0099514D01*
X0144200Y0097915D02*
X0134400Y0097915D01*
X0134400Y0096317D02*
X0144200Y0096317D01*
X0144200Y0094718D02*
X0134400Y0094718D01*
X0134400Y0093120D02*
X0144200Y0093120D01*
X0144200Y0091521D02*
X0134400Y0091521D01*
X0134400Y0089923D02*
X0144200Y0089923D01*
X0144200Y0088324D02*
X0134400Y0088324D01*
X0134400Y0086726D02*
X0144200Y0086726D01*
X0144200Y0085127D02*
X0134400Y0085127D01*
X0133480Y0083529D02*
X0144200Y0083529D01*
X0144200Y0081930D02*
X0131882Y0081930D01*
X0130283Y0080332D02*
X0144200Y0080332D01*
X0144200Y0078733D02*
X0128685Y0078733D01*
X0126126Y0083529D02*
X0115713Y0083529D01*
X0114170Y0085127D02*
X0127725Y0085127D01*
X0129200Y0086726D02*
X0114640Y0086726D01*
X0115023Y0088324D02*
X0129200Y0088324D01*
X0129200Y0089923D02*
X0119155Y0089923D01*
X0120754Y0091521D02*
X0129200Y0091521D01*
X0129200Y0093120D02*
X0122352Y0093120D01*
X0123951Y0094718D02*
X0129200Y0094718D01*
X0129200Y0096317D02*
X0123925Y0096317D01*
X0122327Y0097915D02*
X0129200Y0097915D01*
X0129200Y0099514D02*
X0120728Y0099514D01*
X0118424Y0101112D02*
X0129200Y0101112D01*
X0129200Y0102711D02*
X0117531Y0102711D01*
X0115321Y0102711D02*
X0113965Y0102711D01*
X0113723Y0101112D02*
X0112808Y0101112D01*
X0112366Y0101112D02*
X0111452Y0101112D01*
X0111210Y0102711D02*
X0109853Y0102711D01*
X0108478Y0102711D02*
X0107710Y0102711D01*
X0107921Y0104309D02*
X0110077Y0104309D01*
X0111675Y0105908D02*
X0106425Y0105908D01*
X0104826Y0107506D02*
X0129200Y0107506D01*
X0129200Y0105908D02*
X0114334Y0105908D01*
X0115563Y0104309D02*
X0129200Y0104309D01*
X0129200Y0109105D02*
X0103228Y0109105D01*
X0098833Y0107283D02*
X0102084Y0104084D01*
X0105800Y0100800D01*
X0105800Y0098800D01*
X0099077Y0093120D02*
X0098119Y0093120D01*
X0103704Y0091861D02*
X0098741Y0086848D01*
X0099736Y0087853D01*
X0104300Y0083300D01*
X0107186Y0081930D02*
X0107470Y0081930D01*
X0105471Y0080332D02*
X0111556Y0080332D01*
X0113154Y0078733D02*
X0106069Y0078733D01*
X0106192Y0077134D02*
X0114200Y0077134D01*
X0114200Y0075536D02*
X0104768Y0075536D01*
X0103029Y0075536D02*
X0101673Y0075536D01*
X0101430Y0077134D02*
X0100881Y0077134D01*
X0100074Y0077134D02*
X0099524Y0077134D01*
X0099282Y0075536D02*
X0097926Y0075536D01*
X0097683Y0073937D02*
X0034110Y0073937D01*
X0034600Y0072339D02*
X0098548Y0072339D01*
X0101571Y0072339D02*
X0114200Y0072339D01*
X0114200Y0073937D02*
X0103170Y0073937D01*
X0095351Y0075536D02*
X0032852Y0075536D01*
X0031079Y0077134D02*
X0094641Y0077134D01*
X0092154Y0078733D02*
X0033521Y0078733D01*
X0034387Y0080332D02*
X0090555Y0080332D01*
X0089073Y0081930D02*
X0034600Y0081930D01*
X0034279Y0083529D02*
X0089296Y0083529D01*
X0090895Y0085127D02*
X0033261Y0085127D01*
X0020488Y0088324D02*
X0014400Y0088324D01*
X0014400Y0089923D02*
X0019382Y0089923D01*
X0019000Y0091521D02*
X0014400Y0091521D01*
X0014400Y0093120D02*
X0019151Y0093120D01*
X0019930Y0094718D02*
X0014400Y0094718D01*
X0014400Y0096317D02*
X0022161Y0096317D01*
X0022845Y0097000D02*
X0021081Y0097731D01*
X0019731Y0099081D01*
X0019000Y0100845D01*
X0019000Y0102755D01*
X0019731Y0104519D01*
X0021081Y0105869D01*
X0022845Y0106600D01*
X0030755Y0106600D01*
X0032519Y0105869D01*
X0033869Y0104519D01*
X0034600Y0102755D01*
X0034600Y0100845D01*
X0033869Y0099081D01*
X0032519Y0097731D01*
X0030755Y0097000D01*
X0022845Y0097000D01*
X0020897Y0097915D02*
X0014400Y0097915D01*
X0014400Y0099514D02*
X0019552Y0099514D01*
X0019000Y0101112D02*
X0014400Y0101112D01*
X0014400Y0102711D02*
X0019000Y0102711D01*
X0019644Y0104309D02*
X0014400Y0104309D01*
X0014400Y0105908D02*
X0021174Y0105908D01*
X0021623Y0107506D02*
X0014400Y0107506D01*
X0014400Y0109105D02*
X0019721Y0109105D01*
X0019731Y0109081D02*
X0021081Y0107731D01*
X0022845Y0107000D01*
X0030755Y0107000D01*
X0032519Y0107731D01*
X0033869Y0109081D01*
X0034600Y0110845D01*
X0034600Y0112755D01*
X0033869Y0114519D01*
X0032519Y0115869D01*
X0030755Y0116600D01*
X0022845Y0116600D01*
X0021081Y0115869D01*
X0019731Y0114519D01*
X0019000Y0112755D01*
X0019000Y0110845D01*
X0019731Y0109081D01*
X0019059Y0110703D02*
X0014400Y0110703D01*
X0014400Y0112302D02*
X0019000Y0112302D01*
X0019474Y0113900D02*
X0014400Y0113900D01*
X0014400Y0115499D02*
X0020711Y0115499D01*
X0021081Y0117731D02*
X0022845Y0117000D01*
X0030755Y0117000D01*
X0032519Y0117731D01*
X0033869Y0119081D01*
X0034600Y0120845D01*
X0034600Y0122755D01*
X0033869Y0124519D01*
X0032519Y0125869D01*
X0030755Y0126600D01*
X0022845Y0126600D01*
X0021081Y0125869D01*
X0019731Y0124519D01*
X0019000Y0122755D01*
X0019000Y0120845D01*
X0019731Y0119081D01*
X0021081Y0117731D01*
X0020116Y0118696D02*
X0014400Y0118696D01*
X0014400Y0120294D02*
X0019228Y0120294D01*
X0019000Y0121893D02*
X0014400Y0121893D01*
X0014400Y0123491D02*
X0019305Y0123491D01*
X0020302Y0125090D02*
X0014400Y0125090D01*
X0014400Y0126688D02*
X0129200Y0126688D01*
X0129200Y0125090D02*
X0033298Y0125090D01*
X0034295Y0123491D02*
X0129200Y0123491D01*
X0129200Y0121893D02*
X0034600Y0121893D01*
X0034372Y0120294D02*
X0129200Y0120294D01*
X0129200Y0118696D02*
X0033484Y0118696D01*
X0030990Y0117097D02*
X0129200Y0117097D01*
X0129200Y0115499D02*
X0032889Y0115499D01*
X0034126Y0113900D02*
X0129200Y0113900D01*
X0129200Y0112302D02*
X0034600Y0112302D01*
X0034541Y0110703D02*
X0129200Y0110703D01*
X0118155Y0095087D02*
X0113800Y0090800D01*
X0098741Y0086848D02*
X0094910Y0082977D01*
X0090989Y0097915D02*
X0032703Y0097915D01*
X0034048Y0099514D02*
X0087893Y0099514D01*
X0087404Y0101112D02*
X0034600Y0101112D01*
X0034600Y0102711D02*
X0087715Y0102711D01*
X0089463Y0104309D02*
X0033956Y0104309D01*
X0032426Y0105908D02*
X0091557Y0105908D01*
X0092375Y0107506D02*
X0031977Y0107506D01*
X0033879Y0109105D02*
X0094871Y0109105D01*
X0096748Y0107302D02*
X0098833Y0107283D01*
X0096748Y0107302D02*
X0095094Y0105733D01*
X0090594Y0101325D01*
X0129200Y0128287D02*
X0033075Y0128287D01*
X0032927Y0128139D02*
X0033461Y0128673D01*
X0033905Y0129284D01*
X0034248Y0129957D01*
X0034482Y0130676D01*
X0034600Y0131422D01*
X0034600Y0131600D01*
X0027000Y0131600D01*
X0027000Y0132000D01*
X0026600Y0132000D01*
X0026600Y0136600D01*
X0023422Y0136600D01*
X0022676Y0136482D01*
X0021957Y0136248D01*
X0021284Y0135905D01*
X0020673Y0135461D01*
X0020139Y0134927D01*
X0019695Y0134316D01*
X0019352Y0133643D01*
X0019118Y0132924D01*
X0019000Y0132178D01*
X0019000Y0132000D01*
X0026600Y0132000D01*
X0026600Y0131600D01*
X0027000Y0131600D01*
X0027000Y0127000D01*
X0030178Y0127000D01*
X0030924Y0127118D01*
X0031643Y0127352D01*
X0032316Y0127695D01*
X0032927Y0128139D01*
X0034212Y0129885D02*
X0129200Y0129885D01*
X0129200Y0131484D02*
X0034600Y0131484D01*
X0034600Y0132000D02*
X0034600Y0132178D01*
X0034482Y0132924D01*
X0034248Y0133643D01*
X0033905Y0134316D01*
X0033461Y0134927D01*
X0032927Y0135461D01*
X0032316Y0135905D01*
X0031643Y0136248D01*
X0030924Y0136482D01*
X0030178Y0136600D01*
X0027000Y0136600D01*
X0027000Y0132000D01*
X0034600Y0132000D01*
X0034430Y0133082D02*
X0129200Y0133082D01*
X0129200Y0134681D02*
X0033640Y0134681D01*
X0031547Y0136279D02*
X0129200Y0136279D01*
X0129200Y0137878D02*
X0014400Y0137878D01*
X0014400Y0139476D02*
X0129200Y0139476D01*
X0129200Y0141075D02*
X0014400Y0141075D01*
X0014400Y0142673D02*
X0129200Y0142673D01*
X0129200Y0144272D02*
X0014400Y0144272D01*
X0014400Y0145870D02*
X0129200Y0145870D01*
X0129200Y0147469D02*
X0014400Y0147469D01*
X0014400Y0149068D02*
X0129200Y0149068D01*
X0129200Y0150666D02*
X0014400Y0150666D01*
X0014400Y0152265D02*
X0127659Y0152265D01*
X0126060Y0153863D02*
X0014400Y0153863D01*
X0014400Y0155462D02*
X0069461Y0155462D01*
X0067863Y0157060D02*
X0014400Y0157060D01*
X0014400Y0158659D02*
X0066264Y0158659D01*
X0064666Y0160257D02*
X0014400Y0160257D01*
X0014400Y0161856D02*
X0064200Y0161856D01*
X0064200Y0163454D02*
X0014400Y0163454D01*
X0014400Y0165053D02*
X0063759Y0165053D01*
X0062495Y0166651D02*
X0014400Y0166651D01*
X0014400Y0168250D02*
X0062000Y0168250D01*
X0062000Y0169848D02*
X0014400Y0169848D01*
X0014400Y0181038D02*
X0189200Y0181038D01*
X0189200Y0179439D02*
X0138143Y0179439D01*
X0137755Y0179600D02*
X0135845Y0179600D01*
X0134081Y0178869D01*
X0132731Y0177519D01*
X0132000Y0175755D01*
X0132000Y0167845D01*
X0132731Y0166081D01*
X0134081Y0164731D01*
X0135845Y0164000D01*
X0137755Y0164000D01*
X0139519Y0164731D01*
X0140869Y0166081D01*
X0141600Y0167845D01*
X0141600Y0175755D01*
X0140869Y0177519D01*
X0139519Y0178869D01*
X0137755Y0179600D01*
X0135457Y0179439D02*
X0128143Y0179439D01*
X0127755Y0179600D02*
X0125845Y0179600D01*
X0124081Y0178869D01*
X0122731Y0177519D01*
X0122000Y0175755D01*
X0122000Y0167845D01*
X0122731Y0166081D01*
X0124081Y0164731D01*
X0125845Y0164000D01*
X0127755Y0164000D01*
X0129519Y0164731D01*
X0130869Y0166081D01*
X0131600Y0167845D01*
X0131600Y0175755D01*
X0130869Y0177519D01*
X0129519Y0178869D01*
X0127755Y0179600D01*
X0125457Y0179439D02*
X0118143Y0179439D01*
X0117755Y0179600D02*
X0119519Y0178869D01*
X0120869Y0177519D01*
X0121600Y0175755D01*
X0121600Y0167845D01*
X0120869Y0166081D01*
X0119519Y0164731D01*
X0117755Y0164000D01*
X0115845Y0164000D01*
X0114081Y0164731D01*
X0112731Y0166081D01*
X0112000Y0167845D01*
X0112000Y0175755D01*
X0112731Y0177519D01*
X0114081Y0178869D01*
X0115845Y0179600D01*
X0117755Y0179600D01*
X0115457Y0179439D02*
X0108143Y0179439D01*
X0110547Y0177841D02*
X0113052Y0177841D01*
X0112202Y0176242D02*
X0111398Y0176242D01*
X0111600Y0174644D02*
X0112000Y0174644D01*
X0112000Y0173045D02*
X0111600Y0173045D01*
X0111600Y0171447D02*
X0112000Y0171447D01*
X0112000Y0169848D02*
X0111600Y0169848D01*
X0111600Y0168250D02*
X0112000Y0168250D01*
X0112495Y0166651D02*
X0111105Y0166651D01*
X0109841Y0165053D02*
X0113759Y0165053D01*
X0119841Y0165053D02*
X0123759Y0165053D01*
X0122495Y0166651D02*
X0121105Y0166651D01*
X0121600Y0168250D02*
X0122000Y0168250D01*
X0122000Y0169848D02*
X0121600Y0169848D01*
X0121600Y0171447D02*
X0122000Y0171447D01*
X0122000Y0173045D02*
X0121600Y0173045D01*
X0121600Y0174644D02*
X0122000Y0174644D01*
X0122202Y0176242D02*
X0121398Y0176242D01*
X0120547Y0177841D02*
X0123052Y0177841D01*
X0130547Y0177841D02*
X0133052Y0177841D01*
X0132202Y0176242D02*
X0131398Y0176242D01*
X0131600Y0174644D02*
X0132000Y0174644D01*
X0132000Y0173045D02*
X0131600Y0173045D01*
X0131600Y0171447D02*
X0132000Y0171447D01*
X0132000Y0169848D02*
X0131600Y0169848D01*
X0131600Y0168250D02*
X0132000Y0168250D01*
X0132495Y0166651D02*
X0131105Y0166651D01*
X0129841Y0165053D02*
X0133759Y0165053D01*
X0139841Y0165053D02*
X0144070Y0165053D01*
X0143609Y0166651D02*
X0141105Y0166651D01*
X0141600Y0168250D02*
X0143947Y0168250D01*
X0145822Y0169848D02*
X0141600Y0169848D01*
X0141600Y0171447D02*
X0156161Y0171447D01*
X0156161Y0170075D02*
X0161320Y0170075D01*
X0161320Y0169116D01*
X0156161Y0169116D01*
X0156161Y0165313D01*
X0156300Y0164436D01*
X0156575Y0163592D01*
X0156977Y0162801D01*
X0157499Y0162083D01*
X0158127Y0161456D01*
X0158845Y0160934D01*
X0159636Y0160531D01*
X0160480Y0160257D01*
X0161320Y0160124D01*
X0161320Y0169116D01*
X0162280Y0169116D01*
X0162280Y0170075D01*
X0167439Y0170075D01*
X0167439Y0173878D01*
X0167300Y0174754D01*
X0167025Y0175598D01*
X0166623Y0176389D01*
X0166101Y0177107D01*
X0165473Y0177735D01*
X0164755Y0178256D01*
X0163964Y0178659D01*
X0163120Y0178934D01*
X0162280Y0179067D01*
X0162280Y0170075D01*
X0161320Y0170075D01*
X0161320Y0179067D01*
X0160480Y0178934D01*
X0159636Y0178659D01*
X0158845Y0178256D01*
X0158127Y0177735D01*
X0157499Y0177107D01*
X0156977Y0176389D01*
X0156575Y0175598D01*
X0156300Y0174754D01*
X0156161Y0173878D01*
X0156161Y0170075D01*
X0156161Y0168250D02*
X0149653Y0168250D01*
X0149991Y0166651D02*
X0156161Y0166651D01*
X0156203Y0165053D02*
X0149530Y0165053D01*
X0149400Y0163454D02*
X0156645Y0163454D01*
X0157727Y0161856D02*
X0149400Y0161856D01*
X0149400Y0160257D02*
X0160479Y0160257D01*
X0161320Y0160257D02*
X0162280Y0160257D01*
X0162280Y0160124D02*
X0163120Y0160257D01*
X0163964Y0160531D01*
X0164755Y0160934D01*
X0165473Y0161456D01*
X0166101Y0162083D01*
X0166623Y0162801D01*
X0167025Y0163592D01*
X0167300Y0164436D01*
X0167439Y0165313D01*
X0167439Y0169116D01*
X0162280Y0169116D01*
X0162280Y0160124D01*
X0163121Y0160257D02*
X0189200Y0160257D01*
X0189200Y0158659D02*
X0149400Y0158659D01*
X0149400Y0157060D02*
X0189200Y0157060D01*
X0189200Y0155462D02*
X0149400Y0155462D01*
X0149400Y0153863D02*
X0189200Y0153863D01*
X0189200Y0152265D02*
X0165353Y0152265D01*
X0164994Y0152623D02*
X0162922Y0153482D01*
X0160678Y0153482D01*
X0158606Y0152623D01*
X0157020Y0151037D01*
X0156161Y0148965D01*
X0156161Y0139045D01*
X0157020Y0136972D01*
X0158606Y0135386D01*
X0160678Y0134528D01*
X0162922Y0134528D01*
X0164994Y0135386D01*
X0166580Y0136972D01*
X0167439Y0139045D01*
X0167439Y0148965D01*
X0166580Y0151037D01*
X0164994Y0152623D01*
X0166734Y0150666D02*
X0189200Y0150666D01*
X0189200Y0149068D02*
X0167396Y0149068D01*
X0167439Y0147469D02*
X0189200Y0147469D01*
X0189200Y0145870D02*
X0167439Y0145870D01*
X0167439Y0144272D02*
X0189200Y0144272D01*
X0189200Y0142673D02*
X0167439Y0142673D01*
X0167439Y0141075D02*
X0189200Y0141075D01*
X0189200Y0139476D02*
X0167439Y0139476D01*
X0166955Y0137878D02*
X0189200Y0137878D01*
X0189200Y0136279D02*
X0181529Y0136279D01*
X0180755Y0136600D02*
X0182519Y0135869D01*
X0183869Y0134519D01*
X0184600Y0132755D01*
X0184600Y0130845D01*
X0183869Y0129081D01*
X0182519Y0127731D01*
X0180755Y0127000D01*
X0172845Y0127000D01*
X0171081Y0127731D01*
X0169731Y0129081D01*
X0169000Y0130845D01*
X0169000Y0132755D01*
X0169731Y0134519D01*
X0171081Y0135869D01*
X0172845Y0136600D01*
X0180755Y0136600D01*
X0183707Y0134681D02*
X0189200Y0134681D01*
X0189200Y0133082D02*
X0184464Y0133082D01*
X0184600Y0131484D02*
X0189200Y0131484D01*
X0189200Y0129885D02*
X0184202Y0129885D01*
X0183075Y0128287D02*
X0189200Y0128287D01*
X0189200Y0126688D02*
X0149400Y0126688D01*
X0149400Y0125090D02*
X0170302Y0125090D01*
X0169731Y0124519D02*
X0169000Y0122755D01*
X0169000Y0120845D01*
X0169731Y0119081D01*
X0171081Y0117731D01*
X0172845Y0117000D01*
X0180755Y0117000D01*
X0182519Y0117731D01*
X0183869Y0119081D01*
X0184600Y0120845D01*
X0184600Y0122755D01*
X0183869Y0124519D01*
X0182519Y0125869D01*
X0180755Y0126600D01*
X0172845Y0126600D01*
X0171081Y0125869D01*
X0169731Y0124519D01*
X0169305Y0123491D02*
X0149400Y0123491D01*
X0149400Y0121893D02*
X0169000Y0121893D01*
X0169228Y0120294D02*
X0149400Y0120294D01*
X0149400Y0118696D02*
X0170116Y0118696D01*
X0172610Y0117097D02*
X0149400Y0117097D01*
X0149400Y0115499D02*
X0170711Y0115499D01*
X0171081Y0115869D02*
X0169731Y0114519D01*
X0169000Y0112755D01*
X0169000Y0110845D01*
X0169731Y0109081D01*
X0171081Y0107731D01*
X0172845Y0107000D01*
X0180755Y0107000D01*
X0182519Y0107731D01*
X0183869Y0109081D01*
X0184600Y0110845D01*
X0184600Y0112755D01*
X0183869Y0114519D01*
X0182519Y0115869D01*
X0180755Y0116600D01*
X0172845Y0116600D01*
X0171081Y0115869D01*
X0169474Y0113900D02*
X0149400Y0113900D01*
X0149400Y0112302D02*
X0169000Y0112302D01*
X0169059Y0110703D02*
X0149400Y0110703D01*
X0149400Y0109105D02*
X0169721Y0109105D01*
X0171623Y0107506D02*
X0149400Y0107506D01*
X0149400Y0105908D02*
X0171174Y0105908D01*
X0171081Y0105869D02*
X0169731Y0104519D01*
X0169000Y0102755D01*
X0169000Y0100845D01*
X0169731Y0099081D01*
X0171081Y0097731D01*
X0172845Y0097000D01*
X0180755Y0097000D01*
X0182519Y0097731D01*
X0183869Y0099081D01*
X0184600Y0100845D01*
X0184600Y0102755D01*
X0183869Y0104519D01*
X0182519Y0105869D01*
X0180755Y0106600D01*
X0172845Y0106600D01*
X0171081Y0105869D01*
X0169644Y0104309D02*
X0149400Y0104309D01*
X0149400Y0102711D02*
X0169000Y0102711D01*
X0169000Y0101112D02*
X0149400Y0101112D01*
X0149400Y0099514D02*
X0169552Y0099514D01*
X0170897Y0097915D02*
X0149400Y0097915D01*
X0149400Y0096317D02*
X0172161Y0096317D01*
X0172845Y0096600D02*
X0171081Y0095869D01*
X0169731Y0094519D01*
X0169000Y0092755D01*
X0169000Y0090845D01*
X0169731Y0089081D01*
X0171081Y0087731D01*
X0172845Y0087000D01*
X0180755Y0087000D01*
X0182519Y0087731D01*
X0183869Y0089081D01*
X0184600Y0090845D01*
X0184600Y0092755D01*
X0183869Y0094519D01*
X0182519Y0095869D01*
X0180755Y0096600D01*
X0172845Y0096600D01*
X0169930Y0094718D02*
X0149400Y0094718D01*
X0149400Y0093120D02*
X0169151Y0093120D01*
X0169000Y0091521D02*
X0149400Y0091521D01*
X0149400Y0089923D02*
X0169382Y0089923D01*
X0170488Y0088324D02*
X0149400Y0088324D01*
X0149400Y0086726D02*
X0189200Y0086726D01*
X0189200Y0088324D02*
X0183112Y0088324D01*
X0184218Y0089923D02*
X0189200Y0089923D01*
X0189200Y0091521D02*
X0184600Y0091521D01*
X0184449Y0093120D02*
X0189200Y0093120D01*
X0189200Y0094718D02*
X0183670Y0094718D01*
X0181439Y0096317D02*
X0189200Y0096317D01*
X0189200Y0097915D02*
X0182703Y0097915D01*
X0184048Y0099514D02*
X0189200Y0099514D01*
X0189200Y0101112D02*
X0184600Y0101112D01*
X0184600Y0102711D02*
X0189200Y0102711D01*
X0189200Y0104309D02*
X0183956Y0104309D01*
X0182426Y0105908D02*
X0189200Y0105908D01*
X0189200Y0107506D02*
X0181977Y0107506D01*
X0183879Y0109105D02*
X0189200Y0109105D01*
X0189200Y0110703D02*
X0184541Y0110703D01*
X0184600Y0112302D02*
X0189200Y0112302D01*
X0189200Y0113900D02*
X0184126Y0113900D01*
X0182889Y0115499D02*
X0189200Y0115499D01*
X0189200Y0117097D02*
X0180990Y0117097D01*
X0183484Y0118696D02*
X0189200Y0118696D01*
X0189200Y0120294D02*
X0184372Y0120294D01*
X0184600Y0121893D02*
X0189200Y0121893D01*
X0189200Y0123491D02*
X0184295Y0123491D01*
X0183298Y0125090D02*
X0189200Y0125090D01*
X0172071Y0136279D02*
X0165887Y0136279D01*
X0163292Y0134681D02*
X0169893Y0134681D01*
X0169136Y0133082D02*
X0149400Y0133082D01*
X0149400Y0131484D02*
X0169000Y0131484D01*
X0169398Y0129885D02*
X0149400Y0129885D01*
X0149400Y0128287D02*
X0170525Y0128287D01*
X0160308Y0134681D02*
X0149400Y0134681D01*
X0149400Y0136279D02*
X0157713Y0136279D01*
X0156645Y0137878D02*
X0149400Y0137878D01*
X0149400Y0139476D02*
X0156161Y0139476D01*
X0156161Y0141075D02*
X0149400Y0141075D01*
X0149400Y0142673D02*
X0156161Y0142673D01*
X0156161Y0144272D02*
X0149400Y0144272D01*
X0149400Y0145870D02*
X0156161Y0145870D01*
X0156161Y0147469D02*
X0149400Y0147469D01*
X0149400Y0149068D02*
X0156204Y0149068D01*
X0156866Y0150666D02*
X0149400Y0150666D01*
X0149400Y0152265D02*
X0158247Y0152265D01*
X0161320Y0161856D02*
X0162280Y0161856D01*
X0162280Y0163454D02*
X0161320Y0163454D01*
X0161320Y0165053D02*
X0162280Y0165053D01*
X0162280Y0166651D02*
X0161320Y0166651D01*
X0161320Y0168250D02*
X0162280Y0168250D01*
X0162280Y0169848D02*
X0189200Y0169848D01*
X0189200Y0168250D02*
X0167439Y0168250D01*
X0167439Y0166651D02*
X0189200Y0166651D01*
X0189200Y0165053D02*
X0167397Y0165053D01*
X0166955Y0163454D02*
X0189200Y0163454D01*
X0189200Y0161856D02*
X0165873Y0161856D01*
X0161320Y0169848D02*
X0147778Y0169848D01*
X0146800Y0166800D02*
X0146800Y0031800D01*
X0126800Y0031800D01*
X0126800Y0045894D01*
X0126800Y0031800D02*
X0116800Y0031800D01*
X0117754Y0009997D02*
X0015274Y0009997D01*
X0014400Y0117097D02*
X0022610Y0117097D01*
X0023422Y0127000D02*
X0026600Y0127000D01*
X0026600Y0131600D01*
X0019000Y0131600D01*
X0019000Y0131422D01*
X0019118Y0130676D01*
X0019352Y0129957D01*
X0019695Y0129284D01*
X0020139Y0128673D01*
X0020673Y0128139D01*
X0021284Y0127695D01*
X0021957Y0127352D01*
X0022676Y0127118D01*
X0023422Y0127000D01*
X0020525Y0128287D02*
X0014400Y0128287D01*
X0014400Y0129885D02*
X0019388Y0129885D01*
X0019000Y0131484D02*
X0014400Y0131484D01*
X0014400Y0133082D02*
X0019170Y0133082D01*
X0019960Y0134681D02*
X0014400Y0134681D01*
X0014400Y0136279D02*
X0022053Y0136279D01*
X0026600Y0136279D02*
X0027000Y0136279D01*
X0027000Y0134681D02*
X0026600Y0134681D01*
X0026600Y0133082D02*
X0027000Y0133082D01*
X0027000Y0131484D02*
X0026600Y0131484D01*
X0026600Y0129885D02*
X0027000Y0129885D01*
X0027000Y0128287D02*
X0026600Y0128287D01*
X0071105Y0166651D02*
X0072495Y0166651D01*
X0072000Y0168250D02*
X0071600Y0168250D01*
X0071600Y0169848D02*
X0072000Y0169848D01*
X0072000Y0171447D02*
X0071600Y0171447D01*
X0071600Y0173045D02*
X0072000Y0173045D01*
X0072000Y0174644D02*
X0071600Y0174644D01*
X0071398Y0176242D02*
X0072202Y0176242D01*
X0073052Y0177841D02*
X0070547Y0177841D01*
X0014599Y0182636D02*
X0189001Y0182636D01*
X0189200Y0177841D02*
X0165327Y0177841D01*
X0166697Y0176242D02*
X0189200Y0176242D01*
X0189200Y0174644D02*
X0167317Y0174644D01*
X0167439Y0173045D02*
X0189200Y0173045D01*
X0189200Y0171447D02*
X0167439Y0171447D01*
X0162280Y0171447D02*
X0161320Y0171447D01*
X0161320Y0173045D02*
X0162280Y0173045D01*
X0162280Y0174644D02*
X0161320Y0174644D01*
X0161320Y0176242D02*
X0162280Y0176242D01*
X0162280Y0177841D02*
X0161320Y0177841D01*
X0158273Y0177841D02*
X0140547Y0177841D01*
X0141398Y0176242D02*
X0156903Y0176242D01*
X0156283Y0174644D02*
X0141600Y0174644D01*
X0141600Y0173045D02*
X0156161Y0173045D01*
X0172845Y0086600D02*
X0171081Y0085869D01*
X0169731Y0084519D01*
X0169000Y0082755D01*
X0169000Y0080845D01*
X0169731Y0079081D01*
X0171081Y0077731D01*
X0172845Y0077000D01*
X0180755Y0077000D01*
X0182519Y0077731D01*
X0183869Y0079081D01*
X0184600Y0080845D01*
X0184600Y0082755D01*
X0183869Y0084519D01*
X0182519Y0085869D01*
X0180755Y0086600D01*
X0172845Y0086600D01*
X0170339Y0085127D02*
X0149400Y0085127D01*
X0149400Y0083529D02*
X0169321Y0083529D01*
X0169000Y0081930D02*
X0149400Y0081930D01*
X0149400Y0080332D02*
X0169213Y0080332D01*
X0170079Y0078733D02*
X0149400Y0078733D01*
X0149400Y0077134D02*
X0172520Y0077134D01*
X0172845Y0076600D02*
X0171081Y0075869D01*
X0169731Y0074519D01*
X0169000Y0072755D01*
X0169000Y0070845D01*
X0169731Y0069081D01*
X0171081Y0067731D01*
X0172845Y0067000D01*
X0180755Y0067000D01*
X0182519Y0067731D01*
X0183869Y0069081D01*
X0184600Y0070845D01*
X0184600Y0072755D01*
X0183869Y0074519D01*
X0182519Y0075869D01*
X0180755Y0076600D01*
X0172845Y0076600D01*
X0170748Y0075536D02*
X0149400Y0075536D01*
X0149400Y0073937D02*
X0169490Y0073937D01*
X0169000Y0072339D02*
X0149400Y0072339D01*
X0149400Y0070740D02*
X0169043Y0070740D01*
X0169706Y0069142D02*
X0149400Y0069142D01*
X0149400Y0067543D02*
X0171533Y0067543D01*
X0172845Y0066600D02*
X0171081Y0065869D01*
X0169731Y0064519D01*
X0169000Y0062755D01*
X0169000Y0060845D01*
X0169731Y0059081D01*
X0171081Y0057731D01*
X0172845Y0057000D01*
X0180755Y0057000D01*
X0182519Y0057731D01*
X0183869Y0059081D01*
X0184600Y0060845D01*
X0184600Y0062755D01*
X0183869Y0064519D01*
X0182519Y0065869D01*
X0180755Y0066600D01*
X0172845Y0066600D01*
X0171264Y0065945D02*
X0149400Y0065945D01*
X0149400Y0064346D02*
X0169659Y0064346D01*
X0169000Y0062748D02*
X0149400Y0062748D01*
X0149400Y0061149D02*
X0169000Y0061149D01*
X0169536Y0059551D02*
X0149400Y0059551D01*
X0149400Y0057952D02*
X0170859Y0057952D01*
X0182741Y0057952D02*
X0189200Y0057952D01*
X0189200Y0056354D02*
X0149400Y0056354D01*
X0149400Y0054755D02*
X0189200Y0054755D01*
X0189200Y0053157D02*
X0149400Y0053157D01*
X0149400Y0051558D02*
X0189200Y0051558D01*
X0189200Y0049960D02*
X0149400Y0049960D01*
X0149400Y0048361D02*
X0189200Y0048361D01*
X0189200Y0046763D02*
X0149400Y0046763D01*
X0149400Y0045164D02*
X0189200Y0045164D01*
X0189200Y0043566D02*
X0149400Y0043566D01*
X0149400Y0041967D02*
X0189200Y0041967D01*
X0189200Y0040369D02*
X0149400Y0040369D01*
X0149400Y0038770D02*
X0189200Y0038770D01*
X0189200Y0037172D02*
X0149400Y0037172D01*
X0149400Y0035573D02*
X0153785Y0035573D01*
X0156800Y0031800D02*
X0146800Y0031800D01*
X0159369Y0027581D02*
X0164231Y0027581D01*
X0164194Y0025982D02*
X0159406Y0025982D01*
X0161005Y0024384D02*
X0162595Y0024384D01*
X0162000Y0022785D02*
X0161600Y0022785D01*
X0161600Y0021187D02*
X0162000Y0021187D01*
X0162224Y0019588D02*
X0161376Y0019588D01*
X0159778Y0017990D02*
X0163822Y0017990D01*
X0168616Y0014793D02*
X0139581Y0014793D01*
X0160967Y0029179D02*
X0162633Y0029179D01*
X0162000Y0030778D02*
X0161600Y0030778D01*
X0161600Y0032376D02*
X0162000Y0032376D01*
X0162186Y0033975D02*
X0161414Y0033975D01*
X0159815Y0035573D02*
X0163785Y0035573D01*
X0176600Y0029179D02*
X0177000Y0029179D01*
X0177000Y0027581D02*
X0176600Y0027581D01*
X0184064Y0059551D02*
X0189200Y0059551D01*
X0189200Y0061149D02*
X0184600Y0061149D01*
X0184600Y0062748D02*
X0189200Y0062748D01*
X0189200Y0064346D02*
X0183941Y0064346D01*
X0182336Y0065945D02*
X0189200Y0065945D01*
X0189200Y0067543D02*
X0182067Y0067543D01*
X0183894Y0069142D02*
X0189200Y0069142D01*
X0189200Y0070740D02*
X0184557Y0070740D01*
X0184600Y0072339D02*
X0189200Y0072339D01*
X0189200Y0073937D02*
X0184110Y0073937D01*
X0182852Y0075536D02*
X0189200Y0075536D01*
X0189200Y0077134D02*
X0181079Y0077134D01*
X0183521Y0078733D02*
X0189200Y0078733D01*
X0189200Y0080332D02*
X0184387Y0080332D01*
X0184600Y0081930D02*
X0189200Y0081930D01*
X0189200Y0083529D02*
X0184279Y0083529D01*
X0183261Y0085127D02*
X0189200Y0085127D01*
D19*
X0119660Y0080307D03*
X0104300Y0083300D03*
X0090594Y0101325D03*
X0095094Y0105733D03*
X0146800Y0166800D03*
M02*
