G75*
%MOIN*%
%OFA0B0*%
%FSLAX25Y25*%
%IPPOS*%
%LPD*%
%AMOC8*
5,1,8,0,0,1.08239X$1,22.5*
%
%ADD10C,0.01600*%
D10*
X0011800Y0011800D02*
X0011800Y0181800D01*
X0011802Y0181940D01*
X0011808Y0182080D01*
X0011818Y0182220D01*
X0011831Y0182360D01*
X0011849Y0182499D01*
X0011871Y0182638D01*
X0011896Y0182775D01*
X0011925Y0182913D01*
X0011958Y0183049D01*
X0011995Y0183184D01*
X0012036Y0183318D01*
X0012081Y0183451D01*
X0012129Y0183583D01*
X0012181Y0183713D01*
X0012236Y0183842D01*
X0012295Y0183969D01*
X0012358Y0184095D01*
X0012424Y0184219D01*
X0012493Y0184340D01*
X0012566Y0184460D01*
X0012643Y0184578D01*
X0012722Y0184693D01*
X0012805Y0184807D01*
X0012891Y0184917D01*
X0012980Y0185026D01*
X0013072Y0185132D01*
X0013167Y0185235D01*
X0013264Y0185336D01*
X0013365Y0185433D01*
X0013468Y0185528D01*
X0013574Y0185620D01*
X0013683Y0185709D01*
X0013793Y0185795D01*
X0013907Y0185878D01*
X0014022Y0185957D01*
X0014140Y0186034D01*
X0014260Y0186107D01*
X0014381Y0186176D01*
X0014505Y0186242D01*
X0014631Y0186305D01*
X0014758Y0186364D01*
X0014887Y0186419D01*
X0015017Y0186471D01*
X0015149Y0186519D01*
X0015282Y0186564D01*
X0015416Y0186605D01*
X0015551Y0186642D01*
X0015687Y0186675D01*
X0015825Y0186704D01*
X0015962Y0186729D01*
X0016101Y0186751D01*
X0016240Y0186769D01*
X0016380Y0186782D01*
X0016520Y0186792D01*
X0016660Y0186798D01*
X0016800Y0186800D01*
X0186800Y0186800D01*
X0186940Y0186798D01*
X0187080Y0186792D01*
X0187220Y0186782D01*
X0187360Y0186769D01*
X0187499Y0186751D01*
X0187638Y0186729D01*
X0187775Y0186704D01*
X0187913Y0186675D01*
X0188049Y0186642D01*
X0188184Y0186605D01*
X0188318Y0186564D01*
X0188451Y0186519D01*
X0188583Y0186471D01*
X0188713Y0186419D01*
X0188842Y0186364D01*
X0188969Y0186305D01*
X0189095Y0186242D01*
X0189219Y0186176D01*
X0189340Y0186107D01*
X0189460Y0186034D01*
X0189578Y0185957D01*
X0189693Y0185878D01*
X0189807Y0185795D01*
X0189917Y0185709D01*
X0190026Y0185620D01*
X0190132Y0185528D01*
X0190235Y0185433D01*
X0190336Y0185336D01*
X0190433Y0185235D01*
X0190528Y0185132D01*
X0190620Y0185026D01*
X0190709Y0184917D01*
X0190795Y0184807D01*
X0190878Y0184693D01*
X0190957Y0184578D01*
X0191034Y0184460D01*
X0191107Y0184340D01*
X0191176Y0184219D01*
X0191242Y0184095D01*
X0191305Y0183969D01*
X0191364Y0183842D01*
X0191419Y0183713D01*
X0191471Y0183583D01*
X0191519Y0183451D01*
X0191564Y0183318D01*
X0191605Y0183184D01*
X0191642Y0183049D01*
X0191675Y0182913D01*
X0191704Y0182775D01*
X0191729Y0182638D01*
X0191751Y0182499D01*
X0191769Y0182360D01*
X0191782Y0182220D01*
X0191792Y0182080D01*
X0191798Y0181940D01*
X0191800Y0181800D01*
X0191800Y0011800D01*
X0191798Y0011660D01*
X0191792Y0011520D01*
X0191782Y0011380D01*
X0191769Y0011240D01*
X0191751Y0011101D01*
X0191729Y0010962D01*
X0191704Y0010825D01*
X0191675Y0010687D01*
X0191642Y0010551D01*
X0191605Y0010416D01*
X0191564Y0010282D01*
X0191519Y0010149D01*
X0191471Y0010017D01*
X0191419Y0009887D01*
X0191364Y0009758D01*
X0191305Y0009631D01*
X0191242Y0009505D01*
X0191176Y0009381D01*
X0191107Y0009260D01*
X0191034Y0009140D01*
X0190957Y0009022D01*
X0190878Y0008907D01*
X0190795Y0008793D01*
X0190709Y0008683D01*
X0190620Y0008574D01*
X0190528Y0008468D01*
X0190433Y0008365D01*
X0190336Y0008264D01*
X0190235Y0008167D01*
X0190132Y0008072D01*
X0190026Y0007980D01*
X0189917Y0007891D01*
X0189807Y0007805D01*
X0189693Y0007722D01*
X0189578Y0007643D01*
X0189460Y0007566D01*
X0189340Y0007493D01*
X0189219Y0007424D01*
X0189095Y0007358D01*
X0188969Y0007295D01*
X0188842Y0007236D01*
X0188713Y0007181D01*
X0188583Y0007129D01*
X0188451Y0007081D01*
X0188318Y0007036D01*
X0188184Y0006995D01*
X0188049Y0006958D01*
X0187913Y0006925D01*
X0187775Y0006896D01*
X0187638Y0006871D01*
X0187499Y0006849D01*
X0187360Y0006831D01*
X0187220Y0006818D01*
X0187080Y0006808D01*
X0186940Y0006802D01*
X0186800Y0006800D01*
X0016800Y0006800D01*
X0016660Y0006802D01*
X0016520Y0006808D01*
X0016380Y0006818D01*
X0016240Y0006831D01*
X0016101Y0006849D01*
X0015962Y0006871D01*
X0015825Y0006896D01*
X0015687Y0006925D01*
X0015551Y0006958D01*
X0015416Y0006995D01*
X0015282Y0007036D01*
X0015149Y0007081D01*
X0015017Y0007129D01*
X0014887Y0007181D01*
X0014758Y0007236D01*
X0014631Y0007295D01*
X0014505Y0007358D01*
X0014381Y0007424D01*
X0014260Y0007493D01*
X0014140Y0007566D01*
X0014022Y0007643D01*
X0013907Y0007722D01*
X0013793Y0007805D01*
X0013683Y0007891D01*
X0013574Y0007980D01*
X0013468Y0008072D01*
X0013365Y0008167D01*
X0013264Y0008264D01*
X0013167Y0008365D01*
X0013072Y0008468D01*
X0012980Y0008574D01*
X0012891Y0008683D01*
X0012805Y0008793D01*
X0012722Y0008907D01*
X0012643Y0009022D01*
X0012566Y0009140D01*
X0012493Y0009260D01*
X0012424Y0009381D01*
X0012358Y0009505D01*
X0012295Y0009631D01*
X0012236Y0009758D01*
X0012181Y0009887D01*
X0012129Y0010017D01*
X0012081Y0010149D01*
X0012036Y0010282D01*
X0011995Y0010416D01*
X0011958Y0010551D01*
X0011925Y0010687D01*
X0011896Y0010825D01*
X0011871Y0010962D01*
X0011849Y0011101D01*
X0011831Y0011240D01*
X0011818Y0011380D01*
X0011808Y0011520D01*
X0011802Y0011660D01*
X0011800Y0011800D01*
M02*
