%
M48
M72
T01C0.0118
T02C0.0400
T03C0.0512
%
T01
X10430Y8330
X11966Y8031
X9509Y10573
X9059Y10132
X14680Y16680
T02
X2680Y6180
X2680Y7180
X2680Y8180
X2680Y9180
X2680Y10180
X2680Y11180
X2680Y12180
X2680Y13180
X6680Y17180
X7680Y17180
X8680Y17180
X9680Y17180
X10680Y17180
X11680Y17180
X12680Y17180
X13680Y17180
X17680Y13180
X17680Y12180
X17680Y11180
X17680Y10180
X17680Y9180
X17680Y8180
X17680Y7180
X17680Y6180
X17680Y3180
X17680Y2180
X16680Y2180
X15680Y2180
X15680Y3180
X16680Y3180
X13680Y2180
X12680Y2180
X11680Y2180
X10680Y2180
X9680Y2180
X8680Y2180
X7680Y2180
X6680Y2180
T03
X16180Y14400
X16180Y16960
M30
