G75*
%MOIN*%
%OFA0B0*%
%FSLAX25Y25*%
%IPPOS*%
%LPD*%
%AMOC8*
5,1,8,0,0,1.08239X$1,22.5*
%
%ADD10C,0.00300*%
%ADD11C,0.00500*%
%ADD12C,0.00600*%
%ADD13C,0.00400*%
%ADD14R,0.00787X0.00787*%
%ADD15C,0.00200*%
%ADD16C,0.00800*%
D10*
X0036950Y0021950D02*
X0039419Y0021950D01*
X0040633Y0021950D02*
X0043102Y0021950D01*
X0044316Y0021950D02*
X0046168Y0021950D01*
X0046785Y0022567D01*
X0046785Y0025036D01*
X0046168Y0025653D01*
X0044316Y0025653D01*
X0044316Y0021950D01*
X0041868Y0023802D02*
X0040633Y0023802D01*
X0040633Y0025653D02*
X0040633Y0021950D01*
X0036950Y0021950D02*
X0036950Y0025653D01*
X0040633Y0025653D02*
X0043102Y0025653D01*
X0047999Y0024419D02*
X0049234Y0025653D01*
X0049234Y0021950D01*
X0050468Y0021950D02*
X0047999Y0021950D01*
X0043602Y0031950D02*
X0041133Y0031950D01*
X0039919Y0031950D02*
X0038684Y0033184D01*
X0039302Y0033184D02*
X0037450Y0033184D01*
X0037450Y0031950D02*
X0037450Y0035653D01*
X0039302Y0035653D01*
X0039919Y0035036D01*
X0039919Y0033802D01*
X0039302Y0033184D01*
X0041133Y0034419D02*
X0042368Y0035653D01*
X0042368Y0031950D01*
X0065447Y0031950D02*
X0067916Y0031950D01*
X0069150Y0033184D01*
X0067916Y0034419D01*
X0065447Y0034419D01*
X0065447Y0035633D02*
X0065447Y0036868D01*
X0065447Y0036250D02*
X0069150Y0036250D01*
X0069150Y0035633D02*
X0069150Y0036868D01*
X0069150Y0038089D02*
X0065447Y0038089D01*
X0069150Y0040557D01*
X0065447Y0040557D01*
X0075447Y0038102D02*
X0077916Y0038102D01*
X0079150Y0036868D01*
X0077916Y0035633D01*
X0075447Y0035633D01*
X0075447Y0034419D02*
X0075447Y0031950D01*
X0077298Y0031950D01*
X0076681Y0033184D01*
X0076681Y0033802D01*
X0077298Y0034419D01*
X0078533Y0034419D01*
X0079150Y0033802D01*
X0079150Y0032567D01*
X0078533Y0031950D01*
X0085447Y0031950D02*
X0085447Y0033802D01*
X0086064Y0034419D01*
X0087298Y0034419D01*
X0087916Y0033802D01*
X0087916Y0031950D01*
X0089150Y0031950D02*
X0085447Y0031950D01*
X0085447Y0035633D02*
X0085447Y0037485D01*
X0086064Y0038102D01*
X0086681Y0038102D01*
X0087298Y0037485D01*
X0087298Y0035633D01*
X0085447Y0035633D02*
X0089150Y0035633D01*
X0089150Y0037485D01*
X0088533Y0038102D01*
X0087916Y0038102D01*
X0087298Y0037485D01*
X0086064Y0039316D02*
X0085447Y0039933D01*
X0085447Y0041168D01*
X0086064Y0041785D01*
X0088533Y0039316D01*
X0089150Y0039933D01*
X0089150Y0041168D01*
X0088533Y0041785D01*
X0086064Y0041785D01*
X0086064Y0039316D02*
X0088533Y0039316D01*
X0095447Y0040551D02*
X0099150Y0040551D01*
X0099150Y0041785D02*
X0099150Y0039316D01*
X0098533Y0038102D02*
X0099150Y0037485D01*
X0099150Y0035633D01*
X0095447Y0035633D01*
X0095447Y0037485D01*
X0096064Y0038102D01*
X0096681Y0038102D01*
X0097298Y0037485D01*
X0097298Y0035633D01*
X0097298Y0034419D02*
X0097916Y0033802D01*
X0097916Y0031950D01*
X0099150Y0031950D02*
X0095447Y0031950D01*
X0095447Y0033802D01*
X0096064Y0034419D01*
X0097298Y0034419D01*
X0097298Y0037485D02*
X0097916Y0038102D01*
X0098533Y0038102D01*
X0096681Y0039316D02*
X0095447Y0040551D01*
X0105447Y0041168D02*
X0105447Y0039933D01*
X0106064Y0039316D01*
X0106064Y0038102D02*
X0105447Y0037485D01*
X0105447Y0035633D01*
X0109150Y0035633D01*
X0109150Y0037485D01*
X0108533Y0038102D01*
X0107916Y0038102D01*
X0107298Y0037485D01*
X0107298Y0035633D01*
X0107298Y0034419D02*
X0107916Y0033802D01*
X0107916Y0031950D01*
X0109150Y0031950D02*
X0105447Y0031950D01*
X0105447Y0033802D01*
X0106064Y0034419D01*
X0107298Y0034419D01*
X0107298Y0037485D02*
X0106681Y0038102D01*
X0106064Y0038102D01*
X0109150Y0039316D02*
X0106681Y0041785D01*
X0106064Y0041785D01*
X0105447Y0041168D01*
X0109150Y0041785D02*
X0109150Y0039316D01*
X0109150Y0042999D02*
X0105447Y0045468D01*
X0106064Y0046683D02*
X0105447Y0047300D01*
X0105447Y0048534D01*
X0106064Y0049151D01*
X0106064Y0050366D02*
X0105447Y0050983D01*
X0105447Y0052217D01*
X0106064Y0052834D01*
X0107298Y0052217D02*
X0107916Y0052834D01*
X0108533Y0052834D01*
X0109150Y0052217D01*
X0109150Y0050983D01*
X0108533Y0050366D01*
X0108533Y0049151D02*
X0109150Y0048534D01*
X0109150Y0047300D01*
X0108533Y0046683D01*
X0107298Y0047300D02*
X0107298Y0048534D01*
X0107916Y0049151D01*
X0108533Y0049151D01*
X0107298Y0050983D02*
X0107298Y0052217D01*
X0107298Y0050983D02*
X0106681Y0050366D01*
X0106064Y0050366D01*
X0107298Y0047300D02*
X0106681Y0046683D01*
X0106064Y0046683D01*
X0115447Y0046683D02*
X0116681Y0047917D01*
X0115447Y0049151D01*
X0119150Y0049151D01*
X0118533Y0050366D02*
X0116064Y0050366D01*
X0115447Y0050983D01*
X0115447Y0052217D01*
X0116064Y0052834D01*
X0118533Y0052834D01*
X0119150Y0052217D01*
X0119150Y0050983D01*
X0118533Y0050366D01*
X0118533Y0054049D02*
X0119150Y0054666D01*
X0119150Y0055900D01*
X0118533Y0056518D01*
X0117916Y0056518D01*
X0117298Y0055900D01*
X0117298Y0054666D01*
X0116681Y0054049D01*
X0116064Y0054049D01*
X0115447Y0054666D01*
X0115447Y0055900D01*
X0116064Y0056518D01*
X0115447Y0057732D02*
X0115447Y0058966D01*
X0115447Y0058349D02*
X0119150Y0058349D01*
X0119150Y0057732D02*
X0119150Y0058966D01*
X0125447Y0058356D02*
X0125447Y0057121D01*
X0126064Y0056504D01*
X0128533Y0056504D01*
X0129150Y0057121D01*
X0129150Y0058356D01*
X0128533Y0058973D01*
X0126064Y0058973D01*
X0125447Y0058356D01*
X0126064Y0055290D02*
X0125447Y0054673D01*
X0125447Y0053438D01*
X0126064Y0052821D01*
X0126681Y0052821D01*
X0127298Y0053438D01*
X0127298Y0054673D01*
X0127916Y0055290D01*
X0128533Y0055290D01*
X0129150Y0054673D01*
X0129150Y0053438D01*
X0128533Y0052821D01*
X0129150Y0051600D02*
X0129150Y0050366D01*
X0129150Y0050983D02*
X0125447Y0050983D01*
X0125447Y0050366D02*
X0125447Y0051600D01*
X0125447Y0049151D02*
X0129150Y0049151D01*
X0129150Y0046683D02*
X0125447Y0046683D01*
X0126681Y0047917D01*
X0125447Y0049151D01*
X0125447Y0045468D02*
X0129150Y0042999D01*
X0129150Y0041168D02*
X0125447Y0041168D01*
X0127298Y0039316D01*
X0127298Y0041785D01*
X0126681Y0038102D02*
X0126064Y0038102D01*
X0125447Y0037485D01*
X0125447Y0035633D01*
X0129150Y0035633D01*
X0129150Y0037485D01*
X0128533Y0038102D01*
X0127916Y0038102D01*
X0127298Y0037485D01*
X0127298Y0035633D01*
X0127298Y0034419D02*
X0126064Y0034419D01*
X0125447Y0033802D01*
X0125447Y0031950D01*
X0129150Y0031950D01*
X0127916Y0031950D02*
X0127916Y0033802D01*
X0127298Y0034419D01*
X0127298Y0037485D02*
X0126681Y0038102D01*
X0119150Y0037485D02*
X0119150Y0035633D01*
X0115447Y0035633D01*
X0115447Y0037485D01*
X0116064Y0038102D01*
X0116681Y0038102D01*
X0117298Y0037485D01*
X0117298Y0035633D01*
X0117298Y0034419D02*
X0117916Y0033802D01*
X0117916Y0031950D01*
X0119150Y0031950D02*
X0115447Y0031950D01*
X0115447Y0033802D01*
X0116064Y0034419D01*
X0117298Y0034419D01*
X0117298Y0037485D02*
X0117916Y0038102D01*
X0118533Y0038102D01*
X0119150Y0037485D01*
X0118533Y0039316D02*
X0119150Y0039933D01*
X0119150Y0041168D01*
X0118533Y0041785D01*
X0117916Y0041785D01*
X0117298Y0041168D01*
X0117298Y0040551D01*
X0117298Y0041168D02*
X0116681Y0041785D01*
X0116064Y0041785D01*
X0115447Y0041168D01*
X0115447Y0039933D01*
X0116064Y0039316D01*
X0119150Y0042999D02*
X0115447Y0045468D01*
X0115447Y0046683D02*
X0119150Y0046683D01*
X0135447Y0047300D02*
X0136064Y0046683D01*
X0136681Y0046683D01*
X0137298Y0047300D01*
X0137298Y0048534D01*
X0137916Y0049151D01*
X0138533Y0049151D01*
X0139150Y0048534D01*
X0139150Y0047300D01*
X0138533Y0046683D01*
X0135447Y0047300D02*
X0135447Y0048534D01*
X0136064Y0049151D01*
X0136064Y0050366D02*
X0138533Y0050366D01*
X0139150Y0050983D01*
X0139150Y0052217D01*
X0138533Y0052834D01*
X0139150Y0054049D02*
X0135447Y0054049D01*
X0136064Y0052834D02*
X0135447Y0052217D01*
X0135447Y0050983D01*
X0136064Y0050366D01*
X0137916Y0054049D02*
X0135447Y0056518D01*
X0137298Y0054666D02*
X0139150Y0056518D01*
X0135447Y0045468D02*
X0139150Y0042999D01*
X0138533Y0041785D02*
X0137298Y0041785D01*
X0136681Y0041168D01*
X0136681Y0040551D01*
X0137298Y0039316D01*
X0135447Y0039316D01*
X0135447Y0041785D01*
X0138533Y0041785D02*
X0139150Y0041168D01*
X0139150Y0039933D01*
X0138533Y0039316D01*
X0138533Y0038102D02*
X0137916Y0038102D01*
X0137298Y0037485D01*
X0137298Y0035633D01*
X0137298Y0034419D02*
X0136064Y0034419D01*
X0135447Y0033802D01*
X0135447Y0031950D01*
X0139150Y0031950D01*
X0137916Y0031950D02*
X0137916Y0033802D01*
X0137298Y0034419D01*
X0135447Y0035633D02*
X0135447Y0037485D01*
X0136064Y0038102D01*
X0136681Y0038102D01*
X0137298Y0037485D01*
X0138533Y0038102D02*
X0139150Y0037485D01*
X0139150Y0035633D01*
X0135447Y0035633D01*
X0153150Y0015736D02*
X0153150Y0013267D01*
X0153150Y0014501D02*
X0149447Y0014501D01*
X0150681Y0013267D01*
X0152217Y0060450D02*
X0152217Y0062919D01*
X0153452Y0064153D01*
X0154686Y0062919D01*
X0154686Y0060450D01*
X0155901Y0060450D02*
X0157752Y0060450D01*
X0158369Y0061067D01*
X0158369Y0063536D01*
X0157752Y0064153D01*
X0155901Y0064153D01*
X0155901Y0060450D01*
X0154686Y0062302D02*
X0152217Y0062302D01*
X0159584Y0063536D02*
X0159584Y0061067D01*
X0160201Y0060450D01*
X0161435Y0060450D01*
X0162052Y0061067D01*
X0163267Y0061067D02*
X0163267Y0062302D01*
X0165118Y0062302D01*
X0165736Y0061684D01*
X0165736Y0061067D01*
X0165118Y0060450D01*
X0163884Y0060450D01*
X0163267Y0061067D01*
X0163267Y0062302D02*
X0164501Y0063536D01*
X0165736Y0064153D01*
X0162052Y0063536D02*
X0161435Y0064153D01*
X0160201Y0064153D01*
X0159584Y0063536D01*
X0160201Y0070450D02*
X0161435Y0070450D01*
X0162052Y0071067D01*
X0163267Y0071067D02*
X0163267Y0070450D01*
X0163267Y0071067D02*
X0165736Y0073536D01*
X0165736Y0074153D01*
X0163267Y0074153D01*
X0162052Y0073536D02*
X0161435Y0074153D01*
X0160201Y0074153D01*
X0159584Y0073536D01*
X0159584Y0071067D01*
X0160201Y0070450D01*
X0158369Y0071067D02*
X0158369Y0073536D01*
X0157752Y0074153D01*
X0155901Y0074153D01*
X0155901Y0070450D01*
X0157752Y0070450D01*
X0158369Y0071067D01*
X0154686Y0070450D02*
X0154686Y0072919D01*
X0153452Y0074153D01*
X0152217Y0072919D01*
X0152217Y0070450D01*
X0152217Y0072302D02*
X0154686Y0072302D01*
X0155901Y0080450D02*
X0155901Y0084153D01*
X0157752Y0084153D01*
X0158369Y0083536D01*
X0158369Y0082302D01*
X0157752Y0081684D01*
X0155901Y0081684D01*
X0159584Y0081067D02*
X0160201Y0080450D01*
X0161435Y0080450D01*
X0162052Y0081067D01*
X0163267Y0081067D02*
X0165736Y0083536D01*
X0165736Y0081067D01*
X0165118Y0080450D01*
X0163884Y0080450D01*
X0163267Y0081067D01*
X0163267Y0083536D01*
X0163884Y0084153D01*
X0165118Y0084153D01*
X0165736Y0083536D01*
X0162052Y0083536D02*
X0161435Y0084153D01*
X0160201Y0084153D01*
X0159584Y0083536D01*
X0159584Y0081067D01*
X0160201Y0090450D02*
X0161435Y0090450D01*
X0162052Y0091067D01*
X0163267Y0090450D02*
X0165736Y0090450D01*
X0164501Y0090450D02*
X0164501Y0094153D01*
X0163267Y0092919D01*
X0162052Y0093536D02*
X0161435Y0094153D01*
X0160201Y0094153D01*
X0159584Y0093536D01*
X0159584Y0091067D01*
X0160201Y0090450D01*
X0158369Y0092302D02*
X0157752Y0091684D01*
X0155901Y0091684D01*
X0155901Y0090450D02*
X0155901Y0094153D01*
X0157752Y0094153D01*
X0158369Y0093536D01*
X0158369Y0092302D01*
X0160201Y0100450D02*
X0161435Y0100450D01*
X0162052Y0101067D01*
X0163267Y0100450D02*
X0165736Y0102919D01*
X0165736Y0103536D01*
X0165118Y0104153D01*
X0163884Y0104153D01*
X0163267Y0103536D01*
X0162052Y0103536D02*
X0161435Y0104153D01*
X0160201Y0104153D01*
X0159584Y0103536D01*
X0159584Y0101067D01*
X0160201Y0100450D01*
X0158369Y0102302D02*
X0157752Y0101684D01*
X0155901Y0101684D01*
X0155901Y0100450D02*
X0155901Y0104153D01*
X0157752Y0104153D01*
X0158369Y0103536D01*
X0158369Y0102302D01*
X0163267Y0100450D02*
X0165736Y0100450D01*
X0165118Y0110450D02*
X0163884Y0110450D01*
X0163267Y0111067D01*
X0162052Y0111067D02*
X0161435Y0110450D01*
X0160201Y0110450D01*
X0159584Y0111067D01*
X0159584Y0113536D01*
X0160201Y0114153D01*
X0161435Y0114153D01*
X0162052Y0113536D01*
X0163267Y0113536D02*
X0163884Y0114153D01*
X0165118Y0114153D01*
X0165736Y0113536D01*
X0165736Y0112919D01*
X0165118Y0112302D01*
X0165736Y0111684D01*
X0165736Y0111067D01*
X0165118Y0110450D01*
X0165118Y0112302D02*
X0164501Y0112302D01*
X0158369Y0112302D02*
X0157752Y0111684D01*
X0155901Y0111684D01*
X0155901Y0110450D02*
X0155901Y0114153D01*
X0157752Y0114153D01*
X0158369Y0113536D01*
X0158369Y0112302D01*
X0160201Y0120450D02*
X0161435Y0120450D01*
X0162052Y0121067D01*
X0163267Y0122302D02*
X0165736Y0122302D01*
X0165118Y0124153D02*
X0165118Y0120450D01*
X0163267Y0122302D02*
X0165118Y0124153D01*
X0162052Y0123536D02*
X0161435Y0124153D01*
X0160201Y0124153D01*
X0159584Y0123536D01*
X0159584Y0121067D01*
X0160201Y0120450D01*
X0158369Y0122302D02*
X0157752Y0121684D01*
X0155901Y0121684D01*
X0155901Y0120450D02*
X0155901Y0124153D01*
X0157752Y0124153D01*
X0158369Y0123536D01*
X0158369Y0122302D01*
X0154686Y0124153D02*
X0152217Y0120450D01*
X0151003Y0120450D02*
X0151003Y0122919D01*
X0149769Y0124153D01*
X0148534Y0122919D01*
X0148534Y0120450D01*
X0147320Y0121067D02*
X0147320Y0123536D01*
X0146703Y0124153D01*
X0144851Y0124153D01*
X0144851Y0120450D01*
X0146703Y0120450D01*
X0147320Y0121067D01*
X0148534Y0122302D02*
X0151003Y0122302D01*
X0143637Y0121684D02*
X0143637Y0121067D01*
X0143020Y0120450D01*
X0141785Y0120450D01*
X0141168Y0121067D01*
X0141785Y0122302D02*
X0143020Y0122302D01*
X0143637Y0121684D01*
X0143637Y0123536D02*
X0143020Y0124153D01*
X0141785Y0124153D01*
X0141168Y0123536D01*
X0141168Y0122919D01*
X0141785Y0122302D01*
X0141785Y0130450D02*
X0141168Y0131067D01*
X0141785Y0130450D02*
X0143020Y0130450D01*
X0143637Y0131067D01*
X0143637Y0131684D01*
X0143020Y0132302D01*
X0141785Y0132302D01*
X0141168Y0132919D01*
X0141168Y0133536D01*
X0141785Y0134153D01*
X0143020Y0134153D01*
X0143637Y0133536D01*
X0144851Y0133536D02*
X0144851Y0131067D01*
X0145468Y0130450D01*
X0146703Y0130450D01*
X0147320Y0131067D01*
X0148534Y0130450D02*
X0151003Y0130450D01*
X0152217Y0130450D02*
X0154686Y0134153D01*
X0155901Y0134153D02*
X0157752Y0134153D01*
X0158369Y0133536D01*
X0158369Y0132302D01*
X0157752Y0131684D01*
X0155901Y0131684D01*
X0155901Y0130450D02*
X0155901Y0134153D01*
X0159584Y0133536D02*
X0159584Y0131067D01*
X0160201Y0130450D01*
X0161435Y0130450D01*
X0162052Y0131067D01*
X0163267Y0131067D02*
X0163884Y0130450D01*
X0165118Y0130450D01*
X0165736Y0131067D01*
X0165736Y0132302D01*
X0165118Y0132919D01*
X0164501Y0132919D01*
X0163267Y0132302D01*
X0163267Y0134153D01*
X0165736Y0134153D01*
X0162052Y0133536D02*
X0161435Y0134153D01*
X0160201Y0134153D01*
X0159584Y0133536D01*
X0148534Y0134153D02*
X0148534Y0130450D01*
X0147320Y0133536D02*
X0146703Y0134153D01*
X0145468Y0134153D01*
X0144851Y0133536D01*
X0144450Y0144450D02*
X0144450Y0148153D01*
X0146302Y0148153D01*
X0146919Y0147536D01*
X0146919Y0146302D01*
X0146302Y0145684D01*
X0144450Y0145684D01*
X0145684Y0145684D02*
X0146919Y0144450D01*
X0148133Y0144450D02*
X0150602Y0146919D01*
X0150602Y0147536D01*
X0149985Y0148153D01*
X0148750Y0148153D01*
X0148133Y0147536D01*
X0148133Y0144450D02*
X0150602Y0144450D01*
X0138150Y0150901D02*
X0134447Y0150901D01*
X0134447Y0152752D01*
X0135064Y0153369D01*
X0136298Y0153369D01*
X0136916Y0152752D01*
X0136916Y0150901D01*
X0136916Y0152135D02*
X0138150Y0153369D01*
X0137533Y0154584D02*
X0138150Y0155201D01*
X0138150Y0156435D01*
X0137533Y0157052D01*
X0136916Y0157052D01*
X0136298Y0156435D01*
X0136298Y0155201D01*
X0135681Y0154584D01*
X0135064Y0154584D01*
X0134447Y0155201D01*
X0134447Y0156435D01*
X0135064Y0157052D01*
X0134447Y0158267D02*
X0134447Y0160736D01*
X0134447Y0159501D02*
X0138150Y0159501D01*
X0128150Y0158884D02*
X0127533Y0158267D01*
X0125064Y0160736D01*
X0127533Y0160736D01*
X0128150Y0160118D01*
X0128150Y0158884D01*
X0127533Y0158267D02*
X0125064Y0158267D01*
X0124447Y0158884D01*
X0124447Y0160118D01*
X0125064Y0160736D01*
X0125064Y0157052D02*
X0124447Y0156435D01*
X0124447Y0154584D01*
X0128150Y0154584D01*
X0128150Y0156435D01*
X0127533Y0157052D01*
X0125064Y0157052D01*
X0125064Y0153369D02*
X0126298Y0153369D01*
X0126916Y0152752D01*
X0126916Y0150901D01*
X0128150Y0150901D02*
X0124447Y0150901D01*
X0124447Y0152752D01*
X0125064Y0153369D01*
X0124447Y0149686D02*
X0128150Y0147217D01*
X0128150Y0146003D02*
X0124447Y0143534D01*
X0125064Y0142320D02*
X0126298Y0142320D01*
X0126916Y0141703D01*
X0126916Y0139851D01*
X0128150Y0139851D02*
X0124447Y0139851D01*
X0124447Y0141703D01*
X0125064Y0142320D01*
X0126916Y0141086D02*
X0128150Y0142320D01*
X0128150Y0143534D02*
X0124447Y0146003D01*
X0118150Y0146003D02*
X0114447Y0143534D01*
X0114447Y0142320D02*
X0114447Y0139851D01*
X0114447Y0141086D02*
X0118150Y0141086D01*
X0118150Y0143534D02*
X0114447Y0146003D01*
X0114447Y0149686D02*
X0118150Y0147217D01*
X0118150Y0150901D02*
X0114447Y0150901D01*
X0114447Y0152752D01*
X0115064Y0153369D01*
X0116298Y0153369D01*
X0116916Y0152752D01*
X0116916Y0150901D01*
X0118150Y0154584D02*
X0114447Y0154584D01*
X0114447Y0156435D01*
X0115064Y0157052D01*
X0117533Y0157052D01*
X0118150Y0156435D01*
X0118150Y0154584D01*
X0118150Y0158267D02*
X0118150Y0160736D01*
X0118150Y0159501D02*
X0114447Y0159501D01*
X0115681Y0158267D01*
X0108150Y0158267D02*
X0105681Y0160736D01*
X0105064Y0160736D01*
X0104447Y0160118D01*
X0104447Y0158884D01*
X0105064Y0158267D01*
X0105064Y0157052D02*
X0104447Y0156435D01*
X0104447Y0154584D01*
X0108150Y0154584D01*
X0108150Y0156435D01*
X0107533Y0157052D01*
X0105064Y0157052D01*
X0108150Y0158267D02*
X0108150Y0160736D01*
X0106298Y0153369D02*
X0105064Y0153369D01*
X0104447Y0152752D01*
X0104447Y0150901D01*
X0108150Y0150901D01*
X0106916Y0150901D02*
X0106916Y0152752D01*
X0106298Y0153369D01*
X0098150Y0154584D02*
X0098150Y0156435D01*
X0097533Y0157052D01*
X0095064Y0157052D01*
X0094447Y0156435D01*
X0094447Y0154584D01*
X0098150Y0154584D01*
X0096916Y0152752D02*
X0096916Y0150901D01*
X0098150Y0150901D02*
X0094447Y0150901D01*
X0094447Y0152752D01*
X0095064Y0153369D01*
X0096298Y0153369D01*
X0096916Y0152752D01*
X0097533Y0158267D02*
X0098150Y0158884D01*
X0098150Y0160118D01*
X0097533Y0160736D01*
X0096916Y0160736D01*
X0096298Y0160118D01*
X0096298Y0159501D01*
X0096298Y0160118D02*
X0095681Y0160736D01*
X0095064Y0160736D01*
X0094447Y0160118D01*
X0094447Y0158884D01*
X0095064Y0158267D01*
X0088150Y0156435D02*
X0088150Y0154584D01*
X0084447Y0154584D01*
X0084447Y0156435D01*
X0085064Y0157052D01*
X0087533Y0157052D01*
X0088150Y0156435D01*
X0086298Y0158267D02*
X0086298Y0160736D01*
X0084447Y0160118D02*
X0086298Y0158267D01*
X0084447Y0160118D02*
X0088150Y0160118D01*
X0086298Y0153369D02*
X0085064Y0153369D01*
X0084447Y0152752D01*
X0084447Y0150901D01*
X0088150Y0150901D01*
X0086916Y0150901D02*
X0086916Y0152752D01*
X0086298Y0153369D01*
X0068150Y0153369D02*
X0066916Y0152135D01*
X0066916Y0152752D02*
X0066916Y0150901D01*
X0068150Y0150901D02*
X0064447Y0150901D01*
X0064447Y0152752D01*
X0065064Y0153369D01*
X0066298Y0153369D01*
X0066916Y0152752D01*
X0066298Y0154584D02*
X0066298Y0155818D01*
X0064447Y0154584D02*
X0068150Y0154584D01*
X0068150Y0157052D01*
X0068150Y0158267D02*
X0064447Y0158267D01*
X0064447Y0160736D01*
X0066298Y0159501D02*
X0066298Y0158267D01*
X0064447Y0157052D02*
X0064447Y0154584D01*
X0065681Y0149686D02*
X0068150Y0149686D01*
X0066298Y0149686D02*
X0066298Y0147217D01*
X0065681Y0147217D02*
X0064447Y0148452D01*
X0065681Y0149686D01*
X0065681Y0147217D02*
X0068150Y0147217D01*
X0059720Y0140144D02*
X0059284Y0140580D01*
X0058411Y0140580D01*
X0057102Y0139271D01*
X0057975Y0138398D01*
X0058847Y0138398D01*
X0059720Y0139271D01*
X0059720Y0140144D01*
X0057102Y0141017D02*
X0057102Y0139271D01*
X0057116Y0137540D02*
X0057116Y0136667D01*
X0056243Y0135794D01*
X0055370Y0135794D01*
X0053624Y0137540D01*
X0053624Y0138413D01*
X0054497Y0139285D01*
X0055370Y0139285D01*
X0057102Y0141017D02*
X0057538Y0142326D01*
X0046609Y0131267D02*
X0046609Y0127776D01*
X0047045Y0127340D01*
X0045750Y0126917D02*
X0045750Y0126044D01*
X0044877Y0125172D01*
X0044004Y0125172D01*
X0042259Y0126917D01*
X0042258Y0127790D01*
X0043131Y0128663D01*
X0044004Y0128663D01*
X0044426Y0129958D02*
X0046172Y0131704D01*
X0046609Y0131267D01*
X0031785Y0142567D02*
X0031785Y0145036D01*
X0031168Y0145653D01*
X0029316Y0145653D01*
X0029316Y0141950D01*
X0031168Y0141950D01*
X0031785Y0142567D01*
X0028102Y0141950D02*
X0028102Y0145653D01*
X0025633Y0145653D02*
X0028102Y0141950D01*
X0025633Y0141950D02*
X0025633Y0145653D01*
X0024419Y0145036D02*
X0023802Y0145653D01*
X0022567Y0145653D01*
X0021950Y0145036D01*
X0021950Y0142567D01*
X0022567Y0141950D01*
X0023802Y0141950D01*
X0024419Y0142567D01*
X0024419Y0143802D01*
X0023184Y0143802D01*
X0023811Y0156950D02*
X0024778Y0158885D01*
X0025790Y0157434D02*
X0026273Y0157434D01*
X0026273Y0156950D01*
X0025790Y0156950D01*
X0025790Y0157434D01*
X0023811Y0156950D02*
X0022843Y0158885D01*
X0021831Y0158401D02*
X0021831Y0157917D01*
X0019897Y0157917D01*
X0019897Y0157434D02*
X0019897Y0158401D01*
X0020380Y0158885D01*
X0021348Y0158885D01*
X0021831Y0158401D01*
X0021348Y0156950D02*
X0020380Y0156950D01*
X0019897Y0157434D01*
X0018885Y0156950D02*
X0017917Y0157917D01*
X0018401Y0157917D02*
X0016950Y0157917D01*
X0016950Y0156950D02*
X0016950Y0159852D01*
X0018401Y0159852D01*
X0018885Y0159369D01*
X0018885Y0158401D01*
X0018401Y0157917D01*
X0018885Y0161950D02*
X0017434Y0161950D01*
X0016950Y0162434D01*
X0016950Y0163401D01*
X0017434Y0163885D01*
X0018885Y0163885D01*
X0019897Y0163401D02*
X0019897Y0162434D01*
X0020380Y0161950D01*
X0021831Y0161950D01*
X0022843Y0161950D02*
X0024294Y0161950D01*
X0024778Y0162434D01*
X0024778Y0163401D01*
X0024294Y0163885D01*
X0022843Y0163885D01*
X0022843Y0164852D02*
X0022843Y0161950D01*
X0021831Y0163885D02*
X0020380Y0163885D01*
X0019897Y0163401D01*
X0025790Y0162917D02*
X0026757Y0163885D01*
X0027241Y0163885D01*
X0028245Y0163885D02*
X0028245Y0162434D01*
X0028729Y0161950D01*
X0030180Y0161950D01*
X0030180Y0163885D01*
X0031191Y0163401D02*
X0031191Y0162434D01*
X0031675Y0161950D01*
X0033126Y0161950D01*
X0034138Y0162434D02*
X0034138Y0163401D01*
X0034622Y0163885D01*
X0035589Y0163885D01*
X0036073Y0163401D01*
X0036073Y0162917D01*
X0034138Y0162917D01*
X0034138Y0162434D02*
X0034622Y0161950D01*
X0035589Y0161950D01*
X0037085Y0162434D02*
X0037085Y0164369D01*
X0037568Y0164852D01*
X0038536Y0164852D01*
X0039020Y0164369D01*
X0039020Y0163401D01*
X0038536Y0162917D01*
X0038536Y0163885D01*
X0037568Y0163885D01*
X0037568Y0162917D01*
X0038536Y0162917D01*
X0039020Y0162434D02*
X0038536Y0161950D01*
X0037568Y0161950D01*
X0037085Y0162434D01*
X0036080Y0159852D02*
X0036564Y0159369D01*
X0034629Y0157434D01*
X0035113Y0156950D01*
X0036080Y0156950D01*
X0036564Y0157434D01*
X0036564Y0159369D01*
X0036080Y0159852D02*
X0035113Y0159852D01*
X0034629Y0159369D01*
X0034629Y0157434D01*
X0033640Y0157434D02*
X0033640Y0156950D01*
X0033156Y0156950D01*
X0033156Y0157434D01*
X0033640Y0157434D01*
X0032144Y0156950D02*
X0030209Y0156950D01*
X0031177Y0156950D02*
X0031177Y0159852D01*
X0030209Y0158885D01*
X0031191Y0163401D02*
X0031675Y0163885D01*
X0033126Y0163885D01*
X0040031Y0163401D02*
X0040031Y0162434D01*
X0040515Y0161950D01*
X0041966Y0161950D01*
X0041966Y0161466D02*
X0041966Y0163885D01*
X0040515Y0163885D01*
X0040031Y0163401D01*
X0040999Y0160983D02*
X0041482Y0160983D01*
X0041966Y0161466D01*
X0042978Y0161950D02*
X0042978Y0163885D01*
X0043461Y0163885D01*
X0043945Y0163401D01*
X0044429Y0163885D01*
X0044913Y0163401D01*
X0044913Y0161950D01*
X0043945Y0161950D02*
X0043945Y0163401D01*
X0045924Y0162434D02*
X0046408Y0162917D01*
X0047859Y0162917D01*
X0047859Y0163401D02*
X0047859Y0161950D01*
X0046408Y0161950D01*
X0045924Y0162434D01*
X0046408Y0163885D02*
X0047375Y0163885D01*
X0047859Y0163401D01*
X0048871Y0163885D02*
X0049354Y0163885D01*
X0049354Y0161950D01*
X0048871Y0161950D02*
X0049838Y0161950D01*
X0050835Y0161950D02*
X0051802Y0161950D01*
X0051319Y0161950D02*
X0051319Y0164852D01*
X0050835Y0164852D01*
X0049354Y0164852D02*
X0049354Y0165336D01*
X0052799Y0162434D02*
X0053283Y0162434D01*
X0053283Y0161950D01*
X0052799Y0161950D01*
X0052799Y0162434D01*
X0054273Y0162434D02*
X0054273Y0163401D01*
X0054756Y0163885D01*
X0056208Y0163885D01*
X0057219Y0163401D02*
X0057219Y0162434D01*
X0057703Y0161950D01*
X0058670Y0161950D01*
X0059154Y0162434D01*
X0059154Y0163401D01*
X0058670Y0163885D01*
X0057703Y0163885D01*
X0057219Y0163401D01*
X0056208Y0161950D02*
X0054756Y0161950D01*
X0054273Y0162434D01*
X0060166Y0161950D02*
X0060166Y0163885D01*
X0060649Y0163885D01*
X0061133Y0163401D01*
X0061617Y0163885D01*
X0062101Y0163401D01*
X0062101Y0161950D01*
X0061133Y0161950D02*
X0061133Y0163401D01*
X0025790Y0163885D02*
X0025790Y0161950D01*
X0036950Y0083153D02*
X0038802Y0083153D01*
X0039419Y0082536D01*
X0039419Y0081302D01*
X0038802Y0080684D01*
X0036950Y0080684D01*
X0036950Y0079450D02*
X0036950Y0083153D01*
X0040633Y0083153D02*
X0040633Y0079450D01*
X0042485Y0079450D01*
X0043102Y0080067D01*
X0043102Y0082536D01*
X0042485Y0083153D01*
X0040633Y0083153D01*
X0044316Y0083153D02*
X0044316Y0081302D01*
X0045551Y0081919D01*
X0046168Y0081919D01*
X0046785Y0081302D01*
X0046785Y0080067D01*
X0046168Y0079450D01*
X0044933Y0079450D01*
X0044316Y0080067D01*
X0044316Y0083153D02*
X0046785Y0083153D01*
X0046785Y0073153D02*
X0045551Y0072536D01*
X0044316Y0071302D01*
X0046168Y0071302D01*
X0046785Y0070684D01*
X0046785Y0070067D01*
X0046168Y0069450D01*
X0044933Y0069450D01*
X0044316Y0070067D01*
X0044316Y0071302D01*
X0043102Y0070067D02*
X0043102Y0072536D01*
X0042485Y0073153D01*
X0040633Y0073153D01*
X0040633Y0069450D01*
X0042485Y0069450D01*
X0043102Y0070067D01*
X0039419Y0071302D02*
X0038802Y0070684D01*
X0036950Y0070684D01*
X0036950Y0069450D02*
X0036950Y0073153D01*
X0038802Y0073153D01*
X0039419Y0072536D01*
X0039419Y0071302D01*
X0038802Y0063153D02*
X0036950Y0063153D01*
X0036950Y0059450D01*
X0036950Y0060684D02*
X0038802Y0060684D01*
X0039419Y0061302D01*
X0039419Y0062536D01*
X0038802Y0063153D01*
X0040633Y0063153D02*
X0042485Y0063153D01*
X0043102Y0062536D01*
X0043102Y0060067D01*
X0042485Y0059450D01*
X0040633Y0059450D01*
X0040633Y0063153D01*
X0044316Y0063153D02*
X0046785Y0063153D01*
X0046785Y0062536D01*
X0044316Y0060067D01*
X0044316Y0059450D01*
X0115447Y0115650D02*
X0116320Y0114777D01*
X0115883Y0115213D02*
X0118502Y0117832D01*
X0118065Y0118268D02*
X0118938Y0117395D01*
X0119365Y0116095D02*
X0117619Y0114350D01*
X0117619Y0113477D01*
X0118492Y0112604D01*
X0119365Y0112604D01*
X0119787Y0111309D02*
X0123279Y0111309D01*
X0123715Y0111745D01*
X0123715Y0112618D01*
X0122842Y0113491D01*
X0121970Y0113491D01*
X0121111Y0114350D02*
X0121111Y0115223D01*
X0120238Y0116095D01*
X0119365Y0116095D01*
X0119787Y0111309D02*
X0121533Y0109563D01*
X0172947Y0151950D02*
X0172947Y0153802D01*
X0173564Y0154419D01*
X0174798Y0154419D01*
X0175416Y0153802D01*
X0175416Y0151950D01*
X0176650Y0151950D02*
X0172947Y0151950D01*
X0175416Y0153184D02*
X0176650Y0154419D01*
X0176033Y0155633D02*
X0176650Y0156250D01*
X0176650Y0157485D01*
X0176033Y0158102D01*
X0175416Y0158102D01*
X0174798Y0157485D01*
X0174798Y0156250D01*
X0174181Y0155633D01*
X0173564Y0155633D01*
X0172947Y0156250D01*
X0172947Y0157485D01*
X0173564Y0158102D01*
X0172947Y0159316D02*
X0172947Y0161785D01*
X0172947Y0162999D02*
X0172947Y0164851D01*
X0173564Y0165468D01*
X0174181Y0165468D01*
X0174798Y0164851D01*
X0174798Y0162999D01*
X0172947Y0162999D02*
X0176650Y0162999D01*
X0176650Y0164851D01*
X0176033Y0165468D01*
X0175416Y0165468D01*
X0174798Y0164851D01*
X0176650Y0160551D02*
X0172947Y0160551D01*
D11*
X0055558Y0167050D02*
X0055558Y0170103D01*
X0054540Y0171120D01*
X0053522Y0170103D01*
X0053522Y0167050D01*
X0051487Y0167050D02*
X0051487Y0171120D01*
X0052505Y0171120D01*
X0053522Y0170103D01*
X0049480Y0171120D02*
X0048463Y0170103D01*
X0046428Y0170103D01*
X0045410Y0171120D01*
X0045410Y0172138D01*
X0046428Y0173155D01*
X0048463Y0173155D01*
X0049480Y0172138D01*
X0049480Y0171120D01*
X0048463Y0170103D02*
X0049480Y0169085D01*
X0049480Y0168068D01*
X0048463Y0167050D01*
X0046428Y0167050D01*
X0045410Y0168068D01*
X0045410Y0169085D01*
X0046428Y0170103D01*
X0043403Y0170103D02*
X0043403Y0168068D01*
X0042386Y0167050D01*
X0040351Y0167050D01*
X0039333Y0168068D01*
X0037326Y0168068D02*
X0037326Y0169085D01*
X0036308Y0170103D01*
X0035291Y0170103D01*
X0036308Y0170103D02*
X0037326Y0171120D01*
X0037326Y0172138D01*
X0036308Y0173155D01*
X0034273Y0173155D01*
X0033256Y0172138D01*
X0031249Y0170103D02*
X0031249Y0167050D01*
X0033256Y0168068D02*
X0034273Y0167050D01*
X0036308Y0167050D01*
X0037326Y0168068D01*
X0039333Y0170103D02*
X0041368Y0171120D01*
X0042386Y0171120D01*
X0043403Y0170103D01*
X0043403Y0173155D02*
X0039333Y0173155D01*
X0039333Y0170103D01*
X0031249Y0170103D02*
X0030231Y0171120D01*
X0027179Y0171120D01*
X0027179Y0167050D01*
X0025162Y0167050D02*
X0023127Y0167050D01*
X0024145Y0167050D02*
X0024145Y0171120D01*
X0023127Y0171120D01*
X0024145Y0173155D02*
X0024145Y0174173D01*
X0021120Y0173155D02*
X0021120Y0167050D01*
X0017050Y0167050D02*
X0017050Y0173155D01*
X0019085Y0171120D01*
X0021120Y0173155D01*
D12*
X0024300Y0136800D02*
X0021800Y0134300D01*
X0021800Y0129300D01*
X0024300Y0126800D01*
X0021800Y0124300D01*
X0021800Y0119300D01*
X0024300Y0116800D01*
X0029300Y0116800D01*
X0031800Y0119300D01*
X0031800Y0124300D01*
X0029300Y0126800D01*
X0024300Y0126800D01*
X0029300Y0126800D02*
X0031800Y0129300D01*
X0031800Y0134300D01*
X0029300Y0136800D01*
X0024300Y0136800D01*
X0024300Y0116800D02*
X0021800Y0114300D01*
X0021800Y0109300D01*
X0024300Y0106800D01*
X0021800Y0104300D01*
X0021800Y0099300D01*
X0024300Y0096800D01*
X0021800Y0094300D01*
X0021800Y0089300D01*
X0024300Y0086800D01*
X0029300Y0086800D01*
X0031800Y0089300D01*
X0031800Y0094300D01*
X0029300Y0096800D01*
X0024300Y0096800D01*
X0029300Y0096800D02*
X0031800Y0099300D01*
X0031800Y0104300D01*
X0029300Y0106800D01*
X0024300Y0106800D01*
X0029300Y0106800D02*
X0031800Y0109300D01*
X0031800Y0114300D01*
X0029300Y0116800D01*
X0046453Y0108099D02*
X0076859Y0138505D01*
X0076859Y0138504D02*
X0076903Y0138546D01*
X0076949Y0138584D01*
X0076998Y0138620D01*
X0077049Y0138653D01*
X0077101Y0138682D01*
X0077156Y0138709D01*
X0077211Y0138732D01*
X0077268Y0138752D01*
X0077327Y0138768D01*
X0077386Y0138781D01*
X0077445Y0138790D01*
X0077506Y0138795D01*
X0077566Y0138797D01*
X0077626Y0138795D01*
X0077687Y0138790D01*
X0077746Y0138781D01*
X0077805Y0138768D01*
X0077864Y0138752D01*
X0077921Y0138732D01*
X0077976Y0138709D01*
X0078031Y0138682D01*
X0078083Y0138653D01*
X0078134Y0138620D01*
X0078183Y0138584D01*
X0078229Y0138546D01*
X0078273Y0138504D01*
X0078273Y0138505D02*
X0081102Y0135676D01*
X0087465Y0129312D02*
X0090294Y0126484D01*
X0090336Y0126440D01*
X0090374Y0126394D01*
X0090410Y0126345D01*
X0090443Y0126294D01*
X0090472Y0126242D01*
X0090499Y0126187D01*
X0090522Y0126132D01*
X0090542Y0126075D01*
X0090558Y0126016D01*
X0090571Y0125957D01*
X0090580Y0125898D01*
X0090585Y0125837D01*
X0090587Y0125777D01*
X0090585Y0125717D01*
X0090580Y0125656D01*
X0090571Y0125597D01*
X0090558Y0125538D01*
X0090542Y0125479D01*
X0090522Y0125422D01*
X0090499Y0125367D01*
X0090472Y0125312D01*
X0090443Y0125260D01*
X0090410Y0125209D01*
X0090374Y0125160D01*
X0090336Y0125114D01*
X0090294Y0125070D01*
X0059888Y0094664D01*
X0059844Y0094622D01*
X0059798Y0094584D01*
X0059749Y0094548D01*
X0059698Y0094515D01*
X0059646Y0094486D01*
X0059591Y0094459D01*
X0059536Y0094436D01*
X0059479Y0094416D01*
X0059420Y0094400D01*
X0059361Y0094387D01*
X0059302Y0094378D01*
X0059241Y0094373D01*
X0059181Y0094371D01*
X0059121Y0094373D01*
X0059060Y0094378D01*
X0059001Y0094387D01*
X0058942Y0094400D01*
X0058883Y0094416D01*
X0058826Y0094436D01*
X0058771Y0094459D01*
X0058716Y0094486D01*
X0058664Y0094515D01*
X0058613Y0094548D01*
X0058564Y0094584D01*
X0058518Y0094622D01*
X0058474Y0094664D01*
X0055646Y0097492D01*
X0049282Y0103856D02*
X0046453Y0106685D01*
X0046411Y0106729D01*
X0046373Y0106775D01*
X0046337Y0106824D01*
X0046304Y0106875D01*
X0046275Y0106927D01*
X0046248Y0106982D01*
X0046225Y0107037D01*
X0046205Y0107094D01*
X0046189Y0107153D01*
X0046176Y0107212D01*
X0046167Y0107271D01*
X0046162Y0107332D01*
X0046160Y0107392D01*
X0046162Y0107452D01*
X0046167Y0107513D01*
X0046176Y0107572D01*
X0046189Y0107631D01*
X0046205Y0107690D01*
X0046225Y0107747D01*
X0046248Y0107802D01*
X0046275Y0107857D01*
X0046304Y0107909D01*
X0046337Y0107960D01*
X0046373Y0108009D01*
X0046411Y0108055D01*
X0046453Y0108099D01*
X0064838Y0116584D02*
X0066606Y0114816D01*
X0068374Y0113049D01*
X0069434Y0114109D02*
X0070848Y0115524D01*
X0067313Y0119059D01*
X0065899Y0117645D01*
X0069434Y0114109D01*
X0071909Y0116584D02*
X0070141Y0118352D01*
X0068374Y0120120D01*
X0082285Y0096800D02*
X0100812Y0115327D01*
X0102788Y0115327D01*
X0121315Y0096800D01*
X0101800Y0077285D01*
X0082285Y0096800D01*
X0100386Y0112073D02*
X0100388Y0112148D01*
X0100394Y0112222D01*
X0100404Y0112296D01*
X0100417Y0112369D01*
X0100435Y0112442D01*
X0100456Y0112513D01*
X0100481Y0112584D01*
X0100510Y0112653D01*
X0100543Y0112720D01*
X0100579Y0112785D01*
X0100618Y0112849D01*
X0100660Y0112910D01*
X0100706Y0112969D01*
X0100755Y0113026D01*
X0100807Y0113079D01*
X0100861Y0113130D01*
X0100918Y0113179D01*
X0100978Y0113223D01*
X0101040Y0113265D01*
X0101104Y0113304D01*
X0101170Y0113339D01*
X0101237Y0113370D01*
X0101307Y0113398D01*
X0101377Y0113422D01*
X0101449Y0113443D01*
X0101522Y0113459D01*
X0101595Y0113472D01*
X0101670Y0113481D01*
X0101744Y0113486D01*
X0101819Y0113487D01*
X0101893Y0113484D01*
X0101968Y0113477D01*
X0102041Y0113466D01*
X0102115Y0113452D01*
X0102187Y0113433D01*
X0102258Y0113411D01*
X0102328Y0113385D01*
X0102397Y0113355D01*
X0102463Y0113322D01*
X0102528Y0113285D01*
X0102591Y0113245D01*
X0102652Y0113201D01*
X0102710Y0113155D01*
X0102766Y0113105D01*
X0102819Y0113053D01*
X0102870Y0112998D01*
X0102917Y0112940D01*
X0102961Y0112880D01*
X0103002Y0112817D01*
X0103040Y0112753D01*
X0103074Y0112687D01*
X0103105Y0112618D01*
X0103132Y0112549D01*
X0103155Y0112478D01*
X0103174Y0112406D01*
X0103190Y0112333D01*
X0103202Y0112259D01*
X0103210Y0112185D01*
X0103214Y0112110D01*
X0103214Y0112036D01*
X0103210Y0111961D01*
X0103202Y0111887D01*
X0103190Y0111813D01*
X0103174Y0111740D01*
X0103155Y0111668D01*
X0103132Y0111597D01*
X0103105Y0111528D01*
X0103074Y0111459D01*
X0103040Y0111393D01*
X0103002Y0111329D01*
X0102961Y0111266D01*
X0102917Y0111206D01*
X0102870Y0111148D01*
X0102819Y0111093D01*
X0102766Y0111041D01*
X0102710Y0110991D01*
X0102652Y0110945D01*
X0102591Y0110901D01*
X0102528Y0110861D01*
X0102463Y0110824D01*
X0102397Y0110791D01*
X0102328Y0110761D01*
X0102258Y0110735D01*
X0102187Y0110713D01*
X0102115Y0110694D01*
X0102041Y0110680D01*
X0101968Y0110669D01*
X0101893Y0110662D01*
X0101819Y0110659D01*
X0101744Y0110660D01*
X0101670Y0110665D01*
X0101595Y0110674D01*
X0101522Y0110687D01*
X0101449Y0110703D01*
X0101377Y0110724D01*
X0101307Y0110748D01*
X0101237Y0110776D01*
X0101170Y0110807D01*
X0101104Y0110842D01*
X0101040Y0110881D01*
X0100978Y0110923D01*
X0100918Y0110967D01*
X0100861Y0111016D01*
X0100807Y0111067D01*
X0100755Y0111120D01*
X0100706Y0111177D01*
X0100660Y0111236D01*
X0100618Y0111297D01*
X0100579Y0111361D01*
X0100543Y0111426D01*
X0100510Y0111493D01*
X0100481Y0111562D01*
X0100456Y0111633D01*
X0100435Y0111704D01*
X0100417Y0111777D01*
X0100404Y0111850D01*
X0100394Y0111924D01*
X0100388Y0111998D01*
X0100386Y0112073D01*
X0099300Y0166800D02*
X0094300Y0166800D01*
X0091800Y0169300D01*
X0091800Y0174300D01*
X0094300Y0176800D01*
X0099300Y0176800D01*
X0101800Y0174300D01*
X0104300Y0176800D01*
X0109300Y0176800D01*
X0111800Y0174300D01*
X0114300Y0176800D01*
X0119300Y0176800D01*
X0121800Y0174300D01*
X0124300Y0176800D01*
X0129300Y0176800D01*
X0131800Y0174300D01*
X0134300Y0176800D01*
X0139300Y0176800D01*
X0141800Y0174300D01*
X0141800Y0169300D01*
X0139300Y0166800D01*
X0134300Y0166800D01*
X0131800Y0169300D01*
X0129300Y0166800D01*
X0124300Y0166800D01*
X0121800Y0169300D01*
X0121800Y0174300D01*
X0121800Y0169300D02*
X0119300Y0166800D01*
X0114300Y0166800D01*
X0111800Y0169300D01*
X0109300Y0166800D01*
X0104300Y0166800D01*
X0101800Y0169300D01*
X0099300Y0166800D01*
X0101800Y0169300D02*
X0101800Y0174300D01*
X0111800Y0174300D02*
X0111800Y0169300D01*
X0091800Y0169300D02*
X0089300Y0166800D01*
X0084300Y0166800D01*
X0081800Y0169300D01*
X0079300Y0166800D01*
X0074300Y0166800D01*
X0071800Y0169300D01*
X0069300Y0166800D01*
X0064300Y0166800D01*
X0061800Y0169300D01*
X0061800Y0174300D01*
X0064300Y0176800D01*
X0069300Y0176800D01*
X0071800Y0174300D01*
X0074300Y0176800D01*
X0079300Y0176800D01*
X0081800Y0174300D01*
X0084300Y0176800D01*
X0089300Y0176800D01*
X0091800Y0174300D01*
X0081800Y0174300D02*
X0081800Y0169300D01*
X0071800Y0169300D02*
X0071800Y0174300D01*
X0131800Y0174300D02*
X0131800Y0169300D01*
X0171800Y0134300D02*
X0174300Y0136800D01*
X0179300Y0136800D01*
X0181800Y0134300D01*
X0181800Y0129300D01*
X0179300Y0126800D01*
X0181800Y0124300D01*
X0181800Y0119300D01*
X0179300Y0116800D01*
X0181800Y0114300D01*
X0181800Y0109300D01*
X0179300Y0106800D01*
X0181800Y0104300D01*
X0181800Y0099300D01*
X0179300Y0096800D01*
X0181800Y0094300D01*
X0181800Y0089300D01*
X0179300Y0086800D01*
X0181800Y0084300D01*
X0181800Y0079300D01*
X0179300Y0076800D01*
X0181800Y0074300D01*
X0181800Y0069300D01*
X0179300Y0066800D01*
X0181800Y0064300D01*
X0181800Y0059300D01*
X0179300Y0056800D01*
X0174300Y0056800D01*
X0171800Y0059300D01*
X0171800Y0064300D01*
X0174300Y0066800D01*
X0171800Y0069300D01*
X0171800Y0074300D01*
X0174300Y0076800D01*
X0179300Y0076800D01*
X0174300Y0076800D02*
X0171800Y0079300D01*
X0171800Y0084300D01*
X0174300Y0086800D01*
X0171800Y0089300D01*
X0171800Y0094300D01*
X0174300Y0096800D01*
X0171800Y0099300D01*
X0171800Y0104300D01*
X0174300Y0106800D01*
X0179300Y0106800D01*
X0174300Y0106800D02*
X0171800Y0109300D01*
X0171800Y0114300D01*
X0174300Y0116800D01*
X0171800Y0119300D01*
X0171800Y0124300D01*
X0174300Y0126800D01*
X0171800Y0129300D01*
X0171800Y0134300D01*
X0174300Y0126800D02*
X0179300Y0126800D01*
X0179300Y0116800D02*
X0174300Y0116800D01*
X0174300Y0096800D02*
X0179300Y0096800D01*
X0179300Y0086800D02*
X0174300Y0086800D01*
X0174300Y0066800D02*
X0179300Y0066800D01*
X0179300Y0036800D02*
X0174300Y0036800D01*
X0171800Y0034300D01*
X0171800Y0019300D01*
X0174300Y0016800D01*
X0179300Y0016800D01*
X0181800Y0019300D01*
X0181800Y0034300D01*
X0179300Y0036800D01*
X0171800Y0034300D02*
X0169300Y0036800D01*
X0164300Y0036800D01*
X0161800Y0034300D01*
X0161800Y0019300D01*
X0164300Y0016800D01*
X0169300Y0016800D01*
X0171800Y0019300D01*
X0161800Y0019300D02*
X0159300Y0016800D01*
X0154300Y0016800D01*
X0151800Y0019300D01*
X0151800Y0034300D01*
X0154300Y0036800D01*
X0159300Y0036800D01*
X0161800Y0034300D01*
X0141800Y0024300D02*
X0141800Y0019300D01*
X0139300Y0016800D01*
X0134300Y0016800D01*
X0131800Y0019300D01*
X0129300Y0016800D01*
X0124300Y0016800D01*
X0121800Y0019300D01*
X0119300Y0016800D01*
X0114300Y0016800D01*
X0111800Y0019300D01*
X0109300Y0016800D01*
X0104300Y0016800D01*
X0101800Y0019300D01*
X0099300Y0016800D01*
X0094300Y0016800D01*
X0091800Y0019300D01*
X0089300Y0016800D01*
X0084300Y0016800D01*
X0081800Y0019300D01*
X0079300Y0016800D01*
X0074300Y0016800D01*
X0071800Y0019300D01*
X0069300Y0016800D01*
X0064300Y0016800D01*
X0061800Y0019300D01*
X0061800Y0024300D01*
X0064300Y0026800D01*
X0069300Y0026800D01*
X0071800Y0024300D01*
X0074300Y0026800D01*
X0079300Y0026800D01*
X0081800Y0024300D01*
X0081800Y0019300D01*
X0081800Y0024300D02*
X0084300Y0026800D01*
X0089300Y0026800D01*
X0091800Y0024300D01*
X0094300Y0026800D01*
X0099300Y0026800D01*
X0101800Y0024300D01*
X0104300Y0026800D01*
X0109300Y0026800D01*
X0111800Y0024300D01*
X0111800Y0019300D01*
X0111800Y0024300D02*
X0114300Y0026800D01*
X0119300Y0026800D01*
X0121800Y0024300D01*
X0124300Y0026800D01*
X0129300Y0026800D01*
X0131800Y0024300D01*
X0134300Y0026800D01*
X0139300Y0026800D01*
X0141800Y0024300D01*
X0131800Y0024300D02*
X0131800Y0019300D01*
X0121800Y0019300D02*
X0121800Y0024300D01*
X0101800Y0024300D02*
X0101800Y0019300D01*
X0091800Y0019300D02*
X0091800Y0024300D01*
X0071800Y0024300D02*
X0071800Y0019300D01*
X0031800Y0059300D02*
X0029300Y0056800D01*
X0024300Y0056800D01*
X0021800Y0059300D01*
X0021800Y0064300D01*
X0024300Y0066800D01*
X0021800Y0069300D01*
X0021800Y0074300D01*
X0024300Y0076800D01*
X0021800Y0079300D01*
X0021800Y0084300D01*
X0024300Y0086800D01*
X0029300Y0086800D02*
X0031800Y0084300D01*
X0031800Y0079300D01*
X0029300Y0076800D01*
X0031800Y0074300D01*
X0031800Y0069300D01*
X0029300Y0066800D01*
X0031800Y0064300D01*
X0031800Y0059300D01*
X0029300Y0066800D02*
X0024300Y0066800D01*
X0024300Y0076800D02*
X0029300Y0076800D01*
D13*
X0071382Y0138074D02*
X0072231Y0138074D01*
X0073081Y0138923D01*
X0073081Y0139773D01*
X0071382Y0141471D01*
X0070533Y0141471D01*
X0069684Y0140622D01*
X0069684Y0139773D01*
X0071382Y0138074D01*
X0071807Y0139348D02*
X0073505Y0139348D01*
X0074411Y0140254D02*
X0076110Y0141952D01*
X0075260Y0141103D02*
X0072713Y0143651D01*
X0072713Y0141952D01*
X0162000Y0043103D02*
X0163201Y0043103D01*
X0162601Y0043103D02*
X0162601Y0039500D01*
X0163201Y0039500D02*
X0162000Y0039500D01*
X0164455Y0040101D02*
X0164455Y0042503D01*
X0165056Y0043103D01*
X0166257Y0043103D01*
X0166857Y0042503D01*
X0168139Y0042503D02*
X0168739Y0043103D01*
X0169940Y0043103D01*
X0170541Y0042503D01*
X0169940Y0041302D02*
X0170541Y0040701D01*
X0170541Y0040101D01*
X0169940Y0039500D01*
X0168739Y0039500D01*
X0168139Y0040101D01*
X0166857Y0040101D02*
X0166257Y0039500D01*
X0165056Y0039500D01*
X0164455Y0040101D01*
X0168139Y0041902D02*
X0168739Y0041302D01*
X0169940Y0041302D01*
X0168139Y0041902D02*
X0168139Y0042503D01*
X0171822Y0043103D02*
X0171822Y0039500D01*
X0171822Y0040701D02*
X0173623Y0040701D01*
X0174224Y0041302D01*
X0174224Y0042503D01*
X0173623Y0043103D01*
X0171822Y0043103D01*
D14*
X0026406Y0021800D03*
D15*
X0064484Y0101381D02*
X0083576Y0120473D01*
X0081455Y0122595D02*
X0062363Y0103503D01*
X0064485Y0101381D02*
X0064346Y0101245D01*
X0064203Y0101113D01*
X0064057Y0100984D01*
X0063908Y0100858D01*
X0063757Y0100736D01*
X0063602Y0100618D01*
X0063444Y0100504D01*
X0063284Y0100394D01*
X0063121Y0100287D01*
X0062955Y0100185D01*
X0062787Y0100086D01*
X0062617Y0099992D01*
X0062444Y0099902D01*
X0062270Y0099816D01*
X0062093Y0099735D01*
X0061914Y0099657D01*
X0061734Y0099584D01*
X0061552Y0099516D01*
X0061368Y0099452D01*
X0061182Y0099392D01*
X0060996Y0099337D01*
X0060808Y0099287D01*
X0060618Y0099241D01*
X0060428Y0099200D01*
X0060237Y0099163D01*
X0060045Y0099131D01*
X0059852Y0099104D01*
X0059659Y0099081D01*
X0059465Y0099063D01*
X0059271Y0099050D01*
X0059076Y0099042D01*
X0058882Y0099038D01*
X0058687Y0099039D01*
X0058492Y0099045D01*
X0058298Y0099056D01*
X0058104Y0099071D01*
X0057910Y0099091D01*
X0057717Y0099116D01*
X0057525Y0099145D01*
X0057333Y0099179D01*
X0060469Y0102315D02*
X0060594Y0102360D01*
X0060717Y0102409D01*
X0060839Y0102460D01*
X0060960Y0102515D01*
X0061079Y0102573D01*
X0061197Y0102635D01*
X0061313Y0102699D01*
X0061427Y0102767D01*
X0061539Y0102837D01*
X0061650Y0102910D01*
X0061758Y0102987D01*
X0061865Y0103066D01*
X0061969Y0103148D01*
X0062071Y0103233D01*
X0062171Y0103320D01*
X0062269Y0103410D01*
X0062364Y0103503D01*
X0050969Y0105544D02*
X0050935Y0105735D01*
X0050906Y0105928D01*
X0050881Y0106121D01*
X0050861Y0106315D01*
X0050846Y0106509D01*
X0050835Y0106703D01*
X0050829Y0106898D01*
X0050828Y0107092D01*
X0050832Y0107287D01*
X0050840Y0107481D01*
X0050853Y0107676D01*
X0050871Y0107869D01*
X0050894Y0108063D01*
X0050921Y0108256D01*
X0050953Y0108448D01*
X0050990Y0108639D01*
X0051031Y0108829D01*
X0051077Y0109018D01*
X0051127Y0109206D01*
X0051182Y0109393D01*
X0051242Y0109578D01*
X0051306Y0109762D01*
X0051374Y0109944D01*
X0051447Y0110125D01*
X0051524Y0110304D01*
X0051606Y0110480D01*
X0051692Y0110655D01*
X0051782Y0110828D01*
X0051876Y0110998D01*
X0051975Y0111166D01*
X0052077Y0111331D01*
X0052184Y0111494D01*
X0052294Y0111655D01*
X0052408Y0111812D01*
X0052526Y0111967D01*
X0052648Y0112119D01*
X0052773Y0112268D01*
X0052902Y0112414D01*
X0053035Y0112556D01*
X0053171Y0112696D01*
X0053171Y0112695D02*
X0072263Y0131787D01*
X0074384Y0129666D02*
X0055292Y0110574D01*
X0055293Y0110574D02*
X0055200Y0110479D01*
X0055110Y0110381D01*
X0055023Y0110281D01*
X0054938Y0110179D01*
X0054856Y0110075D01*
X0054777Y0109968D01*
X0054700Y0109860D01*
X0054627Y0109749D01*
X0054557Y0109637D01*
X0054489Y0109523D01*
X0054425Y0109407D01*
X0054363Y0109289D01*
X0054305Y0109170D01*
X0054250Y0109049D01*
X0054199Y0108927D01*
X0054150Y0108804D01*
X0054105Y0108679D01*
X0065192Y0113402D02*
X0066606Y0114816D01*
X0070141Y0118352D02*
X0071556Y0119766D01*
X0083576Y0120473D02*
X0083712Y0120613D01*
X0083845Y0120755D01*
X0083974Y0120901D01*
X0084099Y0121050D01*
X0084221Y0121202D01*
X0084339Y0121357D01*
X0084453Y0121514D01*
X0084564Y0121675D01*
X0084670Y0121838D01*
X0084772Y0122003D01*
X0084871Y0122171D01*
X0084965Y0122342D01*
X0085055Y0122514D01*
X0085141Y0122689D01*
X0085223Y0122866D01*
X0085300Y0123044D01*
X0085373Y0123225D01*
X0085441Y0123407D01*
X0085505Y0123591D01*
X0085565Y0123776D01*
X0085620Y0123963D01*
X0085670Y0124151D01*
X0085716Y0124340D01*
X0085757Y0124530D01*
X0085794Y0124722D01*
X0085826Y0124914D01*
X0085853Y0125106D01*
X0085876Y0125300D01*
X0085894Y0125494D01*
X0085907Y0125688D01*
X0085915Y0125882D01*
X0085919Y0126077D01*
X0085918Y0126272D01*
X0085912Y0126466D01*
X0085901Y0126661D01*
X0085886Y0126855D01*
X0085866Y0127048D01*
X0085841Y0127241D01*
X0085812Y0127434D01*
X0085778Y0127626D01*
X0079415Y0133989D02*
X0079223Y0134023D01*
X0079031Y0134052D01*
X0078838Y0134077D01*
X0078644Y0134097D01*
X0078450Y0134112D01*
X0078256Y0134123D01*
X0078061Y0134129D01*
X0077866Y0134130D01*
X0077672Y0134126D01*
X0077477Y0134118D01*
X0077283Y0134105D01*
X0077089Y0134087D01*
X0076896Y0134064D01*
X0076703Y0134037D01*
X0076511Y0134005D01*
X0076320Y0133968D01*
X0076130Y0133927D01*
X0075940Y0133881D01*
X0075752Y0133831D01*
X0075566Y0133776D01*
X0075380Y0133716D01*
X0075196Y0133652D01*
X0075014Y0133584D01*
X0074834Y0133511D01*
X0074655Y0133433D01*
X0074478Y0133352D01*
X0074304Y0133266D01*
X0074131Y0133176D01*
X0073961Y0133082D01*
X0073793Y0132983D01*
X0073627Y0132881D01*
X0073464Y0132774D01*
X0073304Y0132664D01*
X0073146Y0132550D01*
X0072991Y0132432D01*
X0072840Y0132310D01*
X0072691Y0132184D01*
X0072545Y0132055D01*
X0072402Y0131923D01*
X0072263Y0131787D01*
X0082643Y0124489D02*
X0082598Y0124364D01*
X0082549Y0124241D01*
X0082498Y0124119D01*
X0082443Y0123998D01*
X0082385Y0123879D01*
X0082323Y0123761D01*
X0082259Y0123645D01*
X0082191Y0123531D01*
X0082121Y0123419D01*
X0082048Y0123308D01*
X0081971Y0123200D01*
X0081892Y0123093D01*
X0081810Y0122989D01*
X0081725Y0122887D01*
X0081638Y0122787D01*
X0081548Y0122689D01*
X0081455Y0122594D01*
X0076279Y0130853D02*
X0076154Y0130808D01*
X0076031Y0130759D01*
X0075909Y0130708D01*
X0075788Y0130653D01*
X0075669Y0130595D01*
X0075551Y0130533D01*
X0075435Y0130469D01*
X0075321Y0130401D01*
X0075209Y0130331D01*
X0075098Y0130258D01*
X0074990Y0130181D01*
X0074883Y0130102D01*
X0074779Y0130020D01*
X0074677Y0129935D01*
X0074577Y0129848D01*
X0074479Y0129758D01*
X0074384Y0129665D01*
D16*
X0154910Y0144989D02*
X0154910Y0168611D01*
X0155894Y0168611D01*
X0158847Y0160737D02*
X0158847Y0152863D01*
X0164753Y0152863D02*
X0164753Y0160737D01*
X0167706Y0168611D02*
X0168690Y0168611D01*
X0168690Y0144989D01*
X0167706Y0144989D01*
X0155894Y0144989D02*
X0154910Y0144989D01*
M02*
